G04 #@! TF.GenerationSoftware,KiCad,Pcbnew,(5.1.5)-3*
G04 #@! TF.CreationDate,2021-03-30T14:25:26+02:00*
G04 #@! TF.ProjectId,WiFi_LCD_clock,57694669-5f4c-4434-945f-636c6f636b2e,rev?*
G04 #@! TF.SameCoordinates,Original*
G04 #@! TF.FileFunction,Soldermask,Top*
G04 #@! TF.FilePolarity,Negative*
%FSLAX46Y46*%
G04 Gerber Fmt 4.6, Leading zero omitted, Abs format (unit mm)*
G04 Created by KiCad (PCBNEW (5.1.5)-3) date 2021-03-30 14:25:26*
%MOMM*%
%LPD*%
G04 APERTURE LIST*
%ADD10C,0.100000*%
%ADD11C,0.150000*%
%ADD12C,0.300000*%
%ADD13C,0.400000*%
G04 APERTURE END LIST*
D10*
D11*
X177002200Y-166007200D02*
X177002200Y-198007200D01*
X285002200Y-198007200D01*
X285002200Y-166007200D01*
X177002200Y-166007200D01*
D10*
D11*
X10000000Y-10000000D02*
X10000000Y-200007200D01*
X287002200Y-200007200D01*
X287002200Y-10000000D01*
X10000000Y-10000000D01*
D10*
D11*
X12000000Y-12000000D02*
X12000000Y-198007200D01*
X285002200Y-198007200D01*
X285002200Y-12000000D01*
X12000000Y-12000000D01*
D10*
D11*
X60000000Y-12000000D02*
X60000000Y-10000000D01*
D10*
D11*
X110000000Y-12000000D02*
X110000000Y-10000000D01*
D10*
D11*
X160000000Y-12000000D02*
X160000000Y-10000000D01*
D10*
D11*
X210000000Y-12000000D02*
X210000000Y-10000000D01*
D10*
D11*
X260000000Y-12000000D02*
X260000000Y-10000000D01*
D10*
D11*
X36065476Y-11588095D02*
X35322619Y-11588095D01*
X35694047Y-11588095D02*
X35694047Y-10288095D01*
X35570238Y-10473809D01*
X35446428Y-10597619D01*
X35322619Y-10659523D01*
D10*
D11*
X85322619Y-10411904D02*
X85384523Y-10350000D01*
X85508333Y-10288095D01*
X85817857Y-10288095D01*
X85941666Y-10350000D01*
X86003571Y-10411904D01*
X86065476Y-10535714D01*
X86065476Y-10659523D01*
X86003571Y-10845238D01*
X85260714Y-11588095D01*
X86065476Y-11588095D01*
D10*
D11*
X135260714Y-10288095D02*
X136065476Y-10288095D01*
X135632142Y-10783333D01*
X135817857Y-10783333D01*
X135941666Y-10845238D01*
X136003571Y-10907142D01*
X136065476Y-11030952D01*
X136065476Y-11340476D01*
X136003571Y-11464285D01*
X135941666Y-11526190D01*
X135817857Y-11588095D01*
X135446428Y-11588095D01*
X135322619Y-11526190D01*
X135260714Y-11464285D01*
D10*
D11*
X185941666Y-10721428D02*
X185941666Y-11588095D01*
X185632142Y-10226190D02*
X185322619Y-11154761D01*
X186127380Y-11154761D01*
D10*
D11*
X236003571Y-10288095D02*
X235384523Y-10288095D01*
X235322619Y-10907142D01*
X235384523Y-10845238D01*
X235508333Y-10783333D01*
X235817857Y-10783333D01*
X235941666Y-10845238D01*
X236003571Y-10907142D01*
X236065476Y-11030952D01*
X236065476Y-11340476D01*
X236003571Y-11464285D01*
X235941666Y-11526190D01*
X235817857Y-11588095D01*
X235508333Y-11588095D01*
X235384523Y-11526190D01*
X235322619Y-11464285D01*
D10*
D11*
X285941666Y-10288095D02*
X285694047Y-10288095D01*
X285570238Y-10350000D01*
X285508333Y-10411904D01*
X285384523Y-10597619D01*
X285322619Y-10845238D01*
X285322619Y-11340476D01*
X285384523Y-11464285D01*
X285446428Y-11526190D01*
X285570238Y-11588095D01*
X285817857Y-11588095D01*
X285941666Y-11526190D01*
X286003571Y-11464285D01*
X286065476Y-11340476D01*
X286065476Y-11030952D01*
X286003571Y-10907142D01*
X285941666Y-10845238D01*
X285817857Y-10783333D01*
X285570238Y-10783333D01*
X285446428Y-10845238D01*
X285384523Y-10907142D01*
X285322619Y-11030952D01*
D10*
D11*
X60000000Y-198007200D02*
X60000000Y-200007200D01*
D10*
D11*
X110000000Y-198007200D02*
X110000000Y-200007200D01*
D10*
D11*
X160000000Y-198007200D02*
X160000000Y-200007200D01*
D10*
D11*
X210000000Y-198007200D02*
X210000000Y-200007200D01*
D10*
D11*
X260000000Y-198007200D02*
X260000000Y-200007200D01*
D10*
D11*
X36065476Y-199595295D02*
X35322619Y-199595295D01*
X35694047Y-199595295D02*
X35694047Y-198295295D01*
X35570238Y-198481009D01*
X35446428Y-198604819D01*
X35322619Y-198666723D01*
D10*
D11*
X85322619Y-198419104D02*
X85384523Y-198357200D01*
X85508333Y-198295295D01*
X85817857Y-198295295D01*
X85941666Y-198357200D01*
X86003571Y-198419104D01*
X86065476Y-198542914D01*
X86065476Y-198666723D01*
X86003571Y-198852438D01*
X85260714Y-199595295D01*
X86065476Y-199595295D01*
D10*
D11*
X135260714Y-198295295D02*
X136065476Y-198295295D01*
X135632142Y-198790533D01*
X135817857Y-198790533D01*
X135941666Y-198852438D01*
X136003571Y-198914342D01*
X136065476Y-199038152D01*
X136065476Y-199347676D01*
X136003571Y-199471485D01*
X135941666Y-199533390D01*
X135817857Y-199595295D01*
X135446428Y-199595295D01*
X135322619Y-199533390D01*
X135260714Y-199471485D01*
D10*
D11*
X185941666Y-198728628D02*
X185941666Y-199595295D01*
X185632142Y-198233390D02*
X185322619Y-199161961D01*
X186127380Y-199161961D01*
D10*
D11*
X236003571Y-198295295D02*
X235384523Y-198295295D01*
X235322619Y-198914342D01*
X235384523Y-198852438D01*
X235508333Y-198790533D01*
X235817857Y-198790533D01*
X235941666Y-198852438D01*
X236003571Y-198914342D01*
X236065476Y-199038152D01*
X236065476Y-199347676D01*
X236003571Y-199471485D01*
X235941666Y-199533390D01*
X235817857Y-199595295D01*
X235508333Y-199595295D01*
X235384523Y-199533390D01*
X235322619Y-199471485D01*
D10*
D11*
X285941666Y-198295295D02*
X285694047Y-198295295D01*
X285570238Y-198357200D01*
X285508333Y-198419104D01*
X285384523Y-198604819D01*
X285322619Y-198852438D01*
X285322619Y-199347676D01*
X285384523Y-199471485D01*
X285446428Y-199533390D01*
X285570238Y-199595295D01*
X285817857Y-199595295D01*
X285941666Y-199533390D01*
X286003571Y-199471485D01*
X286065476Y-199347676D01*
X286065476Y-199038152D01*
X286003571Y-198914342D01*
X285941666Y-198852438D01*
X285817857Y-198790533D01*
X285570238Y-198790533D01*
X285446428Y-198852438D01*
X285384523Y-198914342D01*
X285322619Y-199038152D01*
D10*
D11*
X10000000Y-60000000D02*
X12000000Y-60000000D01*
D10*
D11*
X10000000Y-110000000D02*
X12000000Y-110000000D01*
D10*
D11*
X10000000Y-160000000D02*
X12000000Y-160000000D01*
D10*
D11*
X10690476Y-35216666D02*
X11309523Y-35216666D01*
X10566666Y-35588095D02*
X11000000Y-34288095D01*
X11433333Y-35588095D01*
D10*
D11*
X11092857Y-84907142D02*
X11278571Y-84969047D01*
X11340476Y-85030952D01*
X11402380Y-85154761D01*
X11402380Y-85340476D01*
X11340476Y-85464285D01*
X11278571Y-85526190D01*
X11154761Y-85588095D01*
X10659523Y-85588095D01*
X10659523Y-84288095D01*
X11092857Y-84288095D01*
X11216666Y-84350000D01*
X11278571Y-84411904D01*
X11340476Y-84535714D01*
X11340476Y-84659523D01*
X11278571Y-84783333D01*
X11216666Y-84845238D01*
X11092857Y-84907142D01*
X10659523Y-84907142D01*
D10*
D11*
X11402380Y-135464285D02*
X11340476Y-135526190D01*
X11154761Y-135588095D01*
X11030952Y-135588095D01*
X10845238Y-135526190D01*
X10721428Y-135402380D01*
X10659523Y-135278571D01*
X10597619Y-135030952D01*
X10597619Y-134845238D01*
X10659523Y-134597619D01*
X10721428Y-134473809D01*
X10845238Y-134350000D01*
X11030952Y-134288095D01*
X11154761Y-134288095D01*
X11340476Y-134350000D01*
X11402380Y-134411904D01*
D10*
D11*
X10659523Y-185588095D02*
X10659523Y-184288095D01*
X10969047Y-184288095D01*
X11154761Y-184350000D01*
X11278571Y-184473809D01*
X11340476Y-184597619D01*
X11402380Y-184845238D01*
X11402380Y-185030952D01*
X11340476Y-185278571D01*
X11278571Y-185402380D01*
X11154761Y-185526190D01*
X10969047Y-185588095D01*
X10659523Y-185588095D01*
D10*
D11*
X287002200Y-60000000D02*
X285002200Y-60000000D01*
D10*
D11*
X287002200Y-110000000D02*
X285002200Y-110000000D01*
D10*
D11*
X287002200Y-160000000D02*
X285002200Y-160000000D01*
D10*
D11*
X285692676Y-35216666D02*
X286311723Y-35216666D01*
X285568866Y-35588095D02*
X286002200Y-34288095D01*
X286435533Y-35588095D01*
D10*
D11*
X286095057Y-84907142D02*
X286280771Y-84969047D01*
X286342676Y-85030952D01*
X286404580Y-85154761D01*
X286404580Y-85340476D01*
X286342676Y-85464285D01*
X286280771Y-85526190D01*
X286156961Y-85588095D01*
X285661723Y-85588095D01*
X285661723Y-84288095D01*
X286095057Y-84288095D01*
X286218866Y-84350000D01*
X286280771Y-84411904D01*
X286342676Y-84535714D01*
X286342676Y-84659523D01*
X286280771Y-84783333D01*
X286218866Y-84845238D01*
X286095057Y-84907142D01*
X285661723Y-84907142D01*
D10*
D11*
X286404580Y-135464285D02*
X286342676Y-135526190D01*
X286156961Y-135588095D01*
X286033152Y-135588095D01*
X285847438Y-135526190D01*
X285723628Y-135402380D01*
X285661723Y-135278571D01*
X285599819Y-135030952D01*
X285599819Y-134845238D01*
X285661723Y-134597619D01*
X285723628Y-134473809D01*
X285847438Y-134350000D01*
X286033152Y-134288095D01*
X286156961Y-134288095D01*
X286342676Y-134350000D01*
X286404580Y-134411904D01*
D10*
D11*
X285661723Y-185588095D02*
X285661723Y-184288095D01*
X285971247Y-184288095D01*
X286156961Y-184350000D01*
X286280771Y-184473809D01*
X286342676Y-184597619D01*
X286404580Y-184845238D01*
X286404580Y-185030952D01*
X286342676Y-185278571D01*
X286280771Y-185402380D01*
X286156961Y-185526190D01*
X285971247Y-185588095D01*
X285661723Y-185588095D01*
D10*
D11*
X200434342Y-193785771D02*
X200434342Y-192285771D01*
X200791485Y-192285771D01*
X201005771Y-192357200D01*
X201148628Y-192500057D01*
X201220057Y-192642914D01*
X201291485Y-192928628D01*
X201291485Y-193142914D01*
X201220057Y-193428628D01*
X201148628Y-193571485D01*
X201005771Y-193714342D01*
X200791485Y-193785771D01*
X200434342Y-193785771D01*
X202577200Y-193785771D02*
X202577200Y-193000057D01*
X202505771Y-192857200D01*
X202362914Y-192785771D01*
X202077200Y-192785771D01*
X201934342Y-192857200D01*
X202577200Y-193714342D02*
X202434342Y-193785771D01*
X202077200Y-193785771D01*
X201934342Y-193714342D01*
X201862914Y-193571485D01*
X201862914Y-193428628D01*
X201934342Y-193285771D01*
X202077200Y-193214342D01*
X202434342Y-193214342D01*
X202577200Y-193142914D01*
X203077200Y-192785771D02*
X203648628Y-192785771D01*
X203291485Y-192285771D02*
X203291485Y-193571485D01*
X203362914Y-193714342D01*
X203505771Y-193785771D01*
X203648628Y-193785771D01*
X204720057Y-193714342D02*
X204577200Y-193785771D01*
X204291485Y-193785771D01*
X204148628Y-193714342D01*
X204077200Y-193571485D01*
X204077200Y-193000057D01*
X204148628Y-192857200D01*
X204291485Y-192785771D01*
X204577200Y-192785771D01*
X204720057Y-192857200D01*
X204791485Y-193000057D01*
X204791485Y-193142914D01*
X204077200Y-193285771D01*
X205434342Y-193642914D02*
X205505771Y-193714342D01*
X205434342Y-193785771D01*
X205362914Y-193714342D01*
X205434342Y-193642914D01*
X205434342Y-193785771D01*
X205434342Y-192857200D02*
X205505771Y-192928628D01*
X205434342Y-193000057D01*
X205362914Y-192928628D01*
X205434342Y-192857200D01*
X205434342Y-193000057D01*
D10*
D11*
X177002200Y-194507200D02*
X285002200Y-194507200D01*
D10*
D11*
X178434342Y-196585771D02*
X178434342Y-195085771D01*
X179291485Y-196585771D02*
X178648628Y-195728628D01*
X179291485Y-195085771D02*
X178434342Y-195942914D01*
X179934342Y-196585771D02*
X179934342Y-195585771D01*
X179934342Y-195085771D02*
X179862914Y-195157200D01*
X179934342Y-195228628D01*
X180005771Y-195157200D01*
X179934342Y-195085771D01*
X179934342Y-195228628D01*
X181505771Y-196442914D02*
X181434342Y-196514342D01*
X181220057Y-196585771D01*
X181077200Y-196585771D01*
X180862914Y-196514342D01*
X180720057Y-196371485D01*
X180648628Y-196228628D01*
X180577200Y-195942914D01*
X180577200Y-195728628D01*
X180648628Y-195442914D01*
X180720057Y-195300057D01*
X180862914Y-195157200D01*
X181077200Y-195085771D01*
X181220057Y-195085771D01*
X181434342Y-195157200D01*
X181505771Y-195228628D01*
X182791485Y-196585771D02*
X182791485Y-195800057D01*
X182720057Y-195657200D01*
X182577200Y-195585771D01*
X182291485Y-195585771D01*
X182148628Y-195657200D01*
X182791485Y-196514342D02*
X182648628Y-196585771D01*
X182291485Y-196585771D01*
X182148628Y-196514342D01*
X182077200Y-196371485D01*
X182077200Y-196228628D01*
X182148628Y-196085771D01*
X182291485Y-196014342D01*
X182648628Y-196014342D01*
X182791485Y-195942914D01*
X184148628Y-196585771D02*
X184148628Y-195085771D01*
X184148628Y-196514342D02*
X184005771Y-196585771D01*
X183720057Y-196585771D01*
X183577200Y-196514342D01*
X183505771Y-196442914D01*
X183434342Y-196300057D01*
X183434342Y-195871485D01*
X183505771Y-195728628D01*
X183577200Y-195657200D01*
X183720057Y-195585771D01*
X184005771Y-195585771D01*
X184148628Y-195657200D01*
X186005771Y-195800057D02*
X186505771Y-195800057D01*
X186720057Y-196585771D02*
X186005771Y-196585771D01*
X186005771Y-195085771D01*
X186720057Y-195085771D01*
X187362914Y-196442914D02*
X187434342Y-196514342D01*
X187362914Y-196585771D01*
X187291485Y-196514342D01*
X187362914Y-196442914D01*
X187362914Y-196585771D01*
X188077200Y-196585771D02*
X188077200Y-195085771D01*
X188434342Y-195085771D01*
X188648628Y-195157200D01*
X188791485Y-195300057D01*
X188862914Y-195442914D01*
X188934342Y-195728628D01*
X188934342Y-195942914D01*
X188862914Y-196228628D01*
X188791485Y-196371485D01*
X188648628Y-196514342D01*
X188434342Y-196585771D01*
X188077200Y-196585771D01*
X189577200Y-196442914D02*
X189648628Y-196514342D01*
X189577200Y-196585771D01*
X189505771Y-196514342D01*
X189577200Y-196442914D01*
X189577200Y-196585771D01*
X190220057Y-196157200D02*
X190934342Y-196157200D01*
X190077200Y-196585771D02*
X190577200Y-195085771D01*
X191077200Y-196585771D01*
X191577200Y-196442914D02*
X191648628Y-196514342D01*
X191577200Y-196585771D01*
X191505771Y-196514342D01*
X191577200Y-196442914D01*
X191577200Y-196585771D01*
X194577200Y-196585771D02*
X194577200Y-195085771D01*
X194720057Y-196014342D02*
X195148628Y-196585771D01*
X195148628Y-195585771D02*
X194577200Y-196157200D01*
X195791485Y-196585771D02*
X195791485Y-195585771D01*
X195791485Y-195085771D02*
X195720057Y-195157200D01*
X195791485Y-195228628D01*
X195862914Y-195157200D01*
X195791485Y-195085771D01*
X195791485Y-195228628D01*
X197148628Y-196514342D02*
X197005771Y-196585771D01*
X196720057Y-196585771D01*
X196577200Y-196514342D01*
X196505771Y-196442914D01*
X196434342Y-196300057D01*
X196434342Y-195871485D01*
X196505771Y-195728628D01*
X196577200Y-195657200D01*
X196720057Y-195585771D01*
X197005771Y-195585771D01*
X197148628Y-195657200D01*
X198434342Y-196585771D02*
X198434342Y-195800057D01*
X198362914Y-195657200D01*
X198220057Y-195585771D01*
X197934342Y-195585771D01*
X197791485Y-195657200D01*
X198434342Y-196514342D02*
X198291485Y-196585771D01*
X197934342Y-196585771D01*
X197791485Y-196514342D01*
X197720057Y-196371485D01*
X197720057Y-196228628D01*
X197791485Y-196085771D01*
X197934342Y-196014342D01*
X198291485Y-196014342D01*
X198434342Y-195942914D01*
X199791485Y-196585771D02*
X199791485Y-195085771D01*
X199791485Y-196514342D02*
X199648628Y-196585771D01*
X199362914Y-196585771D01*
X199220057Y-196514342D01*
X199148628Y-196442914D01*
X199077200Y-196300057D01*
X199077200Y-195871485D01*
X199148628Y-195728628D01*
X199220057Y-195657200D01*
X199362914Y-195585771D01*
X199648628Y-195585771D01*
X199791485Y-195657200D01*
X202077200Y-197157200D02*
X202005771Y-197085771D01*
X201862914Y-196871485D01*
X201791485Y-196728628D01*
X201720057Y-196514342D01*
X201648628Y-196157200D01*
X201648628Y-195871485D01*
X201720057Y-195514342D01*
X201791485Y-195300057D01*
X201862914Y-195157200D01*
X202005771Y-194942914D01*
X202077200Y-194871485D01*
X203362914Y-195085771D02*
X202648628Y-195085771D01*
X202577200Y-195800057D01*
X202648628Y-195728628D01*
X202791485Y-195657200D01*
X203148628Y-195657200D01*
X203291485Y-195728628D01*
X203362914Y-195800057D01*
X203434342Y-195942914D01*
X203434342Y-196300057D01*
X203362914Y-196442914D01*
X203291485Y-196514342D01*
X203148628Y-196585771D01*
X202791485Y-196585771D01*
X202648628Y-196514342D01*
X202577200Y-196442914D01*
X204077200Y-196442914D02*
X204148628Y-196514342D01*
X204077200Y-196585771D01*
X204005771Y-196514342D01*
X204077200Y-196442914D01*
X204077200Y-196585771D01*
X205577200Y-196585771D02*
X204720057Y-196585771D01*
X205148628Y-196585771D02*
X205148628Y-195085771D01*
X205005771Y-195300057D01*
X204862914Y-195442914D01*
X204720057Y-195514342D01*
X206220057Y-196442914D02*
X206291485Y-196514342D01*
X206220057Y-196585771D01*
X206148628Y-196514342D01*
X206220057Y-196442914D01*
X206220057Y-196585771D01*
X207648628Y-195085771D02*
X206934342Y-195085771D01*
X206862914Y-195800057D01*
X206934342Y-195728628D01*
X207077200Y-195657200D01*
X207434342Y-195657200D01*
X207577200Y-195728628D01*
X207648628Y-195800057D01*
X207720057Y-195942914D01*
X207720057Y-196300057D01*
X207648628Y-196442914D01*
X207577200Y-196514342D01*
X207434342Y-196585771D01*
X207077200Y-196585771D01*
X206934342Y-196514342D01*
X206862914Y-196442914D01*
X208220057Y-197157200D02*
X208291485Y-197085771D01*
X208434342Y-196871485D01*
X208505771Y-196728628D01*
X208577200Y-196514342D01*
X208648628Y-196157200D01*
X208648628Y-195871485D01*
X208577200Y-195514342D01*
X208505771Y-195300057D01*
X208434342Y-195157200D01*
X208291485Y-194942914D01*
X208220057Y-194871485D01*
X209362914Y-196014342D02*
X210505771Y-196014342D01*
X211077200Y-195085771D02*
X212005771Y-195085771D01*
X211505771Y-195657200D01*
X211720057Y-195657200D01*
X211862914Y-195728628D01*
X211934342Y-195800057D01*
X212005771Y-195942914D01*
X212005771Y-196300057D01*
X211934342Y-196442914D01*
X211862914Y-196514342D01*
X211720057Y-196585771D01*
X211291485Y-196585771D01*
X211148628Y-196514342D01*
X211077200Y-196442914D01*
D10*
D11*
X177002200Y-191507200D02*
X285002200Y-191507200D01*
D10*
D12*
X264411485Y-193785771D02*
X263911485Y-193071485D01*
X263554342Y-193785771D02*
X263554342Y-192285771D01*
X264125771Y-192285771D01*
X264268628Y-192357200D01*
X264340057Y-192428628D01*
X264411485Y-192571485D01*
X264411485Y-192785771D01*
X264340057Y-192928628D01*
X264268628Y-193000057D01*
X264125771Y-193071485D01*
X263554342Y-193071485D01*
X265625771Y-193714342D02*
X265482914Y-193785771D01*
X265197200Y-193785771D01*
X265054342Y-193714342D01*
X264982914Y-193571485D01*
X264982914Y-193000057D01*
X265054342Y-192857200D01*
X265197200Y-192785771D01*
X265482914Y-192785771D01*
X265625771Y-192857200D01*
X265697200Y-193000057D01*
X265697200Y-193142914D01*
X264982914Y-193285771D01*
X266197200Y-192785771D02*
X266554342Y-193785771D01*
X266911485Y-192785771D01*
X267482914Y-193642914D02*
X267554342Y-193714342D01*
X267482914Y-193785771D01*
X267411485Y-193714342D01*
X267482914Y-193642914D01*
X267482914Y-193785771D01*
X267482914Y-192857200D02*
X267554342Y-192928628D01*
X267482914Y-193000057D01*
X267411485Y-192928628D01*
X267482914Y-192857200D01*
X267482914Y-193000057D01*
D10*
D11*
X178362914Y-193714342D02*
X178577200Y-193785771D01*
X178934342Y-193785771D01*
X179077200Y-193714342D01*
X179148628Y-193642914D01*
X179220057Y-193500057D01*
X179220057Y-193357200D01*
X179148628Y-193214342D01*
X179077200Y-193142914D01*
X178934342Y-193071485D01*
X178648628Y-193000057D01*
X178505771Y-192928628D01*
X178434342Y-192857200D01*
X178362914Y-192714342D01*
X178362914Y-192571485D01*
X178434342Y-192428628D01*
X178505771Y-192357200D01*
X178648628Y-192285771D01*
X179005771Y-192285771D01*
X179220057Y-192357200D01*
X179862914Y-193785771D02*
X179862914Y-192785771D01*
X179862914Y-192285771D02*
X179791485Y-192357200D01*
X179862914Y-192428628D01*
X179934342Y-192357200D01*
X179862914Y-192285771D01*
X179862914Y-192428628D01*
X180434342Y-192785771D02*
X181220057Y-192785771D01*
X180434342Y-193785771D01*
X181220057Y-193785771D01*
X182362914Y-193714342D02*
X182220057Y-193785771D01*
X181934342Y-193785771D01*
X181791485Y-193714342D01*
X181720057Y-193571485D01*
X181720057Y-193000057D01*
X181791485Y-192857200D01*
X181934342Y-192785771D01*
X182220057Y-192785771D01*
X182362914Y-192857200D01*
X182434342Y-193000057D01*
X182434342Y-193142914D01*
X181720057Y-193285771D01*
X183077200Y-193642914D02*
X183148628Y-193714342D01*
X183077200Y-193785771D01*
X183005771Y-193714342D01*
X183077200Y-193642914D01*
X183077200Y-193785771D01*
X183077200Y-192857200D02*
X183148628Y-192928628D01*
X183077200Y-193000057D01*
X183005771Y-192928628D01*
X183077200Y-192857200D01*
X183077200Y-193000057D01*
X184862914Y-193357200D02*
X185577200Y-193357200D01*
X184720057Y-193785771D02*
X185220057Y-192285771D01*
X185720057Y-193785771D01*
X186862914Y-192785771D02*
X186862914Y-193785771D01*
X186505771Y-192214342D02*
X186148628Y-193285771D01*
X187077200Y-193285771D01*
D10*
D11*
X263434342Y-196585771D02*
X263434342Y-195085771D01*
X264791485Y-196585771D02*
X264791485Y-195085771D01*
X264791485Y-196514342D02*
X264648628Y-196585771D01*
X264362914Y-196585771D01*
X264220057Y-196514342D01*
X264148628Y-196442914D01*
X264077200Y-196300057D01*
X264077200Y-195871485D01*
X264148628Y-195728628D01*
X264220057Y-195657200D01*
X264362914Y-195585771D01*
X264648628Y-195585771D01*
X264791485Y-195657200D01*
X265505771Y-196442914D02*
X265577200Y-196514342D01*
X265505771Y-196585771D01*
X265434342Y-196514342D01*
X265505771Y-196442914D01*
X265505771Y-196585771D01*
X265505771Y-195657200D02*
X265577200Y-195728628D01*
X265505771Y-195800057D01*
X265434342Y-195728628D01*
X265505771Y-195657200D01*
X265505771Y-195800057D01*
X268148628Y-196585771D02*
X267291485Y-196585771D01*
X267720057Y-196585771D02*
X267720057Y-195085771D01*
X267577200Y-195300057D01*
X267434342Y-195442914D01*
X267291485Y-195514342D01*
X269862914Y-195014342D02*
X268577200Y-196942914D01*
X271148628Y-196585771D02*
X270291485Y-196585771D01*
X270720057Y-196585771D02*
X270720057Y-195085771D01*
X270577200Y-195300057D01*
X270434342Y-195442914D01*
X270291485Y-195514342D01*
D10*
D11*
X177002200Y-187507200D02*
X285002200Y-187507200D01*
D10*
D13*
X178714580Y-188211961D02*
X179857438Y-188211961D01*
X179036009Y-190211961D02*
X179286009Y-188211961D01*
X180274104Y-190211961D02*
X180440771Y-188878628D01*
X180524104Y-188211961D02*
X180416961Y-188307200D01*
X180500295Y-188402438D01*
X180607438Y-188307200D01*
X180524104Y-188211961D01*
X180500295Y-188402438D01*
X181107438Y-188878628D02*
X181869342Y-188878628D01*
X181476485Y-188211961D02*
X181262200Y-189926247D01*
X181333628Y-190116723D01*
X181512200Y-190211961D01*
X181702676Y-190211961D01*
X182655057Y-190211961D02*
X182476485Y-190116723D01*
X182405057Y-189926247D01*
X182619342Y-188211961D01*
X184190771Y-190116723D02*
X183988390Y-190211961D01*
X183607438Y-190211961D01*
X183428866Y-190116723D01*
X183357438Y-189926247D01*
X183452676Y-189164342D01*
X183571723Y-188973866D01*
X183774104Y-188878628D01*
X184155057Y-188878628D01*
X184333628Y-188973866D01*
X184405057Y-189164342D01*
X184381247Y-189354819D01*
X183405057Y-189545295D01*
X185155057Y-190021485D02*
X185238390Y-190116723D01*
X185131247Y-190211961D01*
X185047914Y-190116723D01*
X185155057Y-190021485D01*
X185131247Y-190211961D01*
X185286009Y-188973866D02*
X185369342Y-189069104D01*
X185262200Y-189164342D01*
X185178866Y-189069104D01*
X185286009Y-188973866D01*
X185262200Y-189164342D01*
D10*
D11*
X178934342Y-185600057D02*
X178434342Y-185600057D01*
X178434342Y-186385771D02*
X178434342Y-184885771D01*
X179148628Y-184885771D01*
X179720057Y-186385771D02*
X179720057Y-185385771D01*
X179720057Y-184885771D02*
X179648628Y-184957200D01*
X179720057Y-185028628D01*
X179791485Y-184957200D01*
X179720057Y-184885771D01*
X179720057Y-185028628D01*
X180648628Y-186385771D02*
X180505771Y-186314342D01*
X180434342Y-186171485D01*
X180434342Y-184885771D01*
X181791485Y-186314342D02*
X181648628Y-186385771D01*
X181362914Y-186385771D01*
X181220057Y-186314342D01*
X181148628Y-186171485D01*
X181148628Y-185600057D01*
X181220057Y-185457200D01*
X181362914Y-185385771D01*
X181648628Y-185385771D01*
X181791485Y-185457200D01*
X181862914Y-185600057D01*
X181862914Y-185742914D01*
X181148628Y-185885771D01*
X182505771Y-186242914D02*
X182577200Y-186314342D01*
X182505771Y-186385771D01*
X182434342Y-186314342D01*
X182505771Y-186242914D01*
X182505771Y-186385771D01*
X182505771Y-185457200D02*
X182577200Y-185528628D01*
X182505771Y-185600057D01*
X182434342Y-185528628D01*
X182505771Y-185457200D01*
X182505771Y-185600057D01*
X184220057Y-184885771D02*
X184577200Y-186385771D01*
X184862914Y-185314342D01*
X185148628Y-186385771D01*
X185505771Y-184885771D01*
X186077200Y-186385771D02*
X186077200Y-185385771D01*
X186077200Y-184885771D02*
X186005771Y-184957200D01*
X186077200Y-185028628D01*
X186148628Y-184957200D01*
X186077200Y-184885771D01*
X186077200Y-185028628D01*
X187291485Y-185600057D02*
X186791485Y-185600057D01*
X186791485Y-186385771D02*
X186791485Y-184885771D01*
X187505771Y-184885771D01*
X188077200Y-186385771D02*
X188077200Y-185385771D01*
X188077200Y-184885771D02*
X188005771Y-184957200D01*
X188077200Y-185028628D01*
X188148628Y-184957200D01*
X188077200Y-184885771D01*
X188077200Y-185028628D01*
X188434342Y-186528628D02*
X189577200Y-186528628D01*
X190648628Y-186385771D02*
X189934342Y-186385771D01*
X189934342Y-184885771D01*
X192005771Y-186242914D02*
X191934342Y-186314342D01*
X191720057Y-186385771D01*
X191577200Y-186385771D01*
X191362914Y-186314342D01*
X191220057Y-186171485D01*
X191148628Y-186028628D01*
X191077200Y-185742914D01*
X191077200Y-185528628D01*
X191148628Y-185242914D01*
X191220057Y-185100057D01*
X191362914Y-184957200D01*
X191577200Y-184885771D01*
X191720057Y-184885771D01*
X191934342Y-184957200D01*
X192005771Y-185028628D01*
X192648628Y-186385771D02*
X192648628Y-184885771D01*
X193005771Y-184885771D01*
X193220057Y-184957200D01*
X193362914Y-185100057D01*
X193434342Y-185242914D01*
X193505771Y-185528628D01*
X193505771Y-185742914D01*
X193434342Y-186028628D01*
X193362914Y-186171485D01*
X193220057Y-186314342D01*
X193005771Y-186385771D01*
X192648628Y-186385771D01*
X193791485Y-186528628D02*
X194934342Y-186528628D01*
X195934342Y-186314342D02*
X195791485Y-186385771D01*
X195505771Y-186385771D01*
X195362914Y-186314342D01*
X195291485Y-186242914D01*
X195220057Y-186100057D01*
X195220057Y-185671485D01*
X195291485Y-185528628D01*
X195362914Y-185457200D01*
X195505771Y-185385771D01*
X195791485Y-185385771D01*
X195934342Y-185457200D01*
X196791485Y-186385771D02*
X196648628Y-186314342D01*
X196577200Y-186171485D01*
X196577200Y-184885771D01*
X197577200Y-186385771D02*
X197434342Y-186314342D01*
X197362914Y-186242914D01*
X197291485Y-186100057D01*
X197291485Y-185671485D01*
X197362914Y-185528628D01*
X197434342Y-185457200D01*
X197577200Y-185385771D01*
X197791485Y-185385771D01*
X197934342Y-185457200D01*
X198005771Y-185528628D01*
X198077200Y-185671485D01*
X198077200Y-186100057D01*
X198005771Y-186242914D01*
X197934342Y-186314342D01*
X197791485Y-186385771D01*
X197577200Y-186385771D01*
X199362914Y-186314342D02*
X199220057Y-186385771D01*
X198934342Y-186385771D01*
X198791485Y-186314342D01*
X198720057Y-186242914D01*
X198648628Y-186100057D01*
X198648628Y-185671485D01*
X198720057Y-185528628D01*
X198791485Y-185457200D01*
X198934342Y-185385771D01*
X199220057Y-185385771D01*
X199362914Y-185457200D01*
X200005771Y-186385771D02*
X200005771Y-184885771D01*
X200148628Y-185814342D02*
X200577200Y-186385771D01*
X200577200Y-185385771D02*
X200005771Y-185957200D01*
X201220057Y-186242914D02*
X201291485Y-186314342D01*
X201220057Y-186385771D01*
X201148628Y-186314342D01*
X201220057Y-186242914D01*
X201220057Y-186385771D01*
X201934342Y-186385771D02*
X201934342Y-184885771D01*
X202077200Y-185814342D02*
X202505771Y-186385771D01*
X202505771Y-185385771D02*
X201934342Y-185957200D01*
X203148628Y-186385771D02*
X203148628Y-185385771D01*
X203148628Y-184885771D02*
X203077200Y-184957200D01*
X203148628Y-185028628D01*
X203220057Y-184957200D01*
X203148628Y-184885771D01*
X203148628Y-185028628D01*
X204505771Y-186314342D02*
X204362914Y-186385771D01*
X204077200Y-186385771D01*
X203934342Y-186314342D01*
X203862914Y-186242914D01*
X203791485Y-186100057D01*
X203791485Y-185671485D01*
X203862914Y-185528628D01*
X203934342Y-185457200D01*
X204077200Y-185385771D01*
X204362914Y-185385771D01*
X204505771Y-185457200D01*
X205791485Y-186385771D02*
X205791485Y-185600057D01*
X205720057Y-185457200D01*
X205577200Y-185385771D01*
X205291485Y-185385771D01*
X205148628Y-185457200D01*
X205791485Y-186314342D02*
X205648628Y-186385771D01*
X205291485Y-186385771D01*
X205148628Y-186314342D01*
X205077200Y-186171485D01*
X205077200Y-186028628D01*
X205148628Y-185885771D01*
X205291485Y-185814342D01*
X205648628Y-185814342D01*
X205791485Y-185742914D01*
X207148628Y-186385771D02*
X207148628Y-184885771D01*
X207148628Y-186314342D02*
X207005771Y-186385771D01*
X206720057Y-186385771D01*
X206577200Y-186314342D01*
X206505771Y-186242914D01*
X206434342Y-186100057D01*
X206434342Y-185671485D01*
X206505771Y-185528628D01*
X206577200Y-185457200D01*
X206720057Y-185385771D01*
X207005771Y-185385771D01*
X207148628Y-185457200D01*
X207505771Y-186528628D02*
X208648628Y-186528628D01*
X209005771Y-185385771D02*
X209005771Y-186885771D01*
X209005771Y-185457200D02*
X209148628Y-185385771D01*
X209434342Y-185385771D01*
X209577200Y-185457200D01*
X209648628Y-185528628D01*
X209720057Y-185671485D01*
X209720057Y-186100057D01*
X209648628Y-186242914D01*
X209577200Y-186314342D01*
X209434342Y-186385771D01*
X209148628Y-186385771D01*
X209005771Y-186314342D01*
X211005771Y-186314342D02*
X210862914Y-186385771D01*
X210577200Y-186385771D01*
X210434342Y-186314342D01*
X210362914Y-186242914D01*
X210291485Y-186100057D01*
X210291485Y-185671485D01*
X210362914Y-185528628D01*
X210434342Y-185457200D01*
X210577200Y-185385771D01*
X210862914Y-185385771D01*
X211005771Y-185457200D01*
X211648628Y-186385771D02*
X211648628Y-184885771D01*
X211648628Y-185457200D02*
X211791485Y-185385771D01*
X212077200Y-185385771D01*
X212220057Y-185457200D01*
X212291485Y-185528628D01*
X212362914Y-185671485D01*
X212362914Y-186100057D01*
X212291485Y-186242914D01*
X212220057Y-186314342D01*
X212077200Y-186385771D01*
X211791485Y-186385771D01*
X211648628Y-186314342D01*
D10*
D11*
X177002200Y-181507200D02*
X285002200Y-181507200D01*
D10*
D11*
X178362914Y-183614342D02*
X178577200Y-183685771D01*
X178934342Y-183685771D01*
X179077200Y-183614342D01*
X179148628Y-183542914D01*
X179220057Y-183400057D01*
X179220057Y-183257200D01*
X179148628Y-183114342D01*
X179077200Y-183042914D01*
X178934342Y-182971485D01*
X178648628Y-182900057D01*
X178505771Y-182828628D01*
X178434342Y-182757200D01*
X178362914Y-182614342D01*
X178362914Y-182471485D01*
X178434342Y-182328628D01*
X178505771Y-182257200D01*
X178648628Y-182185771D01*
X179005771Y-182185771D01*
X179220057Y-182257200D01*
X179862914Y-183685771D02*
X179862914Y-182185771D01*
X180505771Y-183685771D02*
X180505771Y-182900057D01*
X180434342Y-182757200D01*
X180291485Y-182685771D01*
X180077200Y-182685771D01*
X179934342Y-182757200D01*
X179862914Y-182828628D01*
X181791485Y-183614342D02*
X181648628Y-183685771D01*
X181362914Y-183685771D01*
X181220057Y-183614342D01*
X181148628Y-183471485D01*
X181148628Y-182900057D01*
X181220057Y-182757200D01*
X181362914Y-182685771D01*
X181648628Y-182685771D01*
X181791485Y-182757200D01*
X181862914Y-182900057D01*
X181862914Y-183042914D01*
X181148628Y-183185771D01*
X183077200Y-183614342D02*
X182934342Y-183685771D01*
X182648628Y-183685771D01*
X182505771Y-183614342D01*
X182434342Y-183471485D01*
X182434342Y-182900057D01*
X182505771Y-182757200D01*
X182648628Y-182685771D01*
X182934342Y-182685771D01*
X183077200Y-182757200D01*
X183148628Y-182900057D01*
X183148628Y-183042914D01*
X182434342Y-183185771D01*
X183577200Y-182685771D02*
X184148628Y-182685771D01*
X183791485Y-182185771D02*
X183791485Y-183471485D01*
X183862914Y-183614342D01*
X184005771Y-183685771D01*
X184148628Y-183685771D01*
X184648628Y-183542914D02*
X184720057Y-183614342D01*
X184648628Y-183685771D01*
X184577200Y-183614342D01*
X184648628Y-183542914D01*
X184648628Y-183685771D01*
X184648628Y-182757200D02*
X184720057Y-182828628D01*
X184648628Y-182900057D01*
X184577200Y-182828628D01*
X184648628Y-182757200D01*
X184648628Y-182900057D01*
D10*
D11*
X197002200Y-191507200D02*
X197002200Y-194507200D01*
D10*
D11*
X261002200Y-191507200D02*
X261002200Y-198007200D01*
D10*
G36*
X175207006Y-110814581D02*
G01*
X175607562Y-110980497D01*
X175607564Y-110980498D01*
X175968055Y-111221370D01*
X176274628Y-111527943D01*
X176515500Y-111888434D01*
X176515501Y-111888436D01*
X176681417Y-112288992D01*
X176765999Y-112714218D01*
X176765999Y-113147780D01*
X176681417Y-113573006D01*
X176515501Y-113973562D01*
X176515500Y-113973564D01*
X176274628Y-114334055D01*
X175968055Y-114640628D01*
X175607564Y-114881500D01*
X175607563Y-114881501D01*
X175607562Y-114881501D01*
X175207006Y-115047417D01*
X174781780Y-115131999D01*
X174348218Y-115131999D01*
X173922992Y-115047417D01*
X173522436Y-114881501D01*
X173522435Y-114881501D01*
X173522434Y-114881500D01*
X173161943Y-114640628D01*
X172855370Y-114334055D01*
X172614498Y-113973564D01*
X172614497Y-113973562D01*
X172448581Y-113573006D01*
X172363999Y-113147780D01*
X172363999Y-112714218D01*
X172448581Y-112288992D01*
X172614497Y-111888436D01*
X172614498Y-111888434D01*
X172855370Y-111527943D01*
X173161943Y-111221370D01*
X173522434Y-110980498D01*
X173522436Y-110980497D01*
X173922992Y-110814581D01*
X174348218Y-110729999D01*
X174781780Y-110729999D01*
X175207006Y-110814581D01*
G37*
G36*
X100207006Y-110814581D02*
G01*
X100607562Y-110980497D01*
X100607564Y-110980498D01*
X100968055Y-111221370D01*
X101274628Y-111527943D01*
X101515500Y-111888434D01*
X101515501Y-111888436D01*
X101681417Y-112288992D01*
X101765999Y-112714218D01*
X101765999Y-113147780D01*
X101681417Y-113573006D01*
X101515501Y-113973562D01*
X101515500Y-113973564D01*
X101274628Y-114334055D01*
X100968055Y-114640628D01*
X100607564Y-114881500D01*
X100607563Y-114881501D01*
X100607562Y-114881501D01*
X100207006Y-115047417D01*
X99781780Y-115131999D01*
X99348218Y-115131999D01*
X98922992Y-115047417D01*
X98522436Y-114881501D01*
X98522435Y-114881501D01*
X98522434Y-114881500D01*
X98161943Y-114640628D01*
X97855370Y-114334055D01*
X97614498Y-113973564D01*
X97614497Y-113973562D01*
X97448581Y-113573006D01*
X97363999Y-113147780D01*
X97363999Y-112714218D01*
X97448581Y-112288992D01*
X97614497Y-111888436D01*
X97614498Y-111888434D01*
X97855370Y-111527943D01*
X98161943Y-111221370D01*
X98522434Y-110980498D01*
X98522436Y-110980497D01*
X98922992Y-110814581D01*
X99348218Y-110729999D01*
X99781780Y-110729999D01*
X100207006Y-110814581D01*
G37*
G36*
X133516823Y-111991313D02*
G01*
X133677242Y-112039976D01*
X133809906Y-112110886D01*
X133825078Y-112118996D01*
X133954659Y-112225341D01*
X134061004Y-112354922D01*
X134061005Y-112354924D01*
X134140024Y-112502758D01*
X134188687Y-112663178D01*
X134201000Y-112788197D01*
X134201000Y-113271804D01*
X134188687Y-113396823D01*
X134140024Y-113557242D01*
X134131597Y-113573007D01*
X134061004Y-113705078D01*
X133954659Y-113834659D01*
X133825077Y-113941005D01*
X133677241Y-114020024D01*
X133516822Y-114068687D01*
X133350000Y-114085117D01*
X133183177Y-114068687D01*
X133022758Y-114020024D01*
X132874924Y-113941005D01*
X132874922Y-113941004D01*
X132745341Y-113834659D01*
X132638995Y-113705077D01*
X132559976Y-113557241D01*
X132511313Y-113396822D01*
X132499000Y-113271803D01*
X132499000Y-112788196D01*
X132511313Y-112663177D01*
X132559976Y-112502758D01*
X132638995Y-112354924D01*
X132638996Y-112354922D01*
X132745342Y-112225341D01*
X132874923Y-112118996D01*
X132890095Y-112110886D01*
X133022759Y-112039976D01*
X133183178Y-111991313D01*
X133350000Y-111974883D01*
X133516823Y-111991313D01*
G37*
G36*
X136056823Y-111991313D02*
G01*
X136217242Y-112039976D01*
X136349906Y-112110886D01*
X136365078Y-112118996D01*
X136494659Y-112225341D01*
X136601004Y-112354922D01*
X136601005Y-112354924D01*
X136680024Y-112502758D01*
X136728687Y-112663178D01*
X136741000Y-112788197D01*
X136741000Y-113271804D01*
X136728687Y-113396823D01*
X136680024Y-113557242D01*
X136671597Y-113573007D01*
X136601004Y-113705078D01*
X136494659Y-113834659D01*
X136365077Y-113941005D01*
X136217241Y-114020024D01*
X136056822Y-114068687D01*
X135890000Y-114085117D01*
X135723177Y-114068687D01*
X135562758Y-114020024D01*
X135414924Y-113941005D01*
X135414922Y-113941004D01*
X135285341Y-113834659D01*
X135178995Y-113705077D01*
X135099976Y-113557241D01*
X135051313Y-113396822D01*
X135039000Y-113271803D01*
X135039000Y-112788196D01*
X135051313Y-112663177D01*
X135099976Y-112502758D01*
X135178995Y-112354924D01*
X135178996Y-112354922D01*
X135285342Y-112225341D01*
X135414923Y-112118996D01*
X135430095Y-112110886D01*
X135562759Y-112039976D01*
X135723178Y-111991313D01*
X135890000Y-111974883D01*
X136056823Y-111991313D01*
G37*
G36*
X138596823Y-111991313D02*
G01*
X138757242Y-112039976D01*
X138889906Y-112110886D01*
X138905078Y-112118996D01*
X139034659Y-112225341D01*
X139141004Y-112354922D01*
X139141005Y-112354924D01*
X139220024Y-112502758D01*
X139268687Y-112663178D01*
X139281000Y-112788197D01*
X139281000Y-113271804D01*
X139268687Y-113396823D01*
X139220024Y-113557242D01*
X139211597Y-113573007D01*
X139141004Y-113705078D01*
X139034659Y-113834659D01*
X138905077Y-113941005D01*
X138757241Y-114020024D01*
X138596822Y-114068687D01*
X138430000Y-114085117D01*
X138263177Y-114068687D01*
X138102758Y-114020024D01*
X137954924Y-113941005D01*
X137954922Y-113941004D01*
X137825341Y-113834659D01*
X137718995Y-113705077D01*
X137639976Y-113557241D01*
X137591313Y-113396822D01*
X137579000Y-113271803D01*
X137579000Y-112788196D01*
X137591313Y-112663177D01*
X137639976Y-112502758D01*
X137718995Y-112354924D01*
X137718996Y-112354922D01*
X137825342Y-112225341D01*
X137954923Y-112118996D01*
X137970095Y-112110886D01*
X138102759Y-112039976D01*
X138263178Y-111991313D01*
X138430000Y-111974883D01*
X138596823Y-111991313D01*
G37*
G36*
X141136823Y-111991313D02*
G01*
X141297242Y-112039976D01*
X141429906Y-112110886D01*
X141445078Y-112118996D01*
X141574659Y-112225341D01*
X141681004Y-112354922D01*
X141681005Y-112354924D01*
X141760024Y-112502758D01*
X141808687Y-112663178D01*
X141821000Y-112788197D01*
X141821000Y-113271804D01*
X141808687Y-113396823D01*
X141760024Y-113557242D01*
X141751597Y-113573007D01*
X141681004Y-113705078D01*
X141574659Y-113834659D01*
X141445077Y-113941005D01*
X141297241Y-114020024D01*
X141136822Y-114068687D01*
X140970000Y-114085117D01*
X140803177Y-114068687D01*
X140642758Y-114020024D01*
X140494924Y-113941005D01*
X140494922Y-113941004D01*
X140365341Y-113834659D01*
X140258995Y-113705077D01*
X140179976Y-113557241D01*
X140131313Y-113396822D01*
X140119000Y-113271803D01*
X140119000Y-112788196D01*
X140131313Y-112663177D01*
X140179976Y-112502758D01*
X140258995Y-112354924D01*
X140258996Y-112354922D01*
X140365342Y-112225341D01*
X140494923Y-112118996D01*
X140510095Y-112110886D01*
X140642759Y-112039976D01*
X140803178Y-111991313D01*
X140970000Y-111974883D01*
X141136823Y-111991313D01*
G37*
G36*
X143676823Y-111991313D02*
G01*
X143837242Y-112039976D01*
X143969906Y-112110886D01*
X143985078Y-112118996D01*
X144114659Y-112225341D01*
X144221004Y-112354922D01*
X144221005Y-112354924D01*
X144300024Y-112502758D01*
X144348687Y-112663178D01*
X144361000Y-112788197D01*
X144361000Y-113271804D01*
X144348687Y-113396823D01*
X144300024Y-113557242D01*
X144291597Y-113573007D01*
X144221004Y-113705078D01*
X144114659Y-113834659D01*
X143985077Y-113941005D01*
X143837241Y-114020024D01*
X143676822Y-114068687D01*
X143510000Y-114085117D01*
X143343177Y-114068687D01*
X143182758Y-114020024D01*
X143034924Y-113941005D01*
X143034922Y-113941004D01*
X142905341Y-113834659D01*
X142798995Y-113705077D01*
X142719976Y-113557241D01*
X142671313Y-113396822D01*
X142659000Y-113271803D01*
X142659000Y-112788196D01*
X142671313Y-112663177D01*
X142719976Y-112502758D01*
X142798995Y-112354924D01*
X142798996Y-112354922D01*
X142905342Y-112225341D01*
X143034923Y-112118996D01*
X143050095Y-112110886D01*
X143182759Y-112039976D01*
X143343178Y-111991313D01*
X143510000Y-111974883D01*
X143676823Y-111991313D01*
G37*
G36*
X146216823Y-111991313D02*
G01*
X146377242Y-112039976D01*
X146509906Y-112110886D01*
X146525078Y-112118996D01*
X146654659Y-112225341D01*
X146761004Y-112354922D01*
X146761005Y-112354924D01*
X146840024Y-112502758D01*
X146888687Y-112663178D01*
X146901000Y-112788197D01*
X146901000Y-113271804D01*
X146888687Y-113396823D01*
X146840024Y-113557242D01*
X146831597Y-113573007D01*
X146761004Y-113705078D01*
X146654659Y-113834659D01*
X146525077Y-113941005D01*
X146377241Y-114020024D01*
X146216822Y-114068687D01*
X146050000Y-114085117D01*
X145883177Y-114068687D01*
X145722758Y-114020024D01*
X145574924Y-113941005D01*
X145574922Y-113941004D01*
X145445341Y-113834659D01*
X145338995Y-113705077D01*
X145259976Y-113557241D01*
X145211313Y-113396822D01*
X145199000Y-113271803D01*
X145199000Y-112788196D01*
X145211313Y-112663177D01*
X145259976Y-112502758D01*
X145338995Y-112354924D01*
X145338996Y-112354922D01*
X145445342Y-112225341D01*
X145574923Y-112118996D01*
X145590095Y-112110886D01*
X145722759Y-112039976D01*
X145883178Y-111991313D01*
X146050000Y-111974883D01*
X146216823Y-111991313D01*
G37*
G36*
X148756823Y-111991313D02*
G01*
X148917242Y-112039976D01*
X149049906Y-112110886D01*
X149065078Y-112118996D01*
X149194659Y-112225341D01*
X149301004Y-112354922D01*
X149301005Y-112354924D01*
X149380024Y-112502758D01*
X149428687Y-112663178D01*
X149441000Y-112788197D01*
X149441000Y-113271804D01*
X149428687Y-113396823D01*
X149380024Y-113557242D01*
X149371597Y-113573007D01*
X149301004Y-113705078D01*
X149194659Y-113834659D01*
X149065077Y-113941005D01*
X148917241Y-114020024D01*
X148756822Y-114068687D01*
X148590000Y-114085117D01*
X148423177Y-114068687D01*
X148262758Y-114020024D01*
X148114924Y-113941005D01*
X148114922Y-113941004D01*
X147985341Y-113834659D01*
X147878995Y-113705077D01*
X147799976Y-113557241D01*
X147751313Y-113396822D01*
X147739000Y-113271803D01*
X147739000Y-112788196D01*
X147751313Y-112663177D01*
X147799976Y-112502758D01*
X147878995Y-112354924D01*
X147878996Y-112354922D01*
X147985342Y-112225341D01*
X148114923Y-112118996D01*
X148130095Y-112110886D01*
X148262759Y-112039976D01*
X148423178Y-111991313D01*
X148590000Y-111974883D01*
X148756823Y-111991313D01*
G37*
G36*
X130976823Y-111991313D02*
G01*
X131137242Y-112039976D01*
X131269906Y-112110886D01*
X131285078Y-112118996D01*
X131414659Y-112225341D01*
X131521004Y-112354922D01*
X131521005Y-112354924D01*
X131600024Y-112502758D01*
X131648687Y-112663178D01*
X131661000Y-112788197D01*
X131661000Y-113271804D01*
X131648687Y-113396823D01*
X131600024Y-113557242D01*
X131591597Y-113573007D01*
X131521004Y-113705078D01*
X131414659Y-113834659D01*
X131285077Y-113941005D01*
X131137241Y-114020024D01*
X130976822Y-114068687D01*
X130810000Y-114085117D01*
X130643177Y-114068687D01*
X130482758Y-114020024D01*
X130334924Y-113941005D01*
X130334922Y-113941004D01*
X130205341Y-113834659D01*
X130098995Y-113705077D01*
X130019976Y-113557241D01*
X129971313Y-113396822D01*
X129959000Y-113271803D01*
X129959000Y-112788196D01*
X129971313Y-112663177D01*
X130019976Y-112502758D01*
X130098995Y-112354924D01*
X130098996Y-112354922D01*
X130205342Y-112225341D01*
X130334923Y-112118996D01*
X130350095Y-112110886D01*
X130482759Y-112039976D01*
X130643178Y-111991313D01*
X130810000Y-111974883D01*
X130976823Y-111991313D01*
G37*
G36*
X162691552Y-112596331D02*
G01*
X162773627Y-112630328D01*
X162773629Y-112630329D01*
X162810813Y-112655175D01*
X162847495Y-112679685D01*
X162910315Y-112742505D01*
X162959672Y-112816373D01*
X162993669Y-112898448D01*
X163011000Y-112985579D01*
X163011000Y-113074421D01*
X162993669Y-113161552D01*
X162959672Y-113243627D01*
X162910315Y-113317495D01*
X162847495Y-113380315D01*
X162822786Y-113396825D01*
X162773629Y-113429671D01*
X162773628Y-113429672D01*
X162773627Y-113429672D01*
X162691552Y-113463669D01*
X162604421Y-113481000D01*
X162515579Y-113481000D01*
X162428448Y-113463669D01*
X162346373Y-113429672D01*
X162346372Y-113429672D01*
X162346371Y-113429671D01*
X162297214Y-113396825D01*
X162272505Y-113380315D01*
X162209685Y-113317495D01*
X162160328Y-113243627D01*
X162126331Y-113161552D01*
X162109000Y-113074421D01*
X162109000Y-112985579D01*
X162126331Y-112898448D01*
X162160328Y-112816373D01*
X162209685Y-112742505D01*
X162272505Y-112679685D01*
X162309187Y-112655175D01*
X162346371Y-112630329D01*
X162346373Y-112630328D01*
X162428448Y-112596331D01*
X162515579Y-112579000D01*
X162604421Y-112579000D01*
X162691552Y-112596331D01*
G37*
G36*
X124591552Y-112596331D02*
G01*
X124673627Y-112630328D01*
X124673629Y-112630329D01*
X124710813Y-112655175D01*
X124747495Y-112679685D01*
X124810315Y-112742505D01*
X124859672Y-112816373D01*
X124893669Y-112898448D01*
X124911000Y-112985579D01*
X124911000Y-113074421D01*
X124893669Y-113161552D01*
X124859672Y-113243627D01*
X124810315Y-113317495D01*
X124747495Y-113380315D01*
X124722786Y-113396825D01*
X124673629Y-113429671D01*
X124673628Y-113429672D01*
X124673627Y-113429672D01*
X124591552Y-113463669D01*
X124504421Y-113481000D01*
X124415579Y-113481000D01*
X124328448Y-113463669D01*
X124246373Y-113429672D01*
X124246372Y-113429672D01*
X124246371Y-113429671D01*
X124197214Y-113396825D01*
X124172505Y-113380315D01*
X124109685Y-113317495D01*
X124060328Y-113243627D01*
X124026331Y-113161552D01*
X124009000Y-113074421D01*
X124009000Y-112985579D01*
X124026331Y-112898448D01*
X124060328Y-112816373D01*
X124109685Y-112742505D01*
X124172505Y-112679685D01*
X124209187Y-112655175D01*
X124246371Y-112630329D01*
X124246373Y-112630328D01*
X124328448Y-112596331D01*
X124415579Y-112579000D01*
X124504421Y-112579000D01*
X124591552Y-112596331D01*
G37*
G36*
X127131552Y-112596331D02*
G01*
X127213627Y-112630328D01*
X127213629Y-112630329D01*
X127250813Y-112655175D01*
X127287495Y-112679685D01*
X127350315Y-112742505D01*
X127399672Y-112816373D01*
X127433669Y-112898448D01*
X127451000Y-112985579D01*
X127451000Y-113074421D01*
X127433669Y-113161552D01*
X127399672Y-113243627D01*
X127350315Y-113317495D01*
X127287495Y-113380315D01*
X127262786Y-113396825D01*
X127213629Y-113429671D01*
X127213628Y-113429672D01*
X127213627Y-113429672D01*
X127131552Y-113463669D01*
X127044421Y-113481000D01*
X126955579Y-113481000D01*
X126868448Y-113463669D01*
X126786373Y-113429672D01*
X126786372Y-113429672D01*
X126786371Y-113429671D01*
X126737214Y-113396825D01*
X126712505Y-113380315D01*
X126649685Y-113317495D01*
X126600328Y-113243627D01*
X126566331Y-113161552D01*
X126549000Y-113074421D01*
X126549000Y-112985579D01*
X126566331Y-112898448D01*
X126600328Y-112816373D01*
X126649685Y-112742505D01*
X126712505Y-112679685D01*
X126749187Y-112655175D01*
X126786371Y-112630329D01*
X126786373Y-112630328D01*
X126868448Y-112596331D01*
X126955579Y-112579000D01*
X127044421Y-112579000D01*
X127131552Y-112596331D01*
G37*
G36*
X104271552Y-112596331D02*
G01*
X104353627Y-112630328D01*
X104353629Y-112630329D01*
X104390813Y-112655175D01*
X104427495Y-112679685D01*
X104490315Y-112742505D01*
X104539672Y-112816373D01*
X104573669Y-112898448D01*
X104591000Y-112985579D01*
X104591000Y-113074421D01*
X104573669Y-113161552D01*
X104539672Y-113243627D01*
X104490315Y-113317495D01*
X104427495Y-113380315D01*
X104402786Y-113396825D01*
X104353629Y-113429671D01*
X104353628Y-113429672D01*
X104353627Y-113429672D01*
X104271552Y-113463669D01*
X104184421Y-113481000D01*
X104095579Y-113481000D01*
X104008448Y-113463669D01*
X103926373Y-113429672D01*
X103926372Y-113429672D01*
X103926371Y-113429671D01*
X103877214Y-113396825D01*
X103852505Y-113380315D01*
X103789685Y-113317495D01*
X103740328Y-113243627D01*
X103706331Y-113161552D01*
X103689000Y-113074421D01*
X103689000Y-112985579D01*
X103706331Y-112898448D01*
X103740328Y-112816373D01*
X103789685Y-112742505D01*
X103852505Y-112679685D01*
X103889187Y-112655175D01*
X103926371Y-112630329D01*
X103926373Y-112630328D01*
X104008448Y-112596331D01*
X104095579Y-112579000D01*
X104184421Y-112579000D01*
X104271552Y-112596331D01*
G37*
G36*
X116971552Y-112596331D02*
G01*
X117053627Y-112630328D01*
X117053629Y-112630329D01*
X117090813Y-112655175D01*
X117127495Y-112679685D01*
X117190315Y-112742505D01*
X117239672Y-112816373D01*
X117273669Y-112898448D01*
X117291000Y-112985579D01*
X117291000Y-113074421D01*
X117273669Y-113161552D01*
X117239672Y-113243627D01*
X117190315Y-113317495D01*
X117127495Y-113380315D01*
X117102786Y-113396825D01*
X117053629Y-113429671D01*
X117053628Y-113429672D01*
X117053627Y-113429672D01*
X116971552Y-113463669D01*
X116884421Y-113481000D01*
X116795579Y-113481000D01*
X116708448Y-113463669D01*
X116626373Y-113429672D01*
X116626372Y-113429672D01*
X116626371Y-113429671D01*
X116577214Y-113396825D01*
X116552505Y-113380315D01*
X116489685Y-113317495D01*
X116440328Y-113243627D01*
X116406331Y-113161552D01*
X116389000Y-113074421D01*
X116389000Y-112985579D01*
X116406331Y-112898448D01*
X116440328Y-112816373D01*
X116489685Y-112742505D01*
X116552505Y-112679685D01*
X116589187Y-112655175D01*
X116626371Y-112630329D01*
X116626373Y-112630328D01*
X116708448Y-112596331D01*
X116795579Y-112579000D01*
X116884421Y-112579000D01*
X116971552Y-112596331D01*
G37*
G36*
X122051552Y-112596331D02*
G01*
X122133627Y-112630328D01*
X122133629Y-112630329D01*
X122170813Y-112655175D01*
X122207495Y-112679685D01*
X122270315Y-112742505D01*
X122319672Y-112816373D01*
X122353669Y-112898448D01*
X122371000Y-112985579D01*
X122371000Y-113074421D01*
X122353669Y-113161552D01*
X122319672Y-113243627D01*
X122270315Y-113317495D01*
X122207495Y-113380315D01*
X122182786Y-113396825D01*
X122133629Y-113429671D01*
X122133628Y-113429672D01*
X122133627Y-113429672D01*
X122051552Y-113463669D01*
X121964421Y-113481000D01*
X121875579Y-113481000D01*
X121788448Y-113463669D01*
X121706373Y-113429672D01*
X121706372Y-113429672D01*
X121706371Y-113429671D01*
X121657214Y-113396825D01*
X121632505Y-113380315D01*
X121569685Y-113317495D01*
X121520328Y-113243627D01*
X121486331Y-113161552D01*
X121469000Y-113074421D01*
X121469000Y-112985579D01*
X121486331Y-112898448D01*
X121520328Y-112816373D01*
X121569685Y-112742505D01*
X121632505Y-112679685D01*
X121669187Y-112655175D01*
X121706371Y-112630329D01*
X121706373Y-112630328D01*
X121788448Y-112596331D01*
X121875579Y-112579000D01*
X121964421Y-112579000D01*
X122051552Y-112596331D01*
G37*
G36*
X111891552Y-112596331D02*
G01*
X111973627Y-112630328D01*
X111973629Y-112630329D01*
X112010813Y-112655175D01*
X112047495Y-112679685D01*
X112110315Y-112742505D01*
X112159672Y-112816373D01*
X112193669Y-112898448D01*
X112211000Y-112985579D01*
X112211000Y-113074421D01*
X112193669Y-113161552D01*
X112159672Y-113243627D01*
X112110315Y-113317495D01*
X112047495Y-113380315D01*
X112022786Y-113396825D01*
X111973629Y-113429671D01*
X111973628Y-113429672D01*
X111973627Y-113429672D01*
X111891552Y-113463669D01*
X111804421Y-113481000D01*
X111715579Y-113481000D01*
X111628448Y-113463669D01*
X111546373Y-113429672D01*
X111546372Y-113429672D01*
X111546371Y-113429671D01*
X111497214Y-113396825D01*
X111472505Y-113380315D01*
X111409685Y-113317495D01*
X111360328Y-113243627D01*
X111326331Y-113161552D01*
X111309000Y-113074421D01*
X111309000Y-112985579D01*
X111326331Y-112898448D01*
X111360328Y-112816373D01*
X111409685Y-112742505D01*
X111472505Y-112679685D01*
X111509187Y-112655175D01*
X111546371Y-112630329D01*
X111546373Y-112630328D01*
X111628448Y-112596331D01*
X111715579Y-112579000D01*
X111804421Y-112579000D01*
X111891552Y-112596331D01*
G37*
G36*
X109351552Y-112596331D02*
G01*
X109433627Y-112630328D01*
X109433629Y-112630329D01*
X109470813Y-112655175D01*
X109507495Y-112679685D01*
X109570315Y-112742505D01*
X109619672Y-112816373D01*
X109653669Y-112898448D01*
X109671000Y-112985579D01*
X109671000Y-113074421D01*
X109653669Y-113161552D01*
X109619672Y-113243627D01*
X109570315Y-113317495D01*
X109507495Y-113380315D01*
X109482786Y-113396825D01*
X109433629Y-113429671D01*
X109433628Y-113429672D01*
X109433627Y-113429672D01*
X109351552Y-113463669D01*
X109264421Y-113481000D01*
X109175579Y-113481000D01*
X109088448Y-113463669D01*
X109006373Y-113429672D01*
X109006372Y-113429672D01*
X109006371Y-113429671D01*
X108957214Y-113396825D01*
X108932505Y-113380315D01*
X108869685Y-113317495D01*
X108820328Y-113243627D01*
X108786331Y-113161552D01*
X108769000Y-113074421D01*
X108769000Y-112985579D01*
X108786331Y-112898448D01*
X108820328Y-112816373D01*
X108869685Y-112742505D01*
X108932505Y-112679685D01*
X108969187Y-112655175D01*
X109006371Y-112630329D01*
X109006373Y-112630328D01*
X109088448Y-112596331D01*
X109175579Y-112579000D01*
X109264421Y-112579000D01*
X109351552Y-112596331D01*
G37*
G36*
X119511552Y-112596331D02*
G01*
X119593627Y-112630328D01*
X119593629Y-112630329D01*
X119630813Y-112655175D01*
X119667495Y-112679685D01*
X119730315Y-112742505D01*
X119779672Y-112816373D01*
X119813669Y-112898448D01*
X119831000Y-112985579D01*
X119831000Y-113074421D01*
X119813669Y-113161552D01*
X119779672Y-113243627D01*
X119730315Y-113317495D01*
X119667495Y-113380315D01*
X119642786Y-113396825D01*
X119593629Y-113429671D01*
X119593628Y-113429672D01*
X119593627Y-113429672D01*
X119511552Y-113463669D01*
X119424421Y-113481000D01*
X119335579Y-113481000D01*
X119248448Y-113463669D01*
X119166373Y-113429672D01*
X119166372Y-113429672D01*
X119166371Y-113429671D01*
X119117214Y-113396825D01*
X119092505Y-113380315D01*
X119029685Y-113317495D01*
X118980328Y-113243627D01*
X118946331Y-113161552D01*
X118929000Y-113074421D01*
X118929000Y-112985579D01*
X118946331Y-112898448D01*
X118980328Y-112816373D01*
X119029685Y-112742505D01*
X119092505Y-112679685D01*
X119129187Y-112655175D01*
X119166371Y-112630329D01*
X119166373Y-112630328D01*
X119248448Y-112596331D01*
X119335579Y-112579000D01*
X119424421Y-112579000D01*
X119511552Y-112596331D01*
G37*
G36*
X106811552Y-112596331D02*
G01*
X106893627Y-112630328D01*
X106893629Y-112630329D01*
X106930813Y-112655175D01*
X106967495Y-112679685D01*
X107030315Y-112742505D01*
X107079672Y-112816373D01*
X107113669Y-112898448D01*
X107131000Y-112985579D01*
X107131000Y-113074421D01*
X107113669Y-113161552D01*
X107079672Y-113243627D01*
X107030315Y-113317495D01*
X106967495Y-113380315D01*
X106942786Y-113396825D01*
X106893629Y-113429671D01*
X106893628Y-113429672D01*
X106893627Y-113429672D01*
X106811552Y-113463669D01*
X106724421Y-113481000D01*
X106635579Y-113481000D01*
X106548448Y-113463669D01*
X106466373Y-113429672D01*
X106466372Y-113429672D01*
X106466371Y-113429671D01*
X106417214Y-113396825D01*
X106392505Y-113380315D01*
X106329685Y-113317495D01*
X106280328Y-113243627D01*
X106246331Y-113161552D01*
X106229000Y-113074421D01*
X106229000Y-112985579D01*
X106246331Y-112898448D01*
X106280328Y-112816373D01*
X106329685Y-112742505D01*
X106392505Y-112679685D01*
X106429187Y-112655175D01*
X106466371Y-112630329D01*
X106466373Y-112630328D01*
X106548448Y-112596331D01*
X106635579Y-112579000D01*
X106724421Y-112579000D01*
X106811552Y-112596331D01*
G37*
G36*
X114431552Y-112596331D02*
G01*
X114513627Y-112630328D01*
X114513629Y-112630329D01*
X114550813Y-112655175D01*
X114587495Y-112679685D01*
X114650315Y-112742505D01*
X114699672Y-112816373D01*
X114733669Y-112898448D01*
X114751000Y-112985579D01*
X114751000Y-113074421D01*
X114733669Y-113161552D01*
X114699672Y-113243627D01*
X114650315Y-113317495D01*
X114587495Y-113380315D01*
X114562786Y-113396825D01*
X114513629Y-113429671D01*
X114513628Y-113429672D01*
X114513627Y-113429672D01*
X114431552Y-113463669D01*
X114344421Y-113481000D01*
X114255579Y-113481000D01*
X114168448Y-113463669D01*
X114086373Y-113429672D01*
X114086372Y-113429672D01*
X114086371Y-113429671D01*
X114037214Y-113396825D01*
X114012505Y-113380315D01*
X113949685Y-113317495D01*
X113900328Y-113243627D01*
X113866331Y-113161552D01*
X113849000Y-113074421D01*
X113849000Y-112985579D01*
X113866331Y-112898448D01*
X113900328Y-112816373D01*
X113949685Y-112742505D01*
X114012505Y-112679685D01*
X114049187Y-112655175D01*
X114086371Y-112630329D01*
X114086373Y-112630328D01*
X114168448Y-112596331D01*
X114255579Y-112579000D01*
X114344421Y-112579000D01*
X114431552Y-112596331D01*
G37*
G36*
X165231552Y-112596331D02*
G01*
X165313627Y-112630328D01*
X165313629Y-112630329D01*
X165350813Y-112655175D01*
X165387495Y-112679685D01*
X165450315Y-112742505D01*
X165499672Y-112816373D01*
X165533669Y-112898448D01*
X165551000Y-112985579D01*
X165551000Y-113074421D01*
X165533669Y-113161552D01*
X165499672Y-113243627D01*
X165450315Y-113317495D01*
X165387495Y-113380315D01*
X165362786Y-113396825D01*
X165313629Y-113429671D01*
X165313628Y-113429672D01*
X165313627Y-113429672D01*
X165231552Y-113463669D01*
X165144421Y-113481000D01*
X165055579Y-113481000D01*
X164968448Y-113463669D01*
X164886373Y-113429672D01*
X164886372Y-113429672D01*
X164886371Y-113429671D01*
X164837214Y-113396825D01*
X164812505Y-113380315D01*
X164749685Y-113317495D01*
X164700328Y-113243627D01*
X164666331Y-113161552D01*
X164649000Y-113074421D01*
X164649000Y-112985579D01*
X164666331Y-112898448D01*
X164700328Y-112816373D01*
X164749685Y-112742505D01*
X164812505Y-112679685D01*
X164849187Y-112655175D01*
X164886371Y-112630329D01*
X164886373Y-112630328D01*
X164968448Y-112596331D01*
X165055579Y-112579000D01*
X165144421Y-112579000D01*
X165231552Y-112596331D01*
G37*
G36*
X160151552Y-112596331D02*
G01*
X160233627Y-112630328D01*
X160233629Y-112630329D01*
X160270813Y-112655175D01*
X160307495Y-112679685D01*
X160370315Y-112742505D01*
X160419672Y-112816373D01*
X160453669Y-112898448D01*
X160471000Y-112985579D01*
X160471000Y-113074421D01*
X160453669Y-113161552D01*
X160419672Y-113243627D01*
X160370315Y-113317495D01*
X160307495Y-113380315D01*
X160282786Y-113396825D01*
X160233629Y-113429671D01*
X160233628Y-113429672D01*
X160233627Y-113429672D01*
X160151552Y-113463669D01*
X160064421Y-113481000D01*
X159975579Y-113481000D01*
X159888448Y-113463669D01*
X159806373Y-113429672D01*
X159806372Y-113429672D01*
X159806371Y-113429671D01*
X159757214Y-113396825D01*
X159732505Y-113380315D01*
X159669685Y-113317495D01*
X159620328Y-113243627D01*
X159586331Y-113161552D01*
X159569000Y-113074421D01*
X159569000Y-112985579D01*
X159586331Y-112898448D01*
X159620328Y-112816373D01*
X159669685Y-112742505D01*
X159732505Y-112679685D01*
X159769187Y-112655175D01*
X159806371Y-112630329D01*
X159806373Y-112630328D01*
X159888448Y-112596331D01*
X159975579Y-112579000D01*
X160064421Y-112579000D01*
X160151552Y-112596331D01*
G37*
G36*
X155071552Y-112596331D02*
G01*
X155153627Y-112630328D01*
X155153629Y-112630329D01*
X155190813Y-112655175D01*
X155227495Y-112679685D01*
X155290315Y-112742505D01*
X155339672Y-112816373D01*
X155373669Y-112898448D01*
X155391000Y-112985579D01*
X155391000Y-113074421D01*
X155373669Y-113161552D01*
X155339672Y-113243627D01*
X155290315Y-113317495D01*
X155227495Y-113380315D01*
X155202786Y-113396825D01*
X155153629Y-113429671D01*
X155153628Y-113429672D01*
X155153627Y-113429672D01*
X155071552Y-113463669D01*
X154984421Y-113481000D01*
X154895579Y-113481000D01*
X154808448Y-113463669D01*
X154726373Y-113429672D01*
X154726372Y-113429672D01*
X154726371Y-113429671D01*
X154677214Y-113396825D01*
X154652505Y-113380315D01*
X154589685Y-113317495D01*
X154540328Y-113243627D01*
X154506331Y-113161552D01*
X154489000Y-113074421D01*
X154489000Y-112985579D01*
X154506331Y-112898448D01*
X154540328Y-112816373D01*
X154589685Y-112742505D01*
X154652505Y-112679685D01*
X154689187Y-112655175D01*
X154726371Y-112630329D01*
X154726373Y-112630328D01*
X154808448Y-112596331D01*
X154895579Y-112579000D01*
X154984421Y-112579000D01*
X155071552Y-112596331D01*
G37*
G36*
X152531552Y-112596331D02*
G01*
X152613627Y-112630328D01*
X152613629Y-112630329D01*
X152650813Y-112655175D01*
X152687495Y-112679685D01*
X152750315Y-112742505D01*
X152799672Y-112816373D01*
X152833669Y-112898448D01*
X152851000Y-112985579D01*
X152851000Y-113074421D01*
X152833669Y-113161552D01*
X152799672Y-113243627D01*
X152750315Y-113317495D01*
X152687495Y-113380315D01*
X152662786Y-113396825D01*
X152613629Y-113429671D01*
X152613628Y-113429672D01*
X152613627Y-113429672D01*
X152531552Y-113463669D01*
X152444421Y-113481000D01*
X152355579Y-113481000D01*
X152268448Y-113463669D01*
X152186373Y-113429672D01*
X152186372Y-113429672D01*
X152186371Y-113429671D01*
X152137214Y-113396825D01*
X152112505Y-113380315D01*
X152049685Y-113317495D01*
X152000328Y-113243627D01*
X151966331Y-113161552D01*
X151949000Y-113074421D01*
X151949000Y-112985579D01*
X151966331Y-112898448D01*
X152000328Y-112816373D01*
X152049685Y-112742505D01*
X152112505Y-112679685D01*
X152149187Y-112655175D01*
X152186371Y-112630329D01*
X152186373Y-112630328D01*
X152268448Y-112596331D01*
X152355579Y-112579000D01*
X152444421Y-112579000D01*
X152531552Y-112596331D01*
G37*
G36*
X170311552Y-112596331D02*
G01*
X170393627Y-112630328D01*
X170393629Y-112630329D01*
X170430813Y-112655175D01*
X170467495Y-112679685D01*
X170530315Y-112742505D01*
X170579672Y-112816373D01*
X170613669Y-112898448D01*
X170631000Y-112985579D01*
X170631000Y-113074421D01*
X170613669Y-113161552D01*
X170579672Y-113243627D01*
X170530315Y-113317495D01*
X170467495Y-113380315D01*
X170442786Y-113396825D01*
X170393629Y-113429671D01*
X170393628Y-113429672D01*
X170393627Y-113429672D01*
X170311552Y-113463669D01*
X170224421Y-113481000D01*
X170135579Y-113481000D01*
X170048448Y-113463669D01*
X169966373Y-113429672D01*
X169966372Y-113429672D01*
X169966371Y-113429671D01*
X169917214Y-113396825D01*
X169892505Y-113380315D01*
X169829685Y-113317495D01*
X169780328Y-113243627D01*
X169746331Y-113161552D01*
X169729000Y-113074421D01*
X169729000Y-112985579D01*
X169746331Y-112898448D01*
X169780328Y-112816373D01*
X169829685Y-112742505D01*
X169892505Y-112679685D01*
X169929187Y-112655175D01*
X169966371Y-112630329D01*
X169966373Y-112630328D01*
X170048448Y-112596331D01*
X170135579Y-112579000D01*
X170224421Y-112579000D01*
X170311552Y-112596331D01*
G37*
G36*
X167771552Y-112596331D02*
G01*
X167853627Y-112630328D01*
X167853629Y-112630329D01*
X167890813Y-112655175D01*
X167927495Y-112679685D01*
X167990315Y-112742505D01*
X168039672Y-112816373D01*
X168073669Y-112898448D01*
X168091000Y-112985579D01*
X168091000Y-113074421D01*
X168073669Y-113161552D01*
X168039672Y-113243627D01*
X167990315Y-113317495D01*
X167927495Y-113380315D01*
X167902786Y-113396825D01*
X167853629Y-113429671D01*
X167853628Y-113429672D01*
X167853627Y-113429672D01*
X167771552Y-113463669D01*
X167684421Y-113481000D01*
X167595579Y-113481000D01*
X167508448Y-113463669D01*
X167426373Y-113429672D01*
X167426372Y-113429672D01*
X167426371Y-113429671D01*
X167377214Y-113396825D01*
X167352505Y-113380315D01*
X167289685Y-113317495D01*
X167240328Y-113243627D01*
X167206331Y-113161552D01*
X167189000Y-113074421D01*
X167189000Y-112985579D01*
X167206331Y-112898448D01*
X167240328Y-112816373D01*
X167289685Y-112742505D01*
X167352505Y-112679685D01*
X167389187Y-112655175D01*
X167426371Y-112630329D01*
X167426373Y-112630328D01*
X167508448Y-112596331D01*
X167595579Y-112579000D01*
X167684421Y-112579000D01*
X167771552Y-112596331D01*
G37*
G36*
X157611552Y-112596331D02*
G01*
X157693627Y-112630328D01*
X157693629Y-112630329D01*
X157730813Y-112655175D01*
X157767495Y-112679685D01*
X157830315Y-112742505D01*
X157879672Y-112816373D01*
X157913669Y-112898448D01*
X157931000Y-112985579D01*
X157931000Y-113074421D01*
X157913669Y-113161552D01*
X157879672Y-113243627D01*
X157830315Y-113317495D01*
X157767495Y-113380315D01*
X157742786Y-113396825D01*
X157693629Y-113429671D01*
X157693628Y-113429672D01*
X157693627Y-113429672D01*
X157611552Y-113463669D01*
X157524421Y-113481000D01*
X157435579Y-113481000D01*
X157348448Y-113463669D01*
X157266373Y-113429672D01*
X157266372Y-113429672D01*
X157266371Y-113429671D01*
X157217214Y-113396825D01*
X157192505Y-113380315D01*
X157129685Y-113317495D01*
X157080328Y-113243627D01*
X157046331Y-113161552D01*
X157029000Y-113074421D01*
X157029000Y-112985579D01*
X157046331Y-112898448D01*
X157080328Y-112816373D01*
X157129685Y-112742505D01*
X157192505Y-112679685D01*
X157229187Y-112655175D01*
X157266371Y-112630329D01*
X157266373Y-112630328D01*
X157348448Y-112596331D01*
X157435579Y-112579000D01*
X157524421Y-112579000D01*
X157611552Y-112596331D01*
G37*
G36*
X175391552Y-108786331D02*
G01*
X175473627Y-108820328D01*
X175473629Y-108820329D01*
X175510813Y-108845175D01*
X175547495Y-108869685D01*
X175610315Y-108932505D01*
X175659672Y-109006373D01*
X175693669Y-109088448D01*
X175711000Y-109175579D01*
X175711000Y-109264421D01*
X175693669Y-109351552D01*
X175659672Y-109433627D01*
X175659671Y-109433629D01*
X175610314Y-109507496D01*
X175547496Y-109570314D01*
X175473629Y-109619671D01*
X175473628Y-109619672D01*
X175473627Y-109619672D01*
X175391552Y-109653669D01*
X175304421Y-109671000D01*
X175215579Y-109671000D01*
X175128448Y-109653669D01*
X175046373Y-109619672D01*
X175046372Y-109619672D01*
X175046371Y-109619671D01*
X174972504Y-109570314D01*
X174909686Y-109507496D01*
X174860329Y-109433629D01*
X174860328Y-109433627D01*
X174826331Y-109351552D01*
X174809000Y-109264421D01*
X174809000Y-109175579D01*
X174826331Y-109088448D01*
X174860328Y-109006373D01*
X174909685Y-108932505D01*
X174972505Y-108869685D01*
X175009187Y-108845175D01*
X175046371Y-108820329D01*
X175046373Y-108820328D01*
X175128448Y-108786331D01*
X175215579Y-108769000D01*
X175304421Y-108769000D01*
X175391552Y-108786331D01*
G37*
G36*
X139831552Y-108786331D02*
G01*
X139913627Y-108820328D01*
X139913629Y-108820329D01*
X139950813Y-108845175D01*
X139987495Y-108869685D01*
X140050315Y-108932505D01*
X140099672Y-109006373D01*
X140133669Y-109088448D01*
X140151000Y-109175579D01*
X140151000Y-109264421D01*
X140133669Y-109351552D01*
X140099672Y-109433627D01*
X140099671Y-109433629D01*
X140050314Y-109507496D01*
X139987496Y-109570314D01*
X139913629Y-109619671D01*
X139913628Y-109619672D01*
X139913627Y-109619672D01*
X139831552Y-109653669D01*
X139744421Y-109671000D01*
X139655579Y-109671000D01*
X139568448Y-109653669D01*
X139486373Y-109619672D01*
X139486372Y-109619672D01*
X139486371Y-109619671D01*
X139412504Y-109570314D01*
X139349686Y-109507496D01*
X139300329Y-109433629D01*
X139300328Y-109433627D01*
X139266331Y-109351552D01*
X139249000Y-109264421D01*
X139249000Y-109175579D01*
X139266331Y-109088448D01*
X139300328Y-109006373D01*
X139349685Y-108932505D01*
X139412505Y-108869685D01*
X139449187Y-108845175D01*
X139486371Y-108820329D01*
X139486373Y-108820328D01*
X139568448Y-108786331D01*
X139655579Y-108769000D01*
X139744421Y-108769000D01*
X139831552Y-108786331D01*
G37*
G36*
X99191552Y-108786331D02*
G01*
X99273627Y-108820328D01*
X99273629Y-108820329D01*
X99310813Y-108845175D01*
X99347495Y-108869685D01*
X99410315Y-108932505D01*
X99459672Y-109006373D01*
X99493669Y-109088448D01*
X99511000Y-109175579D01*
X99511000Y-109264421D01*
X99493669Y-109351552D01*
X99459672Y-109433627D01*
X99459671Y-109433629D01*
X99410314Y-109507496D01*
X99347496Y-109570314D01*
X99273629Y-109619671D01*
X99273628Y-109619672D01*
X99273627Y-109619672D01*
X99191552Y-109653669D01*
X99104421Y-109671000D01*
X99015579Y-109671000D01*
X98928448Y-109653669D01*
X98846373Y-109619672D01*
X98846372Y-109619672D01*
X98846371Y-109619671D01*
X98772504Y-109570314D01*
X98709686Y-109507496D01*
X98660329Y-109433629D01*
X98660328Y-109433627D01*
X98626331Y-109351552D01*
X98609000Y-109264421D01*
X98609000Y-109175579D01*
X98626331Y-109088448D01*
X98660328Y-109006373D01*
X98709685Y-108932505D01*
X98772505Y-108869685D01*
X98809187Y-108845175D01*
X98846371Y-108820329D01*
X98846373Y-108820328D01*
X98928448Y-108786331D01*
X99015579Y-108769000D01*
X99104421Y-108769000D01*
X99191552Y-108786331D01*
G37*
G36*
X142371552Y-106246331D02*
G01*
X142453627Y-106280328D01*
X142453629Y-106280329D01*
X142490813Y-106305175D01*
X142527495Y-106329685D01*
X142590315Y-106392505D01*
X142639672Y-106466373D01*
X142673669Y-106548448D01*
X142691000Y-106635579D01*
X142691000Y-106724421D01*
X142673669Y-106811552D01*
X142639672Y-106893627D01*
X142639671Y-106893629D01*
X142590314Y-106967496D01*
X142527496Y-107030314D01*
X142453629Y-107079671D01*
X142453628Y-107079672D01*
X142453627Y-107079672D01*
X142371552Y-107113669D01*
X142284421Y-107131000D01*
X142195579Y-107131000D01*
X142108448Y-107113669D01*
X142026373Y-107079672D01*
X142026372Y-107079672D01*
X142026371Y-107079671D01*
X141952504Y-107030314D01*
X141889686Y-106967496D01*
X141840329Y-106893629D01*
X141840328Y-106893627D01*
X141806331Y-106811552D01*
X141789000Y-106724421D01*
X141789000Y-106635579D01*
X141806331Y-106548448D01*
X141840328Y-106466373D01*
X141889685Y-106392505D01*
X141952505Y-106329685D01*
X141989187Y-106305175D01*
X142026371Y-106280329D01*
X142026373Y-106280328D01*
X142108448Y-106246331D01*
X142195579Y-106229000D01*
X142284421Y-106229000D01*
X142371552Y-106246331D01*
G37*
G36*
X99191552Y-106246331D02*
G01*
X99273627Y-106280328D01*
X99273629Y-106280329D01*
X99310813Y-106305175D01*
X99347495Y-106329685D01*
X99410315Y-106392505D01*
X99459672Y-106466373D01*
X99493669Y-106548448D01*
X99511000Y-106635579D01*
X99511000Y-106724421D01*
X99493669Y-106811552D01*
X99459672Y-106893627D01*
X99459671Y-106893629D01*
X99410314Y-106967496D01*
X99347496Y-107030314D01*
X99273629Y-107079671D01*
X99273628Y-107079672D01*
X99273627Y-107079672D01*
X99191552Y-107113669D01*
X99104421Y-107131000D01*
X99015579Y-107131000D01*
X98928448Y-107113669D01*
X98846373Y-107079672D01*
X98846372Y-107079672D01*
X98846371Y-107079671D01*
X98772504Y-107030314D01*
X98709686Y-106967496D01*
X98660329Y-106893629D01*
X98660328Y-106893627D01*
X98626331Y-106811552D01*
X98609000Y-106724421D01*
X98609000Y-106635579D01*
X98626331Y-106548448D01*
X98660328Y-106466373D01*
X98709685Y-106392505D01*
X98772505Y-106329685D01*
X98809187Y-106305175D01*
X98846371Y-106280329D01*
X98846373Y-106280328D01*
X98928448Y-106246331D01*
X99015579Y-106229000D01*
X99104421Y-106229000D01*
X99191552Y-106246331D01*
G37*
G36*
X139831552Y-106246331D02*
G01*
X139913627Y-106280328D01*
X139913629Y-106280329D01*
X139950813Y-106305175D01*
X139987495Y-106329685D01*
X140050315Y-106392505D01*
X140099672Y-106466373D01*
X140133669Y-106548448D01*
X140151000Y-106635579D01*
X140151000Y-106724421D01*
X140133669Y-106811552D01*
X140099672Y-106893627D01*
X140099671Y-106893629D01*
X140050314Y-106967496D01*
X139987496Y-107030314D01*
X139913629Y-107079671D01*
X139913628Y-107079672D01*
X139913627Y-107079672D01*
X139831552Y-107113669D01*
X139744421Y-107131000D01*
X139655579Y-107131000D01*
X139568448Y-107113669D01*
X139486373Y-107079672D01*
X139486372Y-107079672D01*
X139486371Y-107079671D01*
X139412504Y-107030314D01*
X139349686Y-106967496D01*
X139300329Y-106893629D01*
X139300328Y-106893627D01*
X139266331Y-106811552D01*
X139249000Y-106724421D01*
X139249000Y-106635579D01*
X139266331Y-106548448D01*
X139300328Y-106466373D01*
X139349685Y-106392505D01*
X139412505Y-106329685D01*
X139449187Y-106305175D01*
X139486371Y-106280329D01*
X139486373Y-106280328D01*
X139568448Y-106246331D01*
X139655579Y-106229000D01*
X139744421Y-106229000D01*
X139831552Y-106246331D01*
G37*
G36*
X175391552Y-106246331D02*
G01*
X175473627Y-106280328D01*
X175473629Y-106280329D01*
X175510813Y-106305175D01*
X175547495Y-106329685D01*
X175610315Y-106392505D01*
X175659672Y-106466373D01*
X175693669Y-106548448D01*
X175711000Y-106635579D01*
X175711000Y-106724421D01*
X175693669Y-106811552D01*
X175659672Y-106893627D01*
X175659671Y-106893629D01*
X175610314Y-106967496D01*
X175547496Y-107030314D01*
X175473629Y-107079671D01*
X175473628Y-107079672D01*
X175473627Y-107079672D01*
X175391552Y-107113669D01*
X175304421Y-107131000D01*
X175215579Y-107131000D01*
X175128448Y-107113669D01*
X175046373Y-107079672D01*
X175046372Y-107079672D01*
X175046371Y-107079671D01*
X174972504Y-107030314D01*
X174909686Y-106967496D01*
X174860329Y-106893629D01*
X174860328Y-106893627D01*
X174826331Y-106811552D01*
X174809000Y-106724421D01*
X174809000Y-106635579D01*
X174826331Y-106548448D01*
X174860328Y-106466373D01*
X174909685Y-106392505D01*
X174972505Y-106329685D01*
X175009187Y-106305175D01*
X175046371Y-106280329D01*
X175046373Y-106280328D01*
X175128448Y-106246331D01*
X175215579Y-106229000D01*
X175304421Y-106229000D01*
X175391552Y-106246331D01*
G37*
G36*
X99191552Y-103706331D02*
G01*
X99273627Y-103740328D01*
X99273629Y-103740329D01*
X99310813Y-103765175D01*
X99347495Y-103789685D01*
X99410315Y-103852505D01*
X99459672Y-103926373D01*
X99493669Y-104008448D01*
X99511000Y-104095579D01*
X99511000Y-104184421D01*
X99493669Y-104271552D01*
X99459672Y-104353627D01*
X99459671Y-104353629D01*
X99410314Y-104427496D01*
X99347496Y-104490314D01*
X99273629Y-104539671D01*
X99273628Y-104539672D01*
X99273627Y-104539672D01*
X99191552Y-104573669D01*
X99104421Y-104591000D01*
X99015579Y-104591000D01*
X98928448Y-104573669D01*
X98846373Y-104539672D01*
X98846372Y-104539672D01*
X98846371Y-104539671D01*
X98772504Y-104490314D01*
X98709686Y-104427496D01*
X98660329Y-104353629D01*
X98660328Y-104353627D01*
X98626331Y-104271552D01*
X98609000Y-104184421D01*
X98609000Y-104095579D01*
X98626331Y-104008448D01*
X98660328Y-103926373D01*
X98709685Y-103852505D01*
X98772505Y-103789685D01*
X98809187Y-103765175D01*
X98846371Y-103740329D01*
X98846373Y-103740328D01*
X98928448Y-103706331D01*
X99015579Y-103689000D01*
X99104421Y-103689000D01*
X99191552Y-103706331D01*
G37*
G36*
X139831552Y-103706331D02*
G01*
X139913627Y-103740328D01*
X139913629Y-103740329D01*
X139950813Y-103765175D01*
X139987495Y-103789685D01*
X140050315Y-103852505D01*
X140099672Y-103926373D01*
X140133669Y-104008448D01*
X140151000Y-104095579D01*
X140151000Y-104184421D01*
X140133669Y-104271552D01*
X140099672Y-104353627D01*
X140099671Y-104353629D01*
X140050314Y-104427496D01*
X139987496Y-104490314D01*
X139913629Y-104539671D01*
X139913628Y-104539672D01*
X139913627Y-104539672D01*
X139831552Y-104573669D01*
X139744421Y-104591000D01*
X139655579Y-104591000D01*
X139568448Y-104573669D01*
X139486373Y-104539672D01*
X139486372Y-104539672D01*
X139486371Y-104539671D01*
X139412504Y-104490314D01*
X139349686Y-104427496D01*
X139300329Y-104353629D01*
X139300328Y-104353627D01*
X139266331Y-104271552D01*
X139249000Y-104184421D01*
X139249000Y-104095579D01*
X139266331Y-104008448D01*
X139300328Y-103926373D01*
X139349685Y-103852505D01*
X139412505Y-103789685D01*
X139449187Y-103765175D01*
X139486371Y-103740329D01*
X139486373Y-103740328D01*
X139568448Y-103706331D01*
X139655579Y-103689000D01*
X139744421Y-103689000D01*
X139831552Y-103706331D01*
G37*
G36*
X142371552Y-103706331D02*
G01*
X142453627Y-103740328D01*
X142453629Y-103740329D01*
X142490813Y-103765175D01*
X142527495Y-103789685D01*
X142590315Y-103852505D01*
X142639672Y-103926373D01*
X142673669Y-104008448D01*
X142691000Y-104095579D01*
X142691000Y-104184421D01*
X142673669Y-104271552D01*
X142639672Y-104353627D01*
X142639671Y-104353629D01*
X142590314Y-104427496D01*
X142527496Y-104490314D01*
X142453629Y-104539671D01*
X142453628Y-104539672D01*
X142453627Y-104539672D01*
X142371552Y-104573669D01*
X142284421Y-104591000D01*
X142195579Y-104591000D01*
X142108448Y-104573669D01*
X142026373Y-104539672D01*
X142026372Y-104539672D01*
X142026371Y-104539671D01*
X141952504Y-104490314D01*
X141889686Y-104427496D01*
X141840329Y-104353629D01*
X141840328Y-104353627D01*
X141806331Y-104271552D01*
X141789000Y-104184421D01*
X141789000Y-104095579D01*
X141806331Y-104008448D01*
X141840328Y-103926373D01*
X141889685Y-103852505D01*
X141952505Y-103789685D01*
X141989187Y-103765175D01*
X142026371Y-103740329D01*
X142026373Y-103740328D01*
X142108448Y-103706331D01*
X142195579Y-103689000D01*
X142284421Y-103689000D01*
X142371552Y-103706331D01*
G37*
G36*
X144911552Y-103706331D02*
G01*
X144993627Y-103740328D01*
X144993629Y-103740329D01*
X145030813Y-103765175D01*
X145067495Y-103789685D01*
X145130315Y-103852505D01*
X145179672Y-103926373D01*
X145213669Y-104008448D01*
X145231000Y-104095579D01*
X145231000Y-104184421D01*
X145213669Y-104271552D01*
X145179672Y-104353627D01*
X145179671Y-104353629D01*
X145130314Y-104427496D01*
X145067496Y-104490314D01*
X144993629Y-104539671D01*
X144993628Y-104539672D01*
X144993627Y-104539672D01*
X144911552Y-104573669D01*
X144824421Y-104591000D01*
X144735579Y-104591000D01*
X144648448Y-104573669D01*
X144566373Y-104539672D01*
X144566372Y-104539672D01*
X144566371Y-104539671D01*
X144492504Y-104490314D01*
X144429686Y-104427496D01*
X144380329Y-104353629D01*
X144380328Y-104353627D01*
X144346331Y-104271552D01*
X144329000Y-104184421D01*
X144329000Y-104095579D01*
X144346331Y-104008448D01*
X144380328Y-103926373D01*
X144429685Y-103852505D01*
X144492505Y-103789685D01*
X144529187Y-103765175D01*
X144566371Y-103740329D01*
X144566373Y-103740328D01*
X144648448Y-103706331D01*
X144735579Y-103689000D01*
X144824421Y-103689000D01*
X144911552Y-103706331D01*
G37*
G36*
X175391552Y-103706331D02*
G01*
X175473627Y-103740328D01*
X175473629Y-103740329D01*
X175510813Y-103765175D01*
X175547495Y-103789685D01*
X175610315Y-103852505D01*
X175659672Y-103926373D01*
X175693669Y-104008448D01*
X175711000Y-104095579D01*
X175711000Y-104184421D01*
X175693669Y-104271552D01*
X175659672Y-104353627D01*
X175659671Y-104353629D01*
X175610314Y-104427496D01*
X175547496Y-104490314D01*
X175473629Y-104539671D01*
X175473628Y-104539672D01*
X175473627Y-104539672D01*
X175391552Y-104573669D01*
X175304421Y-104591000D01*
X175215579Y-104591000D01*
X175128448Y-104573669D01*
X175046373Y-104539672D01*
X175046372Y-104539672D01*
X175046371Y-104539671D01*
X174972504Y-104490314D01*
X174909686Y-104427496D01*
X174860329Y-104353629D01*
X174860328Y-104353627D01*
X174826331Y-104271552D01*
X174809000Y-104184421D01*
X174809000Y-104095579D01*
X174826331Y-104008448D01*
X174860328Y-103926373D01*
X174909685Y-103852505D01*
X174972505Y-103789685D01*
X175009187Y-103765175D01*
X175046371Y-103740329D01*
X175046373Y-103740328D01*
X175128448Y-103706331D01*
X175215579Y-103689000D01*
X175304421Y-103689000D01*
X175391552Y-103706331D01*
G37*
G36*
X147451552Y-101166331D02*
G01*
X147533627Y-101200328D01*
X147533629Y-101200329D01*
X147570813Y-101225175D01*
X147607495Y-101249685D01*
X147670315Y-101312505D01*
X147719672Y-101386373D01*
X147753669Y-101468448D01*
X147771000Y-101555579D01*
X147771000Y-101644421D01*
X147753669Y-101731552D01*
X147719672Y-101813627D01*
X147719671Y-101813629D01*
X147670314Y-101887496D01*
X147607496Y-101950314D01*
X147533629Y-101999671D01*
X147533628Y-101999672D01*
X147533627Y-101999672D01*
X147451552Y-102033669D01*
X147364421Y-102051000D01*
X147275579Y-102051000D01*
X147188448Y-102033669D01*
X147106373Y-101999672D01*
X147106372Y-101999672D01*
X147106371Y-101999671D01*
X147032504Y-101950314D01*
X146969686Y-101887496D01*
X146920329Y-101813629D01*
X146920328Y-101813627D01*
X146886331Y-101731552D01*
X146869000Y-101644421D01*
X146869000Y-101555579D01*
X146886331Y-101468448D01*
X146920328Y-101386373D01*
X146969685Y-101312505D01*
X147032505Y-101249685D01*
X147069187Y-101225175D01*
X147106371Y-101200329D01*
X147106373Y-101200328D01*
X147188448Y-101166331D01*
X147275579Y-101149000D01*
X147364421Y-101149000D01*
X147451552Y-101166331D01*
G37*
G36*
X175391552Y-101166331D02*
G01*
X175473627Y-101200328D01*
X175473629Y-101200329D01*
X175510813Y-101225175D01*
X175547495Y-101249685D01*
X175610315Y-101312505D01*
X175659672Y-101386373D01*
X175693669Y-101468448D01*
X175711000Y-101555579D01*
X175711000Y-101644421D01*
X175693669Y-101731552D01*
X175659672Y-101813627D01*
X175659671Y-101813629D01*
X175610314Y-101887496D01*
X175547496Y-101950314D01*
X175473629Y-101999671D01*
X175473628Y-101999672D01*
X175473627Y-101999672D01*
X175391552Y-102033669D01*
X175304421Y-102051000D01*
X175215579Y-102051000D01*
X175128448Y-102033669D01*
X175046373Y-101999672D01*
X175046372Y-101999672D01*
X175046371Y-101999671D01*
X174972504Y-101950314D01*
X174909686Y-101887496D01*
X174860329Y-101813629D01*
X174860328Y-101813627D01*
X174826331Y-101731552D01*
X174809000Y-101644421D01*
X174809000Y-101555579D01*
X174826331Y-101468448D01*
X174860328Y-101386373D01*
X174909685Y-101312505D01*
X174972505Y-101249685D01*
X175009187Y-101225175D01*
X175046371Y-101200329D01*
X175046373Y-101200328D01*
X175128448Y-101166331D01*
X175215579Y-101149000D01*
X175304421Y-101149000D01*
X175391552Y-101166331D01*
G37*
G36*
X99191552Y-101166331D02*
G01*
X99273627Y-101200328D01*
X99273629Y-101200329D01*
X99310813Y-101225175D01*
X99347495Y-101249685D01*
X99410315Y-101312505D01*
X99459672Y-101386373D01*
X99493669Y-101468448D01*
X99511000Y-101555579D01*
X99511000Y-101644421D01*
X99493669Y-101731552D01*
X99459672Y-101813627D01*
X99459671Y-101813629D01*
X99410314Y-101887496D01*
X99347496Y-101950314D01*
X99273629Y-101999671D01*
X99273628Y-101999672D01*
X99273627Y-101999672D01*
X99191552Y-102033669D01*
X99104421Y-102051000D01*
X99015579Y-102051000D01*
X98928448Y-102033669D01*
X98846373Y-101999672D01*
X98846372Y-101999672D01*
X98846371Y-101999671D01*
X98772504Y-101950314D01*
X98709686Y-101887496D01*
X98660329Y-101813629D01*
X98660328Y-101813627D01*
X98626331Y-101731552D01*
X98609000Y-101644421D01*
X98609000Y-101555579D01*
X98626331Y-101468448D01*
X98660328Y-101386373D01*
X98709685Y-101312505D01*
X98772505Y-101249685D01*
X98809187Y-101225175D01*
X98846371Y-101200329D01*
X98846373Y-101200328D01*
X98928448Y-101166331D01*
X99015579Y-101149000D01*
X99104421Y-101149000D01*
X99191552Y-101166331D01*
G37*
G36*
X144911552Y-101166331D02*
G01*
X144993627Y-101200328D01*
X144993629Y-101200329D01*
X145030813Y-101225175D01*
X145067495Y-101249685D01*
X145130315Y-101312505D01*
X145179672Y-101386373D01*
X145213669Y-101468448D01*
X145231000Y-101555579D01*
X145231000Y-101644421D01*
X145213669Y-101731552D01*
X145179672Y-101813627D01*
X145179671Y-101813629D01*
X145130314Y-101887496D01*
X145067496Y-101950314D01*
X144993629Y-101999671D01*
X144993628Y-101999672D01*
X144993627Y-101999672D01*
X144911552Y-102033669D01*
X144824421Y-102051000D01*
X144735579Y-102051000D01*
X144648448Y-102033669D01*
X144566373Y-101999672D01*
X144566372Y-101999672D01*
X144566371Y-101999671D01*
X144492504Y-101950314D01*
X144429686Y-101887496D01*
X144380329Y-101813629D01*
X144380328Y-101813627D01*
X144346331Y-101731552D01*
X144329000Y-101644421D01*
X144329000Y-101555579D01*
X144346331Y-101468448D01*
X144380328Y-101386373D01*
X144429685Y-101312505D01*
X144492505Y-101249685D01*
X144529187Y-101225175D01*
X144566371Y-101200329D01*
X144566373Y-101200328D01*
X144648448Y-101166331D01*
X144735579Y-101149000D01*
X144824421Y-101149000D01*
X144911552Y-101166331D01*
G37*
G36*
X142371552Y-101166331D02*
G01*
X142453627Y-101200328D01*
X142453629Y-101200329D01*
X142490813Y-101225175D01*
X142527495Y-101249685D01*
X142590315Y-101312505D01*
X142639672Y-101386373D01*
X142673669Y-101468448D01*
X142691000Y-101555579D01*
X142691000Y-101644421D01*
X142673669Y-101731552D01*
X142639672Y-101813627D01*
X142639671Y-101813629D01*
X142590314Y-101887496D01*
X142527496Y-101950314D01*
X142453629Y-101999671D01*
X142453628Y-101999672D01*
X142453627Y-101999672D01*
X142371552Y-102033669D01*
X142284421Y-102051000D01*
X142195579Y-102051000D01*
X142108448Y-102033669D01*
X142026373Y-101999672D01*
X142026372Y-101999672D01*
X142026371Y-101999671D01*
X141952504Y-101950314D01*
X141889686Y-101887496D01*
X141840329Y-101813629D01*
X141840328Y-101813627D01*
X141806331Y-101731552D01*
X141789000Y-101644421D01*
X141789000Y-101555579D01*
X141806331Y-101468448D01*
X141840328Y-101386373D01*
X141889685Y-101312505D01*
X141952505Y-101249685D01*
X141989187Y-101225175D01*
X142026371Y-101200329D01*
X142026373Y-101200328D01*
X142108448Y-101166331D01*
X142195579Y-101149000D01*
X142284421Y-101149000D01*
X142371552Y-101166331D01*
G37*
G36*
X139831552Y-101166331D02*
G01*
X139913627Y-101200328D01*
X139913629Y-101200329D01*
X139950813Y-101225175D01*
X139987495Y-101249685D01*
X140050315Y-101312505D01*
X140099672Y-101386373D01*
X140133669Y-101468448D01*
X140151000Y-101555579D01*
X140151000Y-101644421D01*
X140133669Y-101731552D01*
X140099672Y-101813627D01*
X140099671Y-101813629D01*
X140050314Y-101887496D01*
X139987496Y-101950314D01*
X139913629Y-101999671D01*
X139913628Y-101999672D01*
X139913627Y-101999672D01*
X139831552Y-102033669D01*
X139744421Y-102051000D01*
X139655579Y-102051000D01*
X139568448Y-102033669D01*
X139486373Y-101999672D01*
X139486372Y-101999672D01*
X139486371Y-101999671D01*
X139412504Y-101950314D01*
X139349686Y-101887496D01*
X139300329Y-101813629D01*
X139300328Y-101813627D01*
X139266331Y-101731552D01*
X139249000Y-101644421D01*
X139249000Y-101555579D01*
X139266331Y-101468448D01*
X139300328Y-101386373D01*
X139349685Y-101312505D01*
X139412505Y-101249685D01*
X139449187Y-101225175D01*
X139486371Y-101200329D01*
X139486373Y-101200328D01*
X139568448Y-101166331D01*
X139655579Y-101149000D01*
X139744421Y-101149000D01*
X139831552Y-101166331D01*
G37*
G36*
X107947143Y-98232087D02*
G01*
X108103838Y-98296992D01*
X108244853Y-98391215D01*
X108364785Y-98511147D01*
X108459008Y-98652162D01*
X108523913Y-98808857D01*
X108557000Y-98975198D01*
X108557000Y-99144802D01*
X108523913Y-99311143D01*
X108459008Y-99467838D01*
X108364785Y-99608853D01*
X108244853Y-99728785D01*
X108103838Y-99823008D01*
X107947143Y-99887913D01*
X107780802Y-99921000D01*
X107611198Y-99921000D01*
X107444857Y-99887913D01*
X107288162Y-99823008D01*
X107147147Y-99728785D01*
X107027215Y-99608853D01*
X106932992Y-99467838D01*
X106868087Y-99311143D01*
X106835000Y-99144802D01*
X106835000Y-98975198D01*
X106868087Y-98808857D01*
X106932992Y-98652162D01*
X107027215Y-98511147D01*
X107147147Y-98391215D01*
X107288162Y-98296992D01*
X107444857Y-98232087D01*
X107611198Y-98199000D01*
X107780802Y-98199000D01*
X107947143Y-98232087D01*
G37*
G36*
X112947143Y-98232087D02*
G01*
X113103838Y-98296992D01*
X113244853Y-98391215D01*
X113364785Y-98511147D01*
X113459008Y-98652162D01*
X113523913Y-98808857D01*
X113557000Y-98975198D01*
X113557000Y-99144802D01*
X113523913Y-99311143D01*
X113459008Y-99467838D01*
X113364785Y-99608853D01*
X113244853Y-99728785D01*
X113103838Y-99823008D01*
X112947143Y-99887913D01*
X112780802Y-99921000D01*
X112611198Y-99921000D01*
X112444857Y-99887913D01*
X112288162Y-99823008D01*
X112147147Y-99728785D01*
X112027215Y-99608853D01*
X111932992Y-99467838D01*
X111868087Y-99311143D01*
X111835000Y-99144802D01*
X111835000Y-98975198D01*
X111868087Y-98808857D01*
X111932992Y-98652162D01*
X112027215Y-98511147D01*
X112147147Y-98391215D01*
X112288162Y-98296992D01*
X112444857Y-98232087D01*
X112611198Y-98199000D01*
X112780802Y-98199000D01*
X112947143Y-98232087D01*
G37*
G36*
X175391552Y-98626331D02*
G01*
X175473627Y-98660328D01*
X175473629Y-98660329D01*
X175510813Y-98685175D01*
X175547495Y-98709685D01*
X175610315Y-98772505D01*
X175659672Y-98846373D01*
X175693669Y-98928448D01*
X175711000Y-99015579D01*
X175711000Y-99104421D01*
X175693669Y-99191552D01*
X175659672Y-99273627D01*
X175659671Y-99273629D01*
X175610314Y-99347496D01*
X175547496Y-99410314D01*
X175473629Y-99459671D01*
X175473628Y-99459672D01*
X175473627Y-99459672D01*
X175391552Y-99493669D01*
X175304421Y-99511000D01*
X175215579Y-99511000D01*
X175128448Y-99493669D01*
X175046373Y-99459672D01*
X175046372Y-99459672D01*
X175046371Y-99459671D01*
X174972504Y-99410314D01*
X174909686Y-99347496D01*
X174860329Y-99273629D01*
X174860328Y-99273627D01*
X174826331Y-99191552D01*
X174809000Y-99104421D01*
X174809000Y-99015579D01*
X174826331Y-98928448D01*
X174860328Y-98846373D01*
X174909685Y-98772505D01*
X174972505Y-98709685D01*
X175009187Y-98685175D01*
X175046371Y-98660329D01*
X175046373Y-98660328D01*
X175128448Y-98626331D01*
X175215579Y-98609000D01*
X175304421Y-98609000D01*
X175391552Y-98626331D01*
G37*
G36*
X99191552Y-98626331D02*
G01*
X99273627Y-98660328D01*
X99273629Y-98660329D01*
X99310813Y-98685175D01*
X99347495Y-98709685D01*
X99410315Y-98772505D01*
X99459672Y-98846373D01*
X99493669Y-98928448D01*
X99511000Y-99015579D01*
X99511000Y-99104421D01*
X99493669Y-99191552D01*
X99459672Y-99273627D01*
X99459671Y-99273629D01*
X99410314Y-99347496D01*
X99347496Y-99410314D01*
X99273629Y-99459671D01*
X99273628Y-99459672D01*
X99273627Y-99459672D01*
X99191552Y-99493669D01*
X99104421Y-99511000D01*
X99015579Y-99511000D01*
X98928448Y-99493669D01*
X98846373Y-99459672D01*
X98846372Y-99459672D01*
X98846371Y-99459671D01*
X98772504Y-99410314D01*
X98709686Y-99347496D01*
X98660329Y-99273629D01*
X98660328Y-99273627D01*
X98626331Y-99191552D01*
X98609000Y-99104421D01*
X98609000Y-99015579D01*
X98626331Y-98928448D01*
X98660328Y-98846373D01*
X98709685Y-98772505D01*
X98772505Y-98709685D01*
X98809187Y-98685175D01*
X98846371Y-98660329D01*
X98846373Y-98660328D01*
X98928448Y-98626331D01*
X99015579Y-98609000D01*
X99104421Y-98609000D01*
X99191552Y-98626331D01*
G37*
G36*
X143877512Y-96639927D02*
G01*
X144026812Y-96669624D01*
X144190784Y-96737544D01*
X144338354Y-96836147D01*
X144463853Y-96961646D01*
X144562456Y-97109216D01*
X144630376Y-97273188D01*
X144653676Y-97390328D01*
X144663494Y-97439685D01*
X144665000Y-97447259D01*
X144665000Y-97624741D01*
X144630376Y-97798812D01*
X144562456Y-97962784D01*
X144463853Y-98110354D01*
X144338354Y-98235853D01*
X144190784Y-98334456D01*
X144026812Y-98402376D01*
X143877512Y-98432073D01*
X143852742Y-98437000D01*
X143675258Y-98437000D01*
X143650488Y-98432073D01*
X143501188Y-98402376D01*
X143337216Y-98334456D01*
X143189646Y-98235853D01*
X143064147Y-98110354D01*
X142965544Y-97962784D01*
X142897624Y-97798812D01*
X142863000Y-97624741D01*
X142863000Y-97447259D01*
X142864507Y-97439685D01*
X142874324Y-97390328D01*
X142897624Y-97273188D01*
X142965544Y-97109216D01*
X143064147Y-96961646D01*
X143189646Y-96836147D01*
X143337216Y-96737544D01*
X143501188Y-96669624D01*
X143650488Y-96639927D01*
X143675258Y-96635000D01*
X143852742Y-96635000D01*
X143877512Y-96639927D01*
G37*
G36*
X136257512Y-96639927D02*
G01*
X136406812Y-96669624D01*
X136570784Y-96737544D01*
X136718354Y-96836147D01*
X136843853Y-96961646D01*
X136942456Y-97109216D01*
X137010376Y-97273188D01*
X137033676Y-97390328D01*
X137043494Y-97439685D01*
X137045000Y-97447259D01*
X137045000Y-97624741D01*
X137010376Y-97798812D01*
X136942456Y-97962784D01*
X136843853Y-98110354D01*
X136718354Y-98235853D01*
X136570784Y-98334456D01*
X136406812Y-98402376D01*
X136257512Y-98432073D01*
X136232742Y-98437000D01*
X136055258Y-98437000D01*
X136030488Y-98432073D01*
X135881188Y-98402376D01*
X135717216Y-98334456D01*
X135569646Y-98235853D01*
X135444147Y-98110354D01*
X135345544Y-97962784D01*
X135277624Y-97798812D01*
X135243000Y-97624741D01*
X135243000Y-97447259D01*
X135244507Y-97439685D01*
X135254324Y-97390328D01*
X135277624Y-97273188D01*
X135345544Y-97109216D01*
X135444147Y-96961646D01*
X135569646Y-96836147D01*
X135717216Y-96737544D01*
X135881188Y-96669624D01*
X136030488Y-96639927D01*
X136055258Y-96635000D01*
X136232742Y-96635000D01*
X136257512Y-96639927D01*
G37*
G36*
X147451552Y-97356331D02*
G01*
X147533627Y-97390328D01*
X147533629Y-97390329D01*
X147570813Y-97415175D01*
X147607495Y-97439685D01*
X147670315Y-97502505D01*
X147719672Y-97576373D01*
X147753669Y-97658448D01*
X147771000Y-97745579D01*
X147771000Y-97834421D01*
X147753669Y-97921552D01*
X147719672Y-98003627D01*
X147719671Y-98003629D01*
X147670314Y-98077496D01*
X147607496Y-98140314D01*
X147533629Y-98189671D01*
X147533628Y-98189672D01*
X147533627Y-98189672D01*
X147451552Y-98223669D01*
X147364421Y-98241000D01*
X147275579Y-98241000D01*
X147188448Y-98223669D01*
X147106373Y-98189672D01*
X147106372Y-98189672D01*
X147106371Y-98189671D01*
X147032504Y-98140314D01*
X146969686Y-98077496D01*
X146920329Y-98003629D01*
X146920328Y-98003627D01*
X146886331Y-97921552D01*
X146869000Y-97834421D01*
X146869000Y-97745579D01*
X146886331Y-97658448D01*
X146920328Y-97576373D01*
X146969685Y-97502505D01*
X147032505Y-97439685D01*
X147069187Y-97415175D01*
X147106371Y-97390329D01*
X147106373Y-97390328D01*
X147188448Y-97356331D01*
X147275579Y-97339000D01*
X147364421Y-97339000D01*
X147451552Y-97356331D01*
G37*
G36*
X175391552Y-96086331D02*
G01*
X175473627Y-96120328D01*
X175473629Y-96120329D01*
X175510813Y-96145175D01*
X175547495Y-96169685D01*
X175610315Y-96232505D01*
X175659672Y-96306373D01*
X175693669Y-96388448D01*
X175711000Y-96475579D01*
X175711000Y-96564421D01*
X175693669Y-96651552D01*
X175659672Y-96733627D01*
X175659671Y-96733629D01*
X175610314Y-96807496D01*
X175547496Y-96870314D01*
X175473629Y-96919671D01*
X175473628Y-96919672D01*
X175473627Y-96919672D01*
X175391552Y-96953669D01*
X175304421Y-96971000D01*
X175215579Y-96971000D01*
X175128448Y-96953669D01*
X175046373Y-96919672D01*
X175046372Y-96919672D01*
X175046371Y-96919671D01*
X174972504Y-96870314D01*
X174909686Y-96807496D01*
X174860329Y-96733629D01*
X174860328Y-96733627D01*
X174826331Y-96651552D01*
X174809000Y-96564421D01*
X174809000Y-96475579D01*
X174826331Y-96388448D01*
X174860328Y-96306373D01*
X174909685Y-96232505D01*
X174972505Y-96169685D01*
X175009187Y-96145175D01*
X175046371Y-96120329D01*
X175046373Y-96120328D01*
X175128448Y-96086331D01*
X175215579Y-96069000D01*
X175304421Y-96069000D01*
X175391552Y-96086331D01*
G37*
G36*
X99191552Y-96086331D02*
G01*
X99273627Y-96120328D01*
X99273629Y-96120329D01*
X99310813Y-96145175D01*
X99347495Y-96169685D01*
X99410315Y-96232505D01*
X99459672Y-96306373D01*
X99493669Y-96388448D01*
X99511000Y-96475579D01*
X99511000Y-96564421D01*
X99493669Y-96651552D01*
X99459672Y-96733627D01*
X99459671Y-96733629D01*
X99410314Y-96807496D01*
X99347496Y-96870314D01*
X99273629Y-96919671D01*
X99273628Y-96919672D01*
X99273627Y-96919672D01*
X99191552Y-96953669D01*
X99104421Y-96971000D01*
X99015579Y-96971000D01*
X98928448Y-96953669D01*
X98846373Y-96919672D01*
X98846372Y-96919672D01*
X98846371Y-96919671D01*
X98772504Y-96870314D01*
X98709686Y-96807496D01*
X98660329Y-96733629D01*
X98660328Y-96733627D01*
X98626331Y-96651552D01*
X98609000Y-96564421D01*
X98609000Y-96475579D01*
X98626331Y-96388448D01*
X98660328Y-96306373D01*
X98709685Y-96232505D01*
X98772505Y-96169685D01*
X98809187Y-96145175D01*
X98846371Y-96120329D01*
X98846373Y-96120328D01*
X98928448Y-96086331D01*
X99015579Y-96069000D01*
X99104421Y-96069000D01*
X99191552Y-96086331D01*
G37*
G36*
X136257512Y-94353927D02*
G01*
X136406812Y-94383624D01*
X136570784Y-94451544D01*
X136718354Y-94550147D01*
X136843853Y-94675646D01*
X136942456Y-94823216D01*
X137010376Y-94987188D01*
X137045000Y-95161259D01*
X137045000Y-95338741D01*
X137010376Y-95512812D01*
X136942456Y-95676784D01*
X136843853Y-95824354D01*
X136718354Y-95949853D01*
X136570784Y-96048456D01*
X136406812Y-96116376D01*
X136257512Y-96146073D01*
X136232742Y-96151000D01*
X136055258Y-96151000D01*
X136030488Y-96146073D01*
X135881188Y-96116376D01*
X135717216Y-96048456D01*
X135569646Y-95949853D01*
X135444147Y-95824354D01*
X135345544Y-95676784D01*
X135277624Y-95512812D01*
X135243000Y-95338741D01*
X135243000Y-95161259D01*
X135277624Y-94987188D01*
X135345544Y-94823216D01*
X135444147Y-94675646D01*
X135569646Y-94550147D01*
X135717216Y-94451544D01*
X135881188Y-94383624D01*
X136030488Y-94353927D01*
X136055258Y-94349000D01*
X136232742Y-94349000D01*
X136257512Y-94353927D01*
G37*
G36*
X143877512Y-94353927D02*
G01*
X144026812Y-94383624D01*
X144190784Y-94451544D01*
X144338354Y-94550147D01*
X144463853Y-94675646D01*
X144562456Y-94823216D01*
X144630376Y-94987188D01*
X144665000Y-95161259D01*
X144665000Y-95338741D01*
X144630376Y-95512812D01*
X144562456Y-95676784D01*
X144463853Y-95824354D01*
X144338354Y-95949853D01*
X144190784Y-96048456D01*
X144026812Y-96116376D01*
X143877512Y-96146073D01*
X143852742Y-96151000D01*
X143675258Y-96151000D01*
X143650488Y-96146073D01*
X143501188Y-96116376D01*
X143337216Y-96048456D01*
X143189646Y-95949853D01*
X143064147Y-95824354D01*
X142965544Y-95676784D01*
X142897624Y-95512812D01*
X142863000Y-95338741D01*
X142863000Y-95161259D01*
X142897624Y-94987188D01*
X142965544Y-94823216D01*
X143064147Y-94675646D01*
X143189646Y-94550147D01*
X143337216Y-94451544D01*
X143501188Y-94383624D01*
X143650488Y-94353927D01*
X143675258Y-94349000D01*
X143852742Y-94349000D01*
X143877512Y-94353927D01*
G37*
G36*
X147451552Y-94816331D02*
G01*
X147533627Y-94850328D01*
X147533629Y-94850329D01*
X147570813Y-94875175D01*
X147607495Y-94899685D01*
X147670315Y-94962505D01*
X147719672Y-95036373D01*
X147753669Y-95118448D01*
X147771000Y-95205579D01*
X147771000Y-95294421D01*
X147753669Y-95381552D01*
X147719672Y-95463627D01*
X147719671Y-95463629D01*
X147670314Y-95537496D01*
X147607496Y-95600314D01*
X147533629Y-95649671D01*
X147533628Y-95649672D01*
X147533627Y-95649672D01*
X147451552Y-95683669D01*
X147364421Y-95701000D01*
X147275579Y-95701000D01*
X147188448Y-95683669D01*
X147106373Y-95649672D01*
X147106372Y-95649672D01*
X147106371Y-95649671D01*
X147032504Y-95600314D01*
X146969686Y-95537496D01*
X146920329Y-95463629D01*
X146920328Y-95463627D01*
X146886331Y-95381552D01*
X146869000Y-95294421D01*
X146869000Y-95205579D01*
X146886331Y-95118448D01*
X146920328Y-95036373D01*
X146969685Y-94962505D01*
X147032505Y-94899685D01*
X147069187Y-94875175D01*
X147106371Y-94850329D01*
X147106373Y-94850328D01*
X147188448Y-94816331D01*
X147275579Y-94799000D01*
X147364421Y-94799000D01*
X147451552Y-94816331D01*
G37*
G36*
X149991552Y-94816331D02*
G01*
X150073627Y-94850328D01*
X150073629Y-94850329D01*
X150110813Y-94875175D01*
X150147495Y-94899685D01*
X150210315Y-94962505D01*
X150259672Y-95036373D01*
X150293669Y-95118448D01*
X150311000Y-95205579D01*
X150311000Y-95294421D01*
X150293669Y-95381552D01*
X150259672Y-95463627D01*
X150259671Y-95463629D01*
X150210314Y-95537496D01*
X150147496Y-95600314D01*
X150073629Y-95649671D01*
X150073628Y-95649672D01*
X150073627Y-95649672D01*
X149991552Y-95683669D01*
X149904421Y-95701000D01*
X149815579Y-95701000D01*
X149728448Y-95683669D01*
X149646373Y-95649672D01*
X149646372Y-95649672D01*
X149646371Y-95649671D01*
X149572504Y-95600314D01*
X149509686Y-95537496D01*
X149460329Y-95463629D01*
X149460328Y-95463627D01*
X149426331Y-95381552D01*
X149409000Y-95294421D01*
X149409000Y-95205579D01*
X149426331Y-95118448D01*
X149460328Y-95036373D01*
X149509685Y-94962505D01*
X149572505Y-94899685D01*
X149609187Y-94875175D01*
X149646371Y-94850329D01*
X149646373Y-94850328D01*
X149728448Y-94816331D01*
X149815579Y-94799000D01*
X149904421Y-94799000D01*
X149991552Y-94816331D01*
G37*
G36*
X130941552Y-94816331D02*
G01*
X131023627Y-94850328D01*
X131023629Y-94850329D01*
X131060813Y-94875175D01*
X131097495Y-94899685D01*
X131160315Y-94962505D01*
X131209672Y-95036373D01*
X131243669Y-95118448D01*
X131261000Y-95205579D01*
X131261000Y-95294421D01*
X131243669Y-95381552D01*
X131209672Y-95463627D01*
X131209671Y-95463629D01*
X131160314Y-95537496D01*
X131097496Y-95600314D01*
X131023629Y-95649671D01*
X131023628Y-95649672D01*
X131023627Y-95649672D01*
X130941552Y-95683669D01*
X130854421Y-95701000D01*
X130765579Y-95701000D01*
X130678448Y-95683669D01*
X130596373Y-95649672D01*
X130596372Y-95649672D01*
X130596371Y-95649671D01*
X130522504Y-95600314D01*
X130459686Y-95537496D01*
X130410329Y-95463629D01*
X130410328Y-95463627D01*
X130376331Y-95381552D01*
X130359000Y-95294421D01*
X130359000Y-95205579D01*
X130376331Y-95118448D01*
X130410328Y-95036373D01*
X130459685Y-94962505D01*
X130522505Y-94899685D01*
X130559187Y-94875175D01*
X130596371Y-94850329D01*
X130596373Y-94850328D01*
X130678448Y-94816331D01*
X130765579Y-94799000D01*
X130854421Y-94799000D01*
X130941552Y-94816331D01*
G37*
G36*
X110447143Y-93232087D02*
G01*
X110603838Y-93296992D01*
X110744853Y-93391215D01*
X110864785Y-93511147D01*
X110959008Y-93652162D01*
X111023913Y-93808857D01*
X111057000Y-93975198D01*
X111057000Y-94144802D01*
X111023913Y-94311143D01*
X110959008Y-94467838D01*
X110864785Y-94608853D01*
X110744853Y-94728785D01*
X110603838Y-94823008D01*
X110447143Y-94887913D01*
X110280802Y-94921000D01*
X110111198Y-94921000D01*
X109944857Y-94887913D01*
X109788162Y-94823008D01*
X109647147Y-94728785D01*
X109527215Y-94608853D01*
X109432992Y-94467838D01*
X109368087Y-94311143D01*
X109335000Y-94144802D01*
X109335000Y-93975198D01*
X109368087Y-93808857D01*
X109432992Y-93652162D01*
X109527215Y-93511147D01*
X109647147Y-93391215D01*
X109788162Y-93296992D01*
X109944857Y-93232087D01*
X110111198Y-93199000D01*
X110280802Y-93199000D01*
X110447143Y-93232087D01*
G37*
G36*
X99191552Y-93546331D02*
G01*
X99273627Y-93580328D01*
X99273629Y-93580329D01*
X99310813Y-93605175D01*
X99347495Y-93629685D01*
X99410315Y-93692505D01*
X99459672Y-93766373D01*
X99493669Y-93848448D01*
X99511000Y-93935579D01*
X99511000Y-94024421D01*
X99493669Y-94111552D01*
X99479896Y-94144802D01*
X99459671Y-94193629D01*
X99410314Y-94267496D01*
X99347496Y-94330314D01*
X99273629Y-94379671D01*
X99273628Y-94379672D01*
X99273627Y-94379672D01*
X99191552Y-94413669D01*
X99104421Y-94431000D01*
X99015579Y-94431000D01*
X98928448Y-94413669D01*
X98846373Y-94379672D01*
X98846372Y-94379672D01*
X98846371Y-94379671D01*
X98772504Y-94330314D01*
X98709686Y-94267496D01*
X98660329Y-94193629D01*
X98640104Y-94144802D01*
X98626331Y-94111552D01*
X98609000Y-94024421D01*
X98609000Y-93935579D01*
X98626331Y-93848448D01*
X98660328Y-93766373D01*
X98709685Y-93692505D01*
X98772505Y-93629685D01*
X98809187Y-93605175D01*
X98846371Y-93580329D01*
X98846373Y-93580328D01*
X98928448Y-93546331D01*
X99015579Y-93529000D01*
X99104421Y-93529000D01*
X99191552Y-93546331D01*
G37*
G36*
X175391552Y-93546331D02*
G01*
X175473627Y-93580328D01*
X175473629Y-93580329D01*
X175510813Y-93605175D01*
X175547495Y-93629685D01*
X175610315Y-93692505D01*
X175659672Y-93766373D01*
X175693669Y-93848448D01*
X175711000Y-93935579D01*
X175711000Y-94024421D01*
X175693669Y-94111552D01*
X175679896Y-94144802D01*
X175659671Y-94193629D01*
X175610314Y-94267496D01*
X175547496Y-94330314D01*
X175473629Y-94379671D01*
X175473628Y-94379672D01*
X175473627Y-94379672D01*
X175391552Y-94413669D01*
X175304421Y-94431000D01*
X175215579Y-94431000D01*
X175128448Y-94413669D01*
X175046373Y-94379672D01*
X175046372Y-94379672D01*
X175046371Y-94379671D01*
X174972504Y-94330314D01*
X174909686Y-94267496D01*
X174860329Y-94193629D01*
X174840104Y-94144802D01*
X174826331Y-94111552D01*
X174809000Y-94024421D01*
X174809000Y-93935579D01*
X174826331Y-93848448D01*
X174860328Y-93766373D01*
X174909685Y-93692505D01*
X174972505Y-93629685D01*
X175009187Y-93605175D01*
X175046371Y-93580329D01*
X175046373Y-93580328D01*
X175128448Y-93546331D01*
X175215579Y-93529000D01*
X175304421Y-93529000D01*
X175391552Y-93546331D01*
G37*
G36*
X143877512Y-92067927D02*
G01*
X144026812Y-92097624D01*
X144190784Y-92165544D01*
X144338354Y-92264147D01*
X144463853Y-92389646D01*
X144562456Y-92537216D01*
X144630376Y-92701188D01*
X144640964Y-92754421D01*
X144665000Y-92875258D01*
X144665000Y-93052742D01*
X144660073Y-93077512D01*
X144630376Y-93226812D01*
X144562456Y-93390784D01*
X144463853Y-93538354D01*
X144338354Y-93663853D01*
X144190784Y-93762456D01*
X144026812Y-93830376D01*
X143877512Y-93860073D01*
X143852742Y-93865000D01*
X143675258Y-93865000D01*
X143650488Y-93860073D01*
X143501188Y-93830376D01*
X143337216Y-93762456D01*
X143189646Y-93663853D01*
X143064147Y-93538354D01*
X142965544Y-93390784D01*
X142897624Y-93226812D01*
X142867927Y-93077512D01*
X142863000Y-93052742D01*
X142863000Y-92875258D01*
X142887036Y-92754421D01*
X142897624Y-92701188D01*
X142965544Y-92537216D01*
X143064147Y-92389646D01*
X143189646Y-92264147D01*
X143337216Y-92165544D01*
X143501188Y-92097624D01*
X143650488Y-92067927D01*
X143675258Y-92063000D01*
X143852742Y-92063000D01*
X143877512Y-92067927D01*
G37*
G36*
X138797512Y-92067927D02*
G01*
X138946812Y-92097624D01*
X139110784Y-92165544D01*
X139258354Y-92264147D01*
X139383853Y-92389646D01*
X139482456Y-92537216D01*
X139550376Y-92701188D01*
X139560964Y-92754421D01*
X139585000Y-92875258D01*
X139585000Y-93052742D01*
X139580073Y-93077512D01*
X139550376Y-93226812D01*
X139482456Y-93390784D01*
X139383853Y-93538354D01*
X139258354Y-93663853D01*
X139110784Y-93762456D01*
X138946812Y-93830376D01*
X138797512Y-93860073D01*
X138772742Y-93865000D01*
X138595258Y-93865000D01*
X138570488Y-93860073D01*
X138421188Y-93830376D01*
X138257216Y-93762456D01*
X138109646Y-93663853D01*
X137984147Y-93538354D01*
X137885544Y-93390784D01*
X137817624Y-93226812D01*
X137787927Y-93077512D01*
X137783000Y-93052742D01*
X137783000Y-92875258D01*
X137807036Y-92754421D01*
X137817624Y-92701188D01*
X137885544Y-92537216D01*
X137984147Y-92389646D01*
X138109646Y-92264147D01*
X138257216Y-92165544D01*
X138421188Y-92097624D01*
X138570488Y-92067927D01*
X138595258Y-92063000D01*
X138772742Y-92063000D01*
X138797512Y-92067927D01*
G37*
G36*
X130941552Y-92276331D02*
G01*
X131023627Y-92310328D01*
X131023629Y-92310329D01*
X131060813Y-92335175D01*
X131097495Y-92359685D01*
X131160315Y-92422505D01*
X131209672Y-92496373D01*
X131243669Y-92578448D01*
X131261000Y-92665579D01*
X131261000Y-92754421D01*
X131243669Y-92841552D01*
X131209672Y-92923627D01*
X131209671Y-92923629D01*
X131160314Y-92997496D01*
X131097496Y-93060314D01*
X131023629Y-93109671D01*
X131023628Y-93109672D01*
X131023627Y-93109672D01*
X130941552Y-93143669D01*
X130854421Y-93161000D01*
X130765579Y-93161000D01*
X130678448Y-93143669D01*
X130596373Y-93109672D01*
X130596372Y-93109672D01*
X130596371Y-93109671D01*
X130522504Y-93060314D01*
X130459686Y-92997496D01*
X130410329Y-92923629D01*
X130410328Y-92923627D01*
X130376331Y-92841552D01*
X130359000Y-92754421D01*
X130359000Y-92665579D01*
X130376331Y-92578448D01*
X130410328Y-92496373D01*
X130459685Y-92422505D01*
X130522505Y-92359685D01*
X130559187Y-92335175D01*
X130596371Y-92310329D01*
X130596373Y-92310328D01*
X130678448Y-92276331D01*
X130765579Y-92259000D01*
X130854421Y-92259000D01*
X130941552Y-92276331D01*
G37*
G36*
X152531552Y-92276331D02*
G01*
X152613627Y-92310328D01*
X152613629Y-92310329D01*
X152650813Y-92335175D01*
X152687495Y-92359685D01*
X152750315Y-92422505D01*
X152799672Y-92496373D01*
X152833669Y-92578448D01*
X152851000Y-92665579D01*
X152851000Y-92754421D01*
X152833669Y-92841552D01*
X152799672Y-92923627D01*
X152799671Y-92923629D01*
X152750314Y-92997496D01*
X152687496Y-93060314D01*
X152613629Y-93109671D01*
X152613628Y-93109672D01*
X152613627Y-93109672D01*
X152531552Y-93143669D01*
X152444421Y-93161000D01*
X152355579Y-93161000D01*
X152268448Y-93143669D01*
X152186373Y-93109672D01*
X152186372Y-93109672D01*
X152186371Y-93109671D01*
X152112504Y-93060314D01*
X152049686Y-92997496D01*
X152000329Y-92923629D01*
X152000328Y-92923627D01*
X151966331Y-92841552D01*
X151949000Y-92754421D01*
X151949000Y-92665579D01*
X151966331Y-92578448D01*
X152000328Y-92496373D01*
X152049685Y-92422505D01*
X152112505Y-92359685D01*
X152149187Y-92335175D01*
X152186371Y-92310329D01*
X152186373Y-92310328D01*
X152268448Y-92276331D01*
X152355579Y-92259000D01*
X152444421Y-92259000D01*
X152531552Y-92276331D01*
G37*
G36*
X128401552Y-92276331D02*
G01*
X128483627Y-92310328D01*
X128483629Y-92310329D01*
X128520813Y-92335175D01*
X128557495Y-92359685D01*
X128620315Y-92422505D01*
X128669672Y-92496373D01*
X128703669Y-92578448D01*
X128721000Y-92665579D01*
X128721000Y-92754421D01*
X128703669Y-92841552D01*
X128669672Y-92923627D01*
X128669671Y-92923629D01*
X128620314Y-92997496D01*
X128557496Y-93060314D01*
X128483629Y-93109671D01*
X128483628Y-93109672D01*
X128483627Y-93109672D01*
X128401552Y-93143669D01*
X128314421Y-93161000D01*
X128225579Y-93161000D01*
X128138448Y-93143669D01*
X128056373Y-93109672D01*
X128056372Y-93109672D01*
X128056371Y-93109671D01*
X127982504Y-93060314D01*
X127919686Y-92997496D01*
X127870329Y-92923629D01*
X127870328Y-92923627D01*
X127836331Y-92841552D01*
X127819000Y-92754421D01*
X127819000Y-92665579D01*
X127836331Y-92578448D01*
X127870328Y-92496373D01*
X127919685Y-92422505D01*
X127982505Y-92359685D01*
X128019187Y-92335175D01*
X128056371Y-92310329D01*
X128056373Y-92310328D01*
X128138448Y-92276331D01*
X128225579Y-92259000D01*
X128314421Y-92259000D01*
X128401552Y-92276331D01*
G37*
G36*
X149991552Y-92276331D02*
G01*
X150073627Y-92310328D01*
X150073629Y-92310329D01*
X150110813Y-92335175D01*
X150147495Y-92359685D01*
X150210315Y-92422505D01*
X150259672Y-92496373D01*
X150293669Y-92578448D01*
X150311000Y-92665579D01*
X150311000Y-92754421D01*
X150293669Y-92841552D01*
X150259672Y-92923627D01*
X150259671Y-92923629D01*
X150210314Y-92997496D01*
X150147496Y-93060314D01*
X150073629Y-93109671D01*
X150073628Y-93109672D01*
X150073627Y-93109672D01*
X149991552Y-93143669D01*
X149904421Y-93161000D01*
X149815579Y-93161000D01*
X149728448Y-93143669D01*
X149646373Y-93109672D01*
X149646372Y-93109672D01*
X149646371Y-93109671D01*
X149572504Y-93060314D01*
X149509686Y-92997496D01*
X149460329Y-92923629D01*
X149460328Y-92923627D01*
X149426331Y-92841552D01*
X149409000Y-92754421D01*
X149409000Y-92665579D01*
X149426331Y-92578448D01*
X149460328Y-92496373D01*
X149509685Y-92422505D01*
X149572505Y-92359685D01*
X149609187Y-92335175D01*
X149646371Y-92310329D01*
X149646373Y-92310328D01*
X149728448Y-92276331D01*
X149815579Y-92259000D01*
X149904421Y-92259000D01*
X149991552Y-92276331D01*
G37*
G36*
X175391552Y-91006331D02*
G01*
X175473627Y-91040328D01*
X175473629Y-91040329D01*
X175510813Y-91065175D01*
X175547495Y-91089685D01*
X175610315Y-91152505D01*
X175659672Y-91226373D01*
X175693669Y-91308448D01*
X175711000Y-91395579D01*
X175711000Y-91484421D01*
X175693669Y-91571552D01*
X175659672Y-91653627D01*
X175659671Y-91653629D01*
X175610314Y-91727496D01*
X175547496Y-91790314D01*
X175473629Y-91839671D01*
X175473628Y-91839672D01*
X175473627Y-91839672D01*
X175391552Y-91873669D01*
X175304421Y-91891000D01*
X175215579Y-91891000D01*
X175128448Y-91873669D01*
X175046373Y-91839672D01*
X175046372Y-91839672D01*
X175046371Y-91839671D01*
X174972504Y-91790314D01*
X174909686Y-91727496D01*
X174860329Y-91653629D01*
X174860328Y-91653627D01*
X174826331Y-91571552D01*
X174809000Y-91484421D01*
X174809000Y-91395579D01*
X174826331Y-91308448D01*
X174860328Y-91226373D01*
X174909685Y-91152505D01*
X174972505Y-91089685D01*
X175009187Y-91065175D01*
X175046371Y-91040329D01*
X175046373Y-91040328D01*
X175128448Y-91006331D01*
X175215579Y-90989000D01*
X175304421Y-90989000D01*
X175391552Y-91006331D01*
G37*
G36*
X99191552Y-91006331D02*
G01*
X99273627Y-91040328D01*
X99273629Y-91040329D01*
X99310813Y-91065175D01*
X99347495Y-91089685D01*
X99410315Y-91152505D01*
X99459672Y-91226373D01*
X99493669Y-91308448D01*
X99511000Y-91395579D01*
X99511000Y-91484421D01*
X99493669Y-91571552D01*
X99459672Y-91653627D01*
X99459671Y-91653629D01*
X99410314Y-91727496D01*
X99347496Y-91790314D01*
X99273629Y-91839671D01*
X99273628Y-91839672D01*
X99273627Y-91839672D01*
X99191552Y-91873669D01*
X99104421Y-91891000D01*
X99015579Y-91891000D01*
X98928448Y-91873669D01*
X98846373Y-91839672D01*
X98846372Y-91839672D01*
X98846371Y-91839671D01*
X98772504Y-91790314D01*
X98709686Y-91727496D01*
X98660329Y-91653629D01*
X98660328Y-91653627D01*
X98626331Y-91571552D01*
X98609000Y-91484421D01*
X98609000Y-91395579D01*
X98626331Y-91308448D01*
X98660328Y-91226373D01*
X98709685Y-91152505D01*
X98772505Y-91089685D01*
X98809187Y-91065175D01*
X98846371Y-91040329D01*
X98846373Y-91040328D01*
X98928448Y-91006331D01*
X99015579Y-90989000D01*
X99104421Y-90989000D01*
X99191552Y-91006331D01*
G37*
G36*
X141136823Y-89131313D02*
G01*
X141297242Y-89179976D01*
X141428835Y-89250314D01*
X141445078Y-89258996D01*
X141574659Y-89365341D01*
X141681004Y-89494922D01*
X141681005Y-89494924D01*
X141760024Y-89642758D01*
X141808687Y-89803178D01*
X141821000Y-89928197D01*
X141821000Y-90411804D01*
X141808687Y-90536823D01*
X141760024Y-90697242D01*
X141689114Y-90829906D01*
X141681004Y-90845078D01*
X141574659Y-90974659D01*
X141445077Y-91081005D01*
X141297241Y-91160024D01*
X141136822Y-91208687D01*
X140970000Y-91225117D01*
X140803177Y-91208687D01*
X140642758Y-91160024D01*
X140494924Y-91081005D01*
X140494922Y-91081004D01*
X140365341Y-90974659D01*
X140258995Y-90845077D01*
X140179976Y-90697241D01*
X140131313Y-90536822D01*
X140119000Y-90411803D01*
X140119000Y-89928196D01*
X140131313Y-89803177D01*
X140179976Y-89642758D01*
X140258995Y-89494924D01*
X140258996Y-89494922D01*
X140365342Y-89365341D01*
X140494923Y-89258996D01*
X140511166Y-89250314D01*
X140642759Y-89179976D01*
X140803178Y-89131313D01*
X140970000Y-89114883D01*
X141136823Y-89131313D01*
G37*
G36*
X148756823Y-89131313D02*
G01*
X148917242Y-89179976D01*
X149048835Y-89250314D01*
X149065078Y-89258996D01*
X149194659Y-89365341D01*
X149301004Y-89494922D01*
X149301005Y-89494924D01*
X149380024Y-89642758D01*
X149428687Y-89803178D01*
X149441000Y-89928197D01*
X149441000Y-90411804D01*
X149428687Y-90536823D01*
X149380024Y-90697242D01*
X149309114Y-90829906D01*
X149301004Y-90845078D01*
X149194659Y-90974659D01*
X149065077Y-91081005D01*
X148917241Y-91160024D01*
X148756822Y-91208687D01*
X148590000Y-91225117D01*
X148423177Y-91208687D01*
X148262758Y-91160024D01*
X148114924Y-91081005D01*
X148114922Y-91081004D01*
X147985341Y-90974659D01*
X147878995Y-90845077D01*
X147799976Y-90697241D01*
X147751313Y-90536822D01*
X147739000Y-90411803D01*
X147739000Y-89928196D01*
X147751313Y-89803177D01*
X147799976Y-89642758D01*
X147878995Y-89494924D01*
X147878996Y-89494922D01*
X147985342Y-89365341D01*
X148114923Y-89258996D01*
X148131166Y-89250314D01*
X148262759Y-89179976D01*
X148423178Y-89131313D01*
X148590000Y-89114883D01*
X148756823Y-89131313D01*
G37*
G36*
X146216823Y-89131313D02*
G01*
X146377242Y-89179976D01*
X146508835Y-89250314D01*
X146525078Y-89258996D01*
X146654659Y-89365341D01*
X146761004Y-89494922D01*
X146761005Y-89494924D01*
X146840024Y-89642758D01*
X146888687Y-89803178D01*
X146901000Y-89928197D01*
X146901000Y-90411804D01*
X146888687Y-90536823D01*
X146840024Y-90697242D01*
X146769114Y-90829906D01*
X146761004Y-90845078D01*
X146654659Y-90974659D01*
X146525077Y-91081005D01*
X146377241Y-91160024D01*
X146216822Y-91208687D01*
X146050000Y-91225117D01*
X145883177Y-91208687D01*
X145722758Y-91160024D01*
X145574924Y-91081005D01*
X145574922Y-91081004D01*
X145445341Y-90974659D01*
X145338995Y-90845077D01*
X145259976Y-90697241D01*
X145211313Y-90536822D01*
X145199000Y-90411803D01*
X145199000Y-89928196D01*
X145211313Y-89803177D01*
X145259976Y-89642758D01*
X145338995Y-89494924D01*
X145338996Y-89494922D01*
X145445342Y-89365341D01*
X145574923Y-89258996D01*
X145591166Y-89250314D01*
X145722759Y-89179976D01*
X145883178Y-89131313D01*
X146050000Y-89114883D01*
X146216823Y-89131313D01*
G37*
G36*
X143676823Y-89131313D02*
G01*
X143837242Y-89179976D01*
X143968835Y-89250314D01*
X143985078Y-89258996D01*
X144114659Y-89365341D01*
X144221004Y-89494922D01*
X144221005Y-89494924D01*
X144300024Y-89642758D01*
X144348687Y-89803178D01*
X144361000Y-89928197D01*
X144361000Y-90411804D01*
X144348687Y-90536823D01*
X144300024Y-90697242D01*
X144229114Y-90829906D01*
X144221004Y-90845078D01*
X144114659Y-90974659D01*
X143985077Y-91081005D01*
X143837241Y-91160024D01*
X143676822Y-91208687D01*
X143510000Y-91225117D01*
X143343177Y-91208687D01*
X143182758Y-91160024D01*
X143034924Y-91081005D01*
X143034922Y-91081004D01*
X142905341Y-90974659D01*
X142798995Y-90845077D01*
X142719976Y-90697241D01*
X142671313Y-90536822D01*
X142659000Y-90411803D01*
X142659000Y-89928196D01*
X142671313Y-89803177D01*
X142719976Y-89642758D01*
X142798995Y-89494924D01*
X142798996Y-89494922D01*
X142905342Y-89365341D01*
X143034923Y-89258996D01*
X143051166Y-89250314D01*
X143182759Y-89179976D01*
X143343178Y-89131313D01*
X143510000Y-89114883D01*
X143676823Y-89131313D01*
G37*
G36*
X138596823Y-89131313D02*
G01*
X138757242Y-89179976D01*
X138888835Y-89250314D01*
X138905078Y-89258996D01*
X139034659Y-89365341D01*
X139141004Y-89494922D01*
X139141005Y-89494924D01*
X139220024Y-89642758D01*
X139268687Y-89803178D01*
X139281000Y-89928197D01*
X139281000Y-90411804D01*
X139268687Y-90536823D01*
X139220024Y-90697242D01*
X139149114Y-90829906D01*
X139141004Y-90845078D01*
X139034659Y-90974659D01*
X138905077Y-91081005D01*
X138757241Y-91160024D01*
X138596822Y-91208687D01*
X138430000Y-91225117D01*
X138263177Y-91208687D01*
X138102758Y-91160024D01*
X137954924Y-91081005D01*
X137954922Y-91081004D01*
X137825341Y-90974659D01*
X137718995Y-90845077D01*
X137639976Y-90697241D01*
X137591313Y-90536822D01*
X137579000Y-90411803D01*
X137579000Y-89928196D01*
X137591313Y-89803177D01*
X137639976Y-89642758D01*
X137718995Y-89494924D01*
X137718996Y-89494922D01*
X137825342Y-89365341D01*
X137954923Y-89258996D01*
X137971166Y-89250314D01*
X138102759Y-89179976D01*
X138263178Y-89131313D01*
X138430000Y-89114883D01*
X138596823Y-89131313D01*
G37*
G36*
X136056823Y-89131313D02*
G01*
X136217242Y-89179976D01*
X136348835Y-89250314D01*
X136365078Y-89258996D01*
X136494659Y-89365341D01*
X136601004Y-89494922D01*
X136601005Y-89494924D01*
X136680024Y-89642758D01*
X136728687Y-89803178D01*
X136741000Y-89928197D01*
X136741000Y-90411804D01*
X136728687Y-90536823D01*
X136680024Y-90697242D01*
X136609114Y-90829906D01*
X136601004Y-90845078D01*
X136494659Y-90974659D01*
X136365077Y-91081005D01*
X136217241Y-91160024D01*
X136056822Y-91208687D01*
X135890000Y-91225117D01*
X135723177Y-91208687D01*
X135562758Y-91160024D01*
X135414924Y-91081005D01*
X135414922Y-91081004D01*
X135285341Y-90974659D01*
X135178995Y-90845077D01*
X135099976Y-90697241D01*
X135051313Y-90536822D01*
X135039000Y-90411803D01*
X135039000Y-89928196D01*
X135051313Y-89803177D01*
X135099976Y-89642758D01*
X135178995Y-89494924D01*
X135178996Y-89494922D01*
X135285342Y-89365341D01*
X135414923Y-89258996D01*
X135431166Y-89250314D01*
X135562759Y-89179976D01*
X135723178Y-89131313D01*
X135890000Y-89114883D01*
X136056823Y-89131313D01*
G37*
G36*
X133516823Y-89131313D02*
G01*
X133677242Y-89179976D01*
X133808835Y-89250314D01*
X133825078Y-89258996D01*
X133954659Y-89365341D01*
X134061004Y-89494922D01*
X134061005Y-89494924D01*
X134140024Y-89642758D01*
X134188687Y-89803178D01*
X134201000Y-89928197D01*
X134201000Y-90411804D01*
X134188687Y-90536823D01*
X134140024Y-90697242D01*
X134069114Y-90829906D01*
X134061004Y-90845078D01*
X133954659Y-90974659D01*
X133825077Y-91081005D01*
X133677241Y-91160024D01*
X133516822Y-91208687D01*
X133350000Y-91225117D01*
X133183177Y-91208687D01*
X133022758Y-91160024D01*
X132874924Y-91081005D01*
X132874922Y-91081004D01*
X132745341Y-90974659D01*
X132638995Y-90845077D01*
X132559976Y-90697241D01*
X132511313Y-90536822D01*
X132499000Y-90411803D01*
X132499000Y-89928196D01*
X132511313Y-89803177D01*
X132559976Y-89642758D01*
X132638995Y-89494924D01*
X132638996Y-89494922D01*
X132745342Y-89365341D01*
X132874923Y-89258996D01*
X132891166Y-89250314D01*
X133022759Y-89179976D01*
X133183178Y-89131313D01*
X133350000Y-89114883D01*
X133516823Y-89131313D01*
G37*
G36*
X131861000Y-91221000D02*
G01*
X129759000Y-91221000D01*
X129759000Y-89119000D01*
X131861000Y-89119000D01*
X131861000Y-91221000D01*
G37*
G36*
X152531552Y-89736331D02*
G01*
X152613627Y-89770328D01*
X152613629Y-89770329D01*
X152650813Y-89795175D01*
X152687495Y-89819685D01*
X152750315Y-89882505D01*
X152799672Y-89956373D01*
X152833669Y-90038448D01*
X152851000Y-90125579D01*
X152851000Y-90214421D01*
X152833669Y-90301552D01*
X152799672Y-90383627D01*
X152750315Y-90457495D01*
X152687495Y-90520315D01*
X152662786Y-90536825D01*
X152613629Y-90569671D01*
X152613628Y-90569672D01*
X152613627Y-90569672D01*
X152531552Y-90603669D01*
X152444421Y-90621000D01*
X152355579Y-90621000D01*
X152268448Y-90603669D01*
X152186373Y-90569672D01*
X152186372Y-90569672D01*
X152186371Y-90569671D01*
X152137214Y-90536825D01*
X152112505Y-90520315D01*
X152049685Y-90457495D01*
X152000328Y-90383627D01*
X151966331Y-90301552D01*
X151949000Y-90214421D01*
X151949000Y-90125579D01*
X151966331Y-90038448D01*
X152000328Y-89956373D01*
X152049685Y-89882505D01*
X152112505Y-89819685D01*
X152149187Y-89795175D01*
X152186371Y-89770329D01*
X152186373Y-89770328D01*
X152268448Y-89736331D01*
X152355579Y-89719000D01*
X152444421Y-89719000D01*
X152531552Y-89736331D01*
G37*
G36*
X125861552Y-89736331D02*
G01*
X125943627Y-89770328D01*
X125943629Y-89770329D01*
X125980813Y-89795175D01*
X126017495Y-89819685D01*
X126080315Y-89882505D01*
X126129672Y-89956373D01*
X126163669Y-90038448D01*
X126181000Y-90125579D01*
X126181000Y-90214421D01*
X126163669Y-90301552D01*
X126129672Y-90383627D01*
X126080315Y-90457495D01*
X126017495Y-90520315D01*
X125992786Y-90536825D01*
X125943629Y-90569671D01*
X125943628Y-90569672D01*
X125943627Y-90569672D01*
X125861552Y-90603669D01*
X125774421Y-90621000D01*
X125685579Y-90621000D01*
X125598448Y-90603669D01*
X125516373Y-90569672D01*
X125516372Y-90569672D01*
X125516371Y-90569671D01*
X125467214Y-90536825D01*
X125442505Y-90520315D01*
X125379685Y-90457495D01*
X125330328Y-90383627D01*
X125296331Y-90301552D01*
X125279000Y-90214421D01*
X125279000Y-90125579D01*
X125296331Y-90038448D01*
X125330328Y-89956373D01*
X125379685Y-89882505D01*
X125442505Y-89819685D01*
X125479187Y-89795175D01*
X125516371Y-89770329D01*
X125516373Y-89770328D01*
X125598448Y-89736331D01*
X125685579Y-89719000D01*
X125774421Y-89719000D01*
X125861552Y-89736331D01*
G37*
G36*
X128401552Y-89736331D02*
G01*
X128483627Y-89770328D01*
X128483629Y-89770329D01*
X128520813Y-89795175D01*
X128557495Y-89819685D01*
X128620315Y-89882505D01*
X128669672Y-89956373D01*
X128703669Y-90038448D01*
X128721000Y-90125579D01*
X128721000Y-90214421D01*
X128703669Y-90301552D01*
X128669672Y-90383627D01*
X128620315Y-90457495D01*
X128557495Y-90520315D01*
X128532786Y-90536825D01*
X128483629Y-90569671D01*
X128483628Y-90569672D01*
X128483627Y-90569672D01*
X128401552Y-90603669D01*
X128314421Y-90621000D01*
X128225579Y-90621000D01*
X128138448Y-90603669D01*
X128056373Y-90569672D01*
X128056372Y-90569672D01*
X128056371Y-90569671D01*
X128007214Y-90536825D01*
X127982505Y-90520315D01*
X127919685Y-90457495D01*
X127870328Y-90383627D01*
X127836331Y-90301552D01*
X127819000Y-90214421D01*
X127819000Y-90125579D01*
X127836331Y-90038448D01*
X127870328Y-89956373D01*
X127919685Y-89882505D01*
X127982505Y-89819685D01*
X128019187Y-89795175D01*
X128056371Y-89770329D01*
X128056373Y-89770328D01*
X128138448Y-89736331D01*
X128225579Y-89719000D01*
X128314421Y-89719000D01*
X128401552Y-89736331D01*
G37*
G36*
X107555512Y-87749927D02*
G01*
X107704812Y-87779624D01*
X107868784Y-87847544D01*
X108016354Y-87946147D01*
X108141853Y-88071646D01*
X108240456Y-88219216D01*
X108308376Y-88383188D01*
X108331676Y-88500328D01*
X108341494Y-88549685D01*
X108343000Y-88557259D01*
X108343000Y-88734741D01*
X108308376Y-88908812D01*
X108240456Y-89072784D01*
X108141853Y-89220354D01*
X108016354Y-89345853D01*
X107868784Y-89444456D01*
X107704812Y-89512376D01*
X107555512Y-89542073D01*
X107530742Y-89547000D01*
X107353258Y-89547000D01*
X107328488Y-89542073D01*
X107179188Y-89512376D01*
X107015216Y-89444456D01*
X106867646Y-89345853D01*
X106742147Y-89220354D01*
X106643544Y-89072784D01*
X106575624Y-88908812D01*
X106541000Y-88734741D01*
X106541000Y-88557259D01*
X106542507Y-88549685D01*
X106552324Y-88500328D01*
X106575624Y-88383188D01*
X106643544Y-88219216D01*
X106742147Y-88071646D01*
X106867646Y-87946147D01*
X107015216Y-87847544D01*
X107179188Y-87779624D01*
X107328488Y-87749927D01*
X107353258Y-87745000D01*
X107530742Y-87745000D01*
X107555512Y-87749927D01*
G37*
G36*
X102475512Y-87749927D02*
G01*
X102624812Y-87779624D01*
X102788784Y-87847544D01*
X102936354Y-87946147D01*
X103061853Y-88071646D01*
X103160456Y-88219216D01*
X103228376Y-88383188D01*
X103251676Y-88500328D01*
X103261494Y-88549685D01*
X103263000Y-88557259D01*
X103263000Y-88734741D01*
X103228376Y-88908812D01*
X103160456Y-89072784D01*
X103061853Y-89220354D01*
X102936354Y-89345853D01*
X102788784Y-89444456D01*
X102624812Y-89512376D01*
X102475512Y-89542073D01*
X102450742Y-89547000D01*
X102273258Y-89547000D01*
X102248488Y-89542073D01*
X102099188Y-89512376D01*
X101935216Y-89444456D01*
X101787646Y-89345853D01*
X101662147Y-89220354D01*
X101563544Y-89072784D01*
X101495624Y-88908812D01*
X101461000Y-88734741D01*
X101461000Y-88557259D01*
X101462507Y-88549685D01*
X101472324Y-88500328D01*
X101495624Y-88383188D01*
X101563544Y-88219216D01*
X101662147Y-88071646D01*
X101787646Y-87946147D01*
X101935216Y-87847544D01*
X102099188Y-87779624D01*
X102248488Y-87749927D01*
X102273258Y-87745000D01*
X102450742Y-87745000D01*
X102475512Y-87749927D01*
G37*
G36*
X110324012Y-87749927D02*
G01*
X110473312Y-87779624D01*
X110637284Y-87847544D01*
X110784854Y-87946147D01*
X110910353Y-88071646D01*
X111008956Y-88219216D01*
X111076876Y-88383188D01*
X111100176Y-88500328D01*
X111109994Y-88549685D01*
X111111500Y-88557259D01*
X111111500Y-88734741D01*
X111076876Y-88908812D01*
X111008956Y-89072784D01*
X110910353Y-89220354D01*
X110784854Y-89345853D01*
X110637284Y-89444456D01*
X110473312Y-89512376D01*
X110324012Y-89542073D01*
X110299242Y-89547000D01*
X110121758Y-89547000D01*
X110096988Y-89542073D01*
X109947688Y-89512376D01*
X109783716Y-89444456D01*
X109636146Y-89345853D01*
X109510647Y-89220354D01*
X109412044Y-89072784D01*
X109344124Y-88908812D01*
X109309500Y-88734741D01*
X109309500Y-88557259D01*
X109311007Y-88549685D01*
X109320824Y-88500328D01*
X109344124Y-88383188D01*
X109412044Y-88219216D01*
X109510647Y-88071646D01*
X109636146Y-87946147D01*
X109783716Y-87847544D01*
X109947688Y-87779624D01*
X110096988Y-87749927D01*
X110121758Y-87745000D01*
X110299242Y-87745000D01*
X110324012Y-87749927D01*
G37*
G36*
X115404012Y-87749927D02*
G01*
X115553312Y-87779624D01*
X115717284Y-87847544D01*
X115864854Y-87946147D01*
X115990353Y-88071646D01*
X116088956Y-88219216D01*
X116156876Y-88383188D01*
X116180176Y-88500328D01*
X116189994Y-88549685D01*
X116191500Y-88557259D01*
X116191500Y-88734741D01*
X116156876Y-88908812D01*
X116088956Y-89072784D01*
X115990353Y-89220354D01*
X115864854Y-89345853D01*
X115717284Y-89444456D01*
X115553312Y-89512376D01*
X115404012Y-89542073D01*
X115379242Y-89547000D01*
X115201758Y-89547000D01*
X115176988Y-89542073D01*
X115027688Y-89512376D01*
X114863716Y-89444456D01*
X114716146Y-89345853D01*
X114590647Y-89220354D01*
X114492044Y-89072784D01*
X114424124Y-88908812D01*
X114389500Y-88734741D01*
X114389500Y-88557259D01*
X114391007Y-88549685D01*
X114400824Y-88500328D01*
X114424124Y-88383188D01*
X114492044Y-88219216D01*
X114590647Y-88071646D01*
X114716146Y-87946147D01*
X114863716Y-87847544D01*
X115027688Y-87779624D01*
X115176988Y-87749927D01*
X115201758Y-87745000D01*
X115379242Y-87745000D01*
X115404012Y-87749927D01*
G37*
G36*
X99191552Y-88466331D02*
G01*
X99273627Y-88500328D01*
X99273629Y-88500329D01*
X99310813Y-88525175D01*
X99347495Y-88549685D01*
X99410315Y-88612505D01*
X99459672Y-88686373D01*
X99493669Y-88768448D01*
X99511000Y-88855579D01*
X99511000Y-88944421D01*
X99493669Y-89031552D01*
X99459672Y-89113627D01*
X99415340Y-89179975D01*
X99410314Y-89187496D01*
X99347496Y-89250314D01*
X99273629Y-89299671D01*
X99273628Y-89299672D01*
X99273627Y-89299672D01*
X99191552Y-89333669D01*
X99104421Y-89351000D01*
X99015579Y-89351000D01*
X98928448Y-89333669D01*
X98846373Y-89299672D01*
X98846372Y-89299672D01*
X98846371Y-89299671D01*
X98772504Y-89250314D01*
X98709686Y-89187496D01*
X98704661Y-89179975D01*
X98660328Y-89113627D01*
X98626331Y-89031552D01*
X98609000Y-88944421D01*
X98609000Y-88855579D01*
X98626331Y-88768448D01*
X98660328Y-88686373D01*
X98709685Y-88612505D01*
X98772505Y-88549685D01*
X98809187Y-88525175D01*
X98846371Y-88500329D01*
X98846373Y-88500328D01*
X98928448Y-88466331D01*
X99015579Y-88449000D01*
X99104421Y-88449000D01*
X99191552Y-88466331D01*
G37*
G36*
X175391552Y-88466331D02*
G01*
X175473627Y-88500328D01*
X175473629Y-88500329D01*
X175510813Y-88525175D01*
X175547495Y-88549685D01*
X175610315Y-88612505D01*
X175659672Y-88686373D01*
X175693669Y-88768448D01*
X175711000Y-88855579D01*
X175711000Y-88944421D01*
X175693669Y-89031552D01*
X175659672Y-89113627D01*
X175615340Y-89179975D01*
X175610314Y-89187496D01*
X175547496Y-89250314D01*
X175473629Y-89299671D01*
X175473628Y-89299672D01*
X175473627Y-89299672D01*
X175391552Y-89333669D01*
X175304421Y-89351000D01*
X175215579Y-89351000D01*
X175128448Y-89333669D01*
X175046373Y-89299672D01*
X175046372Y-89299672D01*
X175046371Y-89299671D01*
X174972504Y-89250314D01*
X174909686Y-89187496D01*
X174904661Y-89179975D01*
X174860328Y-89113627D01*
X174826331Y-89031552D01*
X174809000Y-88944421D01*
X174809000Y-88855579D01*
X174826331Y-88768448D01*
X174860328Y-88686373D01*
X174909685Y-88612505D01*
X174972505Y-88549685D01*
X175009187Y-88525175D01*
X175046371Y-88500329D01*
X175046373Y-88500328D01*
X175128448Y-88466331D01*
X175215579Y-88449000D01*
X175304421Y-88449000D01*
X175391552Y-88466331D01*
G37*
G36*
X123321552Y-87196331D02*
G01*
X123403627Y-87230328D01*
X123403629Y-87230329D01*
X123440813Y-87255175D01*
X123477495Y-87279685D01*
X123540315Y-87342505D01*
X123589672Y-87416373D01*
X123623669Y-87498448D01*
X123641000Y-87585579D01*
X123641000Y-87674421D01*
X123623669Y-87761552D01*
X123589672Y-87843627D01*
X123589671Y-87843629D01*
X123540314Y-87917496D01*
X123477496Y-87980314D01*
X123403629Y-88029671D01*
X123403628Y-88029672D01*
X123403627Y-88029672D01*
X123321552Y-88063669D01*
X123234421Y-88081000D01*
X123145579Y-88081000D01*
X123058448Y-88063669D01*
X122976373Y-88029672D01*
X122976372Y-88029672D01*
X122976371Y-88029671D01*
X122902504Y-87980314D01*
X122839686Y-87917496D01*
X122790329Y-87843629D01*
X122790328Y-87843627D01*
X122756331Y-87761552D01*
X122739000Y-87674421D01*
X122739000Y-87585579D01*
X122756331Y-87498448D01*
X122790328Y-87416373D01*
X122839685Y-87342505D01*
X122902505Y-87279685D01*
X122939187Y-87255175D01*
X122976371Y-87230329D01*
X122976373Y-87230328D01*
X123058448Y-87196331D01*
X123145579Y-87179000D01*
X123234421Y-87179000D01*
X123321552Y-87196331D01*
G37*
G36*
X149991552Y-87196331D02*
G01*
X150073627Y-87230328D01*
X150073629Y-87230329D01*
X150110813Y-87255175D01*
X150147495Y-87279685D01*
X150210315Y-87342505D01*
X150259672Y-87416373D01*
X150293669Y-87498448D01*
X150311000Y-87585579D01*
X150311000Y-87674421D01*
X150293669Y-87761552D01*
X150259672Y-87843627D01*
X150259671Y-87843629D01*
X150210314Y-87917496D01*
X150147496Y-87980314D01*
X150073629Y-88029671D01*
X150073628Y-88029672D01*
X150073627Y-88029672D01*
X149991552Y-88063669D01*
X149904421Y-88081000D01*
X149815579Y-88081000D01*
X149728448Y-88063669D01*
X149646373Y-88029672D01*
X149646372Y-88029672D01*
X149646371Y-88029671D01*
X149572504Y-87980314D01*
X149509686Y-87917496D01*
X149460329Y-87843629D01*
X149460328Y-87843627D01*
X149426331Y-87761552D01*
X149409000Y-87674421D01*
X149409000Y-87585579D01*
X149426331Y-87498448D01*
X149460328Y-87416373D01*
X149509685Y-87342505D01*
X149572505Y-87279685D01*
X149609187Y-87255175D01*
X149646371Y-87230329D01*
X149646373Y-87230328D01*
X149728448Y-87196331D01*
X149815579Y-87179000D01*
X149904421Y-87179000D01*
X149991552Y-87196331D01*
G37*
G36*
X130941552Y-87196331D02*
G01*
X131023627Y-87230328D01*
X131023629Y-87230329D01*
X131060813Y-87255175D01*
X131097495Y-87279685D01*
X131160315Y-87342505D01*
X131209672Y-87416373D01*
X131243669Y-87498448D01*
X131261000Y-87585579D01*
X131261000Y-87674421D01*
X131243669Y-87761552D01*
X131209672Y-87843627D01*
X131209671Y-87843629D01*
X131160314Y-87917496D01*
X131097496Y-87980314D01*
X131023629Y-88029671D01*
X131023628Y-88029672D01*
X131023627Y-88029672D01*
X130941552Y-88063669D01*
X130854421Y-88081000D01*
X130765579Y-88081000D01*
X130678448Y-88063669D01*
X130596373Y-88029672D01*
X130596372Y-88029672D01*
X130596371Y-88029671D01*
X130522504Y-87980314D01*
X130459686Y-87917496D01*
X130410329Y-87843629D01*
X130410328Y-87843627D01*
X130376331Y-87761552D01*
X130359000Y-87674421D01*
X130359000Y-87585579D01*
X130376331Y-87498448D01*
X130410328Y-87416373D01*
X130459685Y-87342505D01*
X130522505Y-87279685D01*
X130559187Y-87255175D01*
X130596371Y-87230329D01*
X130596373Y-87230328D01*
X130678448Y-87196331D01*
X130765579Y-87179000D01*
X130854421Y-87179000D01*
X130941552Y-87196331D01*
G37*
G36*
X133481552Y-87196331D02*
G01*
X133563627Y-87230328D01*
X133563629Y-87230329D01*
X133600813Y-87255175D01*
X133637495Y-87279685D01*
X133700315Y-87342505D01*
X133749672Y-87416373D01*
X133783669Y-87498448D01*
X133801000Y-87585579D01*
X133801000Y-87674421D01*
X133783669Y-87761552D01*
X133749672Y-87843627D01*
X133749671Y-87843629D01*
X133700314Y-87917496D01*
X133637496Y-87980314D01*
X133563629Y-88029671D01*
X133563628Y-88029672D01*
X133563627Y-88029672D01*
X133481552Y-88063669D01*
X133394421Y-88081000D01*
X133305579Y-88081000D01*
X133218448Y-88063669D01*
X133136373Y-88029672D01*
X133136372Y-88029672D01*
X133136371Y-88029671D01*
X133062504Y-87980314D01*
X132999686Y-87917496D01*
X132950329Y-87843629D01*
X132950328Y-87843627D01*
X132916331Y-87761552D01*
X132899000Y-87674421D01*
X132899000Y-87585579D01*
X132916331Y-87498448D01*
X132950328Y-87416373D01*
X132999685Y-87342505D01*
X133062505Y-87279685D01*
X133099187Y-87255175D01*
X133136371Y-87230329D01*
X133136373Y-87230328D01*
X133218448Y-87196331D01*
X133305579Y-87179000D01*
X133394421Y-87179000D01*
X133481552Y-87196331D01*
G37*
G36*
X128401552Y-87196331D02*
G01*
X128483627Y-87230328D01*
X128483629Y-87230329D01*
X128520813Y-87255175D01*
X128557495Y-87279685D01*
X128620315Y-87342505D01*
X128669672Y-87416373D01*
X128703669Y-87498448D01*
X128721000Y-87585579D01*
X128721000Y-87674421D01*
X128703669Y-87761552D01*
X128669672Y-87843627D01*
X128669671Y-87843629D01*
X128620314Y-87917496D01*
X128557496Y-87980314D01*
X128483629Y-88029671D01*
X128483628Y-88029672D01*
X128483627Y-88029672D01*
X128401552Y-88063669D01*
X128314421Y-88081000D01*
X128225579Y-88081000D01*
X128138448Y-88063669D01*
X128056373Y-88029672D01*
X128056372Y-88029672D01*
X128056371Y-88029671D01*
X127982504Y-87980314D01*
X127919686Y-87917496D01*
X127870329Y-87843629D01*
X127870328Y-87843627D01*
X127836331Y-87761552D01*
X127819000Y-87674421D01*
X127819000Y-87585579D01*
X127836331Y-87498448D01*
X127870328Y-87416373D01*
X127919685Y-87342505D01*
X127982505Y-87279685D01*
X128019187Y-87255175D01*
X128056371Y-87230329D01*
X128056373Y-87230328D01*
X128138448Y-87196331D01*
X128225579Y-87179000D01*
X128314421Y-87179000D01*
X128401552Y-87196331D01*
G37*
G36*
X125861552Y-87196331D02*
G01*
X125943627Y-87230328D01*
X125943629Y-87230329D01*
X125980813Y-87255175D01*
X126017495Y-87279685D01*
X126080315Y-87342505D01*
X126129672Y-87416373D01*
X126163669Y-87498448D01*
X126181000Y-87585579D01*
X126181000Y-87674421D01*
X126163669Y-87761552D01*
X126129672Y-87843627D01*
X126129671Y-87843629D01*
X126080314Y-87917496D01*
X126017496Y-87980314D01*
X125943629Y-88029671D01*
X125943628Y-88029672D01*
X125943627Y-88029672D01*
X125861552Y-88063669D01*
X125774421Y-88081000D01*
X125685579Y-88081000D01*
X125598448Y-88063669D01*
X125516373Y-88029672D01*
X125516372Y-88029672D01*
X125516371Y-88029671D01*
X125442504Y-87980314D01*
X125379686Y-87917496D01*
X125330329Y-87843629D01*
X125330328Y-87843627D01*
X125296331Y-87761552D01*
X125279000Y-87674421D01*
X125279000Y-87585579D01*
X125296331Y-87498448D01*
X125330328Y-87416373D01*
X125379685Y-87342505D01*
X125442505Y-87279685D01*
X125479187Y-87255175D01*
X125516371Y-87230329D01*
X125516373Y-87230328D01*
X125598448Y-87196331D01*
X125685579Y-87179000D01*
X125774421Y-87179000D01*
X125861552Y-87196331D01*
G37*
G36*
X152531552Y-87196331D02*
G01*
X152613627Y-87230328D01*
X152613629Y-87230329D01*
X152650813Y-87255175D01*
X152687495Y-87279685D01*
X152750315Y-87342505D01*
X152799672Y-87416373D01*
X152833669Y-87498448D01*
X152851000Y-87585579D01*
X152851000Y-87674421D01*
X152833669Y-87761552D01*
X152799672Y-87843627D01*
X152799671Y-87843629D01*
X152750314Y-87917496D01*
X152687496Y-87980314D01*
X152613629Y-88029671D01*
X152613628Y-88029672D01*
X152613627Y-88029672D01*
X152531552Y-88063669D01*
X152444421Y-88081000D01*
X152355579Y-88081000D01*
X152268448Y-88063669D01*
X152186373Y-88029672D01*
X152186372Y-88029672D01*
X152186371Y-88029671D01*
X152112504Y-87980314D01*
X152049686Y-87917496D01*
X152000329Y-87843629D01*
X152000328Y-87843627D01*
X151966331Y-87761552D01*
X151949000Y-87674421D01*
X151949000Y-87585579D01*
X151966331Y-87498448D01*
X152000328Y-87416373D01*
X152049685Y-87342505D01*
X152112505Y-87279685D01*
X152149187Y-87255175D01*
X152186371Y-87230329D01*
X152186373Y-87230328D01*
X152268448Y-87196331D01*
X152355579Y-87179000D01*
X152444421Y-87179000D01*
X152531552Y-87196331D01*
G37*
G36*
X169366564Y-85349389D02*
G01*
X169557833Y-85428615D01*
X169557835Y-85428616D01*
X169729973Y-85543635D01*
X169876365Y-85690027D01*
X169979345Y-85844147D01*
X169991385Y-85862167D01*
X170070611Y-86053436D01*
X170111000Y-86256484D01*
X170111000Y-86463516D01*
X170070611Y-86666564D01*
X170010784Y-86811000D01*
X169991384Y-86857835D01*
X169876365Y-87029973D01*
X169729973Y-87176365D01*
X169557835Y-87291384D01*
X169557834Y-87291385D01*
X169557833Y-87291385D01*
X169366564Y-87370611D01*
X169163516Y-87411000D01*
X168956484Y-87411000D01*
X168753436Y-87370611D01*
X168562167Y-87291385D01*
X168562166Y-87291385D01*
X168562165Y-87291384D01*
X168390027Y-87176365D01*
X168243635Y-87029973D01*
X168128616Y-86857835D01*
X168109216Y-86811000D01*
X168049389Y-86666564D01*
X168009000Y-86463516D01*
X168009000Y-86256484D01*
X168049389Y-86053436D01*
X168128615Y-85862167D01*
X168140656Y-85844147D01*
X168243635Y-85690027D01*
X168390027Y-85543635D01*
X168562165Y-85428616D01*
X168562167Y-85428615D01*
X168753436Y-85349389D01*
X168956484Y-85309000D01*
X169163516Y-85309000D01*
X169366564Y-85349389D01*
G37*
G36*
X162866564Y-85349389D02*
G01*
X163057833Y-85428615D01*
X163057835Y-85428616D01*
X163229973Y-85543635D01*
X163376365Y-85690027D01*
X163479345Y-85844147D01*
X163491385Y-85862167D01*
X163570611Y-86053436D01*
X163611000Y-86256484D01*
X163611000Y-86463516D01*
X163570611Y-86666564D01*
X163510784Y-86811000D01*
X163491384Y-86857835D01*
X163376365Y-87029973D01*
X163229973Y-87176365D01*
X163057835Y-87291384D01*
X163057834Y-87291385D01*
X163057833Y-87291385D01*
X162866564Y-87370611D01*
X162663516Y-87411000D01*
X162456484Y-87411000D01*
X162253436Y-87370611D01*
X162062167Y-87291385D01*
X162062166Y-87291385D01*
X162062165Y-87291384D01*
X161890027Y-87176365D01*
X161743635Y-87029973D01*
X161628616Y-86857835D01*
X161609216Y-86811000D01*
X161549389Y-86666564D01*
X161509000Y-86463516D01*
X161509000Y-86256484D01*
X161549389Y-86053436D01*
X161628615Y-85862167D01*
X161640656Y-85844147D01*
X161743635Y-85690027D01*
X161890027Y-85543635D01*
X162062165Y-85428616D01*
X162062167Y-85428615D01*
X162253436Y-85349389D01*
X162456484Y-85309000D01*
X162663516Y-85309000D01*
X162866564Y-85349389D01*
G37*
G36*
X175391552Y-85926331D02*
G01*
X175473627Y-85960328D01*
X175473629Y-85960329D01*
X175510813Y-85985175D01*
X175547495Y-86009685D01*
X175610315Y-86072505D01*
X175659672Y-86146373D01*
X175693669Y-86228448D01*
X175711000Y-86315579D01*
X175711000Y-86404421D01*
X175693669Y-86491552D01*
X175659672Y-86573627D01*
X175659671Y-86573629D01*
X175610314Y-86647496D01*
X175547496Y-86710314D01*
X175473629Y-86759671D01*
X175473628Y-86759672D01*
X175473627Y-86759672D01*
X175391552Y-86793669D01*
X175304421Y-86811000D01*
X175215579Y-86811000D01*
X175128448Y-86793669D01*
X175046373Y-86759672D01*
X175046372Y-86759672D01*
X175046371Y-86759671D01*
X174972504Y-86710314D01*
X174909686Y-86647496D01*
X174860329Y-86573629D01*
X174860328Y-86573627D01*
X174826331Y-86491552D01*
X174809000Y-86404421D01*
X174809000Y-86315579D01*
X174826331Y-86228448D01*
X174860328Y-86146373D01*
X174909685Y-86072505D01*
X174972505Y-86009685D01*
X175009187Y-85985175D01*
X175046371Y-85960329D01*
X175046373Y-85960328D01*
X175128448Y-85926331D01*
X175215579Y-85909000D01*
X175304421Y-85909000D01*
X175391552Y-85926331D01*
G37*
G36*
X99191552Y-85926331D02*
G01*
X99273627Y-85960328D01*
X99273629Y-85960329D01*
X99310813Y-85985175D01*
X99347495Y-86009685D01*
X99410315Y-86072505D01*
X99459672Y-86146373D01*
X99493669Y-86228448D01*
X99511000Y-86315579D01*
X99511000Y-86404421D01*
X99493669Y-86491552D01*
X99459672Y-86573627D01*
X99459671Y-86573629D01*
X99410314Y-86647496D01*
X99347496Y-86710314D01*
X99273629Y-86759671D01*
X99273628Y-86759672D01*
X99273627Y-86759672D01*
X99191552Y-86793669D01*
X99104421Y-86811000D01*
X99015579Y-86811000D01*
X98928448Y-86793669D01*
X98846373Y-86759672D01*
X98846372Y-86759672D01*
X98846371Y-86759671D01*
X98772504Y-86710314D01*
X98709686Y-86647496D01*
X98660329Y-86573629D01*
X98660328Y-86573627D01*
X98626331Y-86491552D01*
X98609000Y-86404421D01*
X98609000Y-86315579D01*
X98626331Y-86228448D01*
X98660328Y-86146373D01*
X98709685Y-86072505D01*
X98772505Y-86009685D01*
X98809187Y-85985175D01*
X98846371Y-85960329D01*
X98846373Y-85960328D01*
X98928448Y-85926331D01*
X99015579Y-85909000D01*
X99104421Y-85909000D01*
X99191552Y-85926331D01*
G37*
G36*
X153918228Y-84271703D02*
G01*
X154073100Y-84335853D01*
X154212481Y-84428985D01*
X154331015Y-84547519D01*
X154424147Y-84686900D01*
X154488297Y-84841772D01*
X154521000Y-85006184D01*
X154521000Y-85173816D01*
X154488297Y-85338228D01*
X154424147Y-85493100D01*
X154331015Y-85632481D01*
X154212481Y-85751015D01*
X154073100Y-85844147D01*
X153918228Y-85908297D01*
X153753816Y-85941000D01*
X153586184Y-85941000D01*
X153421772Y-85908297D01*
X153266900Y-85844147D01*
X153127519Y-85751015D01*
X153008985Y-85632481D01*
X152915853Y-85493100D01*
X152851703Y-85338228D01*
X152819000Y-85173816D01*
X152819000Y-85006184D01*
X152851703Y-84841772D01*
X152915853Y-84686900D01*
X153008985Y-84547519D01*
X153127519Y-84428985D01*
X153266900Y-84335853D01*
X153421772Y-84271703D01*
X153586184Y-84239000D01*
X153753816Y-84239000D01*
X153918228Y-84271703D01*
G37*
G36*
X130941552Y-84656331D02*
G01*
X131015351Y-84686900D01*
X131023629Y-84690329D01*
X131060813Y-84715175D01*
X131097495Y-84739685D01*
X131160315Y-84802505D01*
X131209672Y-84876373D01*
X131243669Y-84958448D01*
X131261000Y-85045579D01*
X131261000Y-85134421D01*
X131243669Y-85221552D01*
X131209672Y-85303627D01*
X131209671Y-85303629D01*
X131160314Y-85377496D01*
X131097496Y-85440314D01*
X131023629Y-85489671D01*
X131023628Y-85489672D01*
X131023627Y-85489672D01*
X130941552Y-85523669D01*
X130854421Y-85541000D01*
X130765579Y-85541000D01*
X130678448Y-85523669D01*
X130596373Y-85489672D01*
X130596372Y-85489672D01*
X130596371Y-85489671D01*
X130522504Y-85440314D01*
X130459686Y-85377496D01*
X130410329Y-85303629D01*
X130410328Y-85303627D01*
X130376331Y-85221552D01*
X130359000Y-85134421D01*
X130359000Y-85045579D01*
X130376331Y-84958448D01*
X130410328Y-84876373D01*
X130459685Y-84802505D01*
X130522505Y-84739685D01*
X130559187Y-84715175D01*
X130596371Y-84690329D01*
X130604649Y-84686900D01*
X130678448Y-84656331D01*
X130765579Y-84639000D01*
X130854421Y-84639000D01*
X130941552Y-84656331D01*
G37*
G36*
X149991552Y-84656331D02*
G01*
X150065351Y-84686900D01*
X150073629Y-84690329D01*
X150110813Y-84715175D01*
X150147495Y-84739685D01*
X150210315Y-84802505D01*
X150259672Y-84876373D01*
X150293669Y-84958448D01*
X150311000Y-85045579D01*
X150311000Y-85134421D01*
X150293669Y-85221552D01*
X150259672Y-85303627D01*
X150259671Y-85303629D01*
X150210314Y-85377496D01*
X150147496Y-85440314D01*
X150073629Y-85489671D01*
X150073628Y-85489672D01*
X150073627Y-85489672D01*
X149991552Y-85523669D01*
X149904421Y-85541000D01*
X149815579Y-85541000D01*
X149728448Y-85523669D01*
X149646373Y-85489672D01*
X149646372Y-85489672D01*
X149646371Y-85489671D01*
X149572504Y-85440314D01*
X149509686Y-85377496D01*
X149460329Y-85303629D01*
X149460328Y-85303627D01*
X149426331Y-85221552D01*
X149409000Y-85134421D01*
X149409000Y-85045579D01*
X149426331Y-84958448D01*
X149460328Y-84876373D01*
X149509685Y-84802505D01*
X149572505Y-84739685D01*
X149609187Y-84715175D01*
X149646371Y-84690329D01*
X149654649Y-84686900D01*
X149728448Y-84656331D01*
X149815579Y-84639000D01*
X149904421Y-84639000D01*
X149991552Y-84656331D01*
G37*
G36*
X128401552Y-84656331D02*
G01*
X128475351Y-84686900D01*
X128483629Y-84690329D01*
X128520813Y-84715175D01*
X128557495Y-84739685D01*
X128620315Y-84802505D01*
X128669672Y-84876373D01*
X128703669Y-84958448D01*
X128721000Y-85045579D01*
X128721000Y-85134421D01*
X128703669Y-85221552D01*
X128669672Y-85303627D01*
X128669671Y-85303629D01*
X128620314Y-85377496D01*
X128557496Y-85440314D01*
X128483629Y-85489671D01*
X128483628Y-85489672D01*
X128483627Y-85489672D01*
X128401552Y-85523669D01*
X128314421Y-85541000D01*
X128225579Y-85541000D01*
X128138448Y-85523669D01*
X128056373Y-85489672D01*
X128056372Y-85489672D01*
X128056371Y-85489671D01*
X127982504Y-85440314D01*
X127919686Y-85377496D01*
X127870329Y-85303629D01*
X127870328Y-85303627D01*
X127836331Y-85221552D01*
X127819000Y-85134421D01*
X127819000Y-85045579D01*
X127836331Y-84958448D01*
X127870328Y-84876373D01*
X127919685Y-84802505D01*
X127982505Y-84739685D01*
X128019187Y-84715175D01*
X128056371Y-84690329D01*
X128064649Y-84686900D01*
X128138448Y-84656331D01*
X128225579Y-84639000D01*
X128314421Y-84639000D01*
X128401552Y-84656331D01*
G37*
G36*
X125861552Y-84656331D02*
G01*
X125935351Y-84686900D01*
X125943629Y-84690329D01*
X125980813Y-84715175D01*
X126017495Y-84739685D01*
X126080315Y-84802505D01*
X126129672Y-84876373D01*
X126163669Y-84958448D01*
X126181000Y-85045579D01*
X126181000Y-85134421D01*
X126163669Y-85221552D01*
X126129672Y-85303627D01*
X126129671Y-85303629D01*
X126080314Y-85377496D01*
X126017496Y-85440314D01*
X125943629Y-85489671D01*
X125943628Y-85489672D01*
X125943627Y-85489672D01*
X125861552Y-85523669D01*
X125774421Y-85541000D01*
X125685579Y-85541000D01*
X125598448Y-85523669D01*
X125516373Y-85489672D01*
X125516372Y-85489672D01*
X125516371Y-85489671D01*
X125442504Y-85440314D01*
X125379686Y-85377496D01*
X125330329Y-85303629D01*
X125330328Y-85303627D01*
X125296331Y-85221552D01*
X125279000Y-85134421D01*
X125279000Y-85045579D01*
X125296331Y-84958448D01*
X125330328Y-84876373D01*
X125379685Y-84802505D01*
X125442505Y-84739685D01*
X125479187Y-84715175D01*
X125516371Y-84690329D01*
X125524649Y-84686900D01*
X125598448Y-84656331D01*
X125685579Y-84639000D01*
X125774421Y-84639000D01*
X125861552Y-84656331D01*
G37*
G36*
X120781552Y-84656331D02*
G01*
X120855351Y-84686900D01*
X120863629Y-84690329D01*
X120900813Y-84715175D01*
X120937495Y-84739685D01*
X121000315Y-84802505D01*
X121049672Y-84876373D01*
X121083669Y-84958448D01*
X121101000Y-85045579D01*
X121101000Y-85134421D01*
X121083669Y-85221552D01*
X121049672Y-85303627D01*
X121049671Y-85303629D01*
X121000314Y-85377496D01*
X120937496Y-85440314D01*
X120863629Y-85489671D01*
X120863628Y-85489672D01*
X120863627Y-85489672D01*
X120781552Y-85523669D01*
X120694421Y-85541000D01*
X120605579Y-85541000D01*
X120518448Y-85523669D01*
X120436373Y-85489672D01*
X120436372Y-85489672D01*
X120436371Y-85489671D01*
X120362504Y-85440314D01*
X120299686Y-85377496D01*
X120250329Y-85303629D01*
X120250328Y-85303627D01*
X120216331Y-85221552D01*
X120199000Y-85134421D01*
X120199000Y-85045579D01*
X120216331Y-84958448D01*
X120250328Y-84876373D01*
X120299685Y-84802505D01*
X120362505Y-84739685D01*
X120399187Y-84715175D01*
X120436371Y-84690329D01*
X120444649Y-84686900D01*
X120518448Y-84656331D01*
X120605579Y-84639000D01*
X120694421Y-84639000D01*
X120781552Y-84656331D01*
G37*
G36*
X123321552Y-84656331D02*
G01*
X123395351Y-84686900D01*
X123403629Y-84690329D01*
X123440813Y-84715175D01*
X123477495Y-84739685D01*
X123540315Y-84802505D01*
X123589672Y-84876373D01*
X123623669Y-84958448D01*
X123641000Y-85045579D01*
X123641000Y-85134421D01*
X123623669Y-85221552D01*
X123589672Y-85303627D01*
X123589671Y-85303629D01*
X123540314Y-85377496D01*
X123477496Y-85440314D01*
X123403629Y-85489671D01*
X123403628Y-85489672D01*
X123403627Y-85489672D01*
X123321552Y-85523669D01*
X123234421Y-85541000D01*
X123145579Y-85541000D01*
X123058448Y-85523669D01*
X122976373Y-85489672D01*
X122976372Y-85489672D01*
X122976371Y-85489671D01*
X122902504Y-85440314D01*
X122839686Y-85377496D01*
X122790329Y-85303629D01*
X122790328Y-85303627D01*
X122756331Y-85221552D01*
X122739000Y-85134421D01*
X122739000Y-85045579D01*
X122756331Y-84958448D01*
X122790328Y-84876373D01*
X122839685Y-84802505D01*
X122902505Y-84739685D01*
X122939187Y-84715175D01*
X122976371Y-84690329D01*
X122984649Y-84686900D01*
X123058448Y-84656331D01*
X123145579Y-84639000D01*
X123234421Y-84639000D01*
X123321552Y-84656331D01*
G37*
G36*
X146181552Y-84656331D02*
G01*
X146255351Y-84686900D01*
X146263629Y-84690329D01*
X146300813Y-84715175D01*
X146337495Y-84739685D01*
X146400315Y-84802505D01*
X146449672Y-84876373D01*
X146483669Y-84958448D01*
X146501000Y-85045579D01*
X146501000Y-85134421D01*
X146483669Y-85221552D01*
X146449672Y-85303627D01*
X146449671Y-85303629D01*
X146400314Y-85377496D01*
X146337496Y-85440314D01*
X146263629Y-85489671D01*
X146263628Y-85489672D01*
X146263627Y-85489672D01*
X146181552Y-85523669D01*
X146094421Y-85541000D01*
X146005579Y-85541000D01*
X145918448Y-85523669D01*
X145836373Y-85489672D01*
X145836372Y-85489672D01*
X145836371Y-85489671D01*
X145762504Y-85440314D01*
X145699686Y-85377496D01*
X145650329Y-85303629D01*
X145650328Y-85303627D01*
X145616331Y-85221552D01*
X145599000Y-85134421D01*
X145599000Y-85045579D01*
X145616331Y-84958448D01*
X145650328Y-84876373D01*
X145699685Y-84802505D01*
X145762505Y-84739685D01*
X145799187Y-84715175D01*
X145836371Y-84690329D01*
X145844649Y-84686900D01*
X145918448Y-84656331D01*
X146005579Y-84639000D01*
X146094421Y-84639000D01*
X146181552Y-84656331D01*
G37*
G36*
X147451552Y-83386331D02*
G01*
X147533627Y-83420328D01*
X147533629Y-83420329D01*
X147570813Y-83445175D01*
X147607495Y-83469685D01*
X147670315Y-83532505D01*
X147719672Y-83606373D01*
X147753669Y-83688448D01*
X147771000Y-83775579D01*
X147771000Y-83864421D01*
X147753669Y-83951552D01*
X147719672Y-84033627D01*
X147719671Y-84033629D01*
X147670314Y-84107496D01*
X147607496Y-84170314D01*
X147533629Y-84219671D01*
X147533628Y-84219672D01*
X147533627Y-84219672D01*
X147451552Y-84253669D01*
X147364421Y-84271000D01*
X147275579Y-84271000D01*
X147188448Y-84253669D01*
X147106373Y-84219672D01*
X147106372Y-84219672D01*
X147106371Y-84219671D01*
X147032504Y-84170314D01*
X146969686Y-84107496D01*
X146920329Y-84033629D01*
X146920328Y-84033627D01*
X146886331Y-83951552D01*
X146869000Y-83864421D01*
X146869000Y-83775579D01*
X146886331Y-83688448D01*
X146920328Y-83606373D01*
X146969685Y-83532505D01*
X147032505Y-83469685D01*
X147069187Y-83445175D01*
X147106371Y-83420329D01*
X147106373Y-83420328D01*
X147188448Y-83386331D01*
X147275579Y-83369000D01*
X147364421Y-83369000D01*
X147451552Y-83386331D01*
G37*
G36*
X144911552Y-83386331D02*
G01*
X144993627Y-83420328D01*
X144993629Y-83420329D01*
X145030813Y-83445175D01*
X145067495Y-83469685D01*
X145130315Y-83532505D01*
X145179672Y-83606373D01*
X145213669Y-83688448D01*
X145231000Y-83775579D01*
X145231000Y-83864421D01*
X145213669Y-83951552D01*
X145179672Y-84033627D01*
X145179671Y-84033629D01*
X145130314Y-84107496D01*
X145067496Y-84170314D01*
X144993629Y-84219671D01*
X144993628Y-84219672D01*
X144993627Y-84219672D01*
X144911552Y-84253669D01*
X144824421Y-84271000D01*
X144735579Y-84271000D01*
X144648448Y-84253669D01*
X144566373Y-84219672D01*
X144566372Y-84219672D01*
X144566371Y-84219671D01*
X144492504Y-84170314D01*
X144429686Y-84107496D01*
X144380329Y-84033629D01*
X144380328Y-84033627D01*
X144346331Y-83951552D01*
X144329000Y-83864421D01*
X144329000Y-83775579D01*
X144346331Y-83688448D01*
X144380328Y-83606373D01*
X144429685Y-83532505D01*
X144492505Y-83469685D01*
X144529187Y-83445175D01*
X144566371Y-83420329D01*
X144566373Y-83420328D01*
X144648448Y-83386331D01*
X144735579Y-83369000D01*
X144824421Y-83369000D01*
X144911552Y-83386331D01*
G37*
G36*
X100207006Y-79814581D02*
G01*
X100607562Y-79980497D01*
X100607564Y-79980498D01*
X100968055Y-80221370D01*
X101274628Y-80527943D01*
X101515500Y-80888434D01*
X101515501Y-80888436D01*
X101681417Y-81288992D01*
X101765999Y-81714218D01*
X101765999Y-82147780D01*
X101681417Y-82573006D01*
X101515501Y-82973562D01*
X101515500Y-82973564D01*
X101274628Y-83334055D01*
X100968055Y-83640628D01*
X100607564Y-83881500D01*
X100607563Y-83881501D01*
X100607562Y-83881501D01*
X100207006Y-84047417D01*
X99781780Y-84131999D01*
X99348218Y-84131999D01*
X98922992Y-84047417D01*
X98522436Y-83881501D01*
X98522435Y-83881501D01*
X98522434Y-83881500D01*
X98161943Y-83640628D01*
X97855370Y-83334055D01*
X97614498Y-82973564D01*
X97614497Y-82973562D01*
X97448581Y-82573006D01*
X97363999Y-82147780D01*
X97363999Y-81714218D01*
X97448581Y-81288992D01*
X97614497Y-80888436D01*
X97614498Y-80888434D01*
X97855370Y-80527943D01*
X98161943Y-80221370D01*
X98522434Y-79980498D01*
X98522436Y-79980497D01*
X98922992Y-79814581D01*
X99348218Y-79729999D01*
X99781780Y-79729999D01*
X100207006Y-79814581D01*
G37*
G36*
X175207006Y-79814581D02*
G01*
X175607562Y-79980497D01*
X175607564Y-79980498D01*
X175968055Y-80221370D01*
X176274628Y-80527943D01*
X176515500Y-80888434D01*
X176515501Y-80888436D01*
X176681417Y-81288992D01*
X176765999Y-81714218D01*
X176765999Y-82147780D01*
X176681417Y-82573006D01*
X176515501Y-82973562D01*
X176515500Y-82973564D01*
X176274628Y-83334055D01*
X175968055Y-83640628D01*
X175607564Y-83881500D01*
X175607563Y-83881501D01*
X175607562Y-83881501D01*
X175207006Y-84047417D01*
X174781780Y-84131999D01*
X174348218Y-84131999D01*
X173922992Y-84047417D01*
X173522436Y-83881501D01*
X173522435Y-83881501D01*
X173522434Y-83881500D01*
X173161943Y-83640628D01*
X172855370Y-83334055D01*
X172614498Y-82973564D01*
X172614497Y-82973562D01*
X172448581Y-82573006D01*
X172363999Y-82147780D01*
X172363999Y-81714218D01*
X172448581Y-81288992D01*
X172614497Y-80888436D01*
X172614498Y-80888434D01*
X172855370Y-80527943D01*
X173161943Y-80221370D01*
X173522434Y-79980498D01*
X173522436Y-79980497D01*
X173922992Y-79814581D01*
X174348218Y-79729999D01*
X174781780Y-79729999D01*
X175207006Y-79814581D01*
G37*
G36*
X153918228Y-81731703D02*
G01*
X154073100Y-81795853D01*
X154212481Y-81888985D01*
X154331015Y-82007519D01*
X154424147Y-82146900D01*
X154488297Y-82301772D01*
X154521000Y-82466184D01*
X154521000Y-82633816D01*
X154488297Y-82798228D01*
X154424147Y-82953100D01*
X154331015Y-83092481D01*
X154212481Y-83211015D01*
X154073100Y-83304147D01*
X153918228Y-83368297D01*
X153753816Y-83401000D01*
X153586184Y-83401000D01*
X153421772Y-83368297D01*
X153266900Y-83304147D01*
X153127519Y-83211015D01*
X153008985Y-83092481D01*
X152915853Y-82953100D01*
X152851703Y-82798228D01*
X152819000Y-82633816D01*
X152819000Y-82466184D01*
X152851703Y-82301772D01*
X152915853Y-82146900D01*
X153008985Y-82007519D01*
X153127519Y-81888985D01*
X153266900Y-81795853D01*
X153421772Y-81731703D01*
X153586184Y-81699000D01*
X153753816Y-81699000D01*
X153918228Y-81731703D01*
G37*
G36*
X146181552Y-82116331D02*
G01*
X146263627Y-82150328D01*
X146263629Y-82150329D01*
X146300813Y-82175175D01*
X146337495Y-82199685D01*
X146400315Y-82262505D01*
X146449672Y-82336373D01*
X146483669Y-82418448D01*
X146501000Y-82505579D01*
X146501000Y-82594421D01*
X146483669Y-82681552D01*
X146449672Y-82763627D01*
X146400315Y-82837495D01*
X146337495Y-82900315D01*
X146300813Y-82924825D01*
X146263629Y-82949671D01*
X146263628Y-82949672D01*
X146263627Y-82949672D01*
X146181552Y-82983669D01*
X146094421Y-83001000D01*
X146005579Y-83001000D01*
X145918448Y-82983669D01*
X145836373Y-82949672D01*
X145836372Y-82949672D01*
X145836371Y-82949671D01*
X145799187Y-82924825D01*
X145762505Y-82900315D01*
X145699685Y-82837495D01*
X145650328Y-82763627D01*
X145616331Y-82681552D01*
X145599000Y-82594421D01*
X145599000Y-82505579D01*
X145616331Y-82418448D01*
X145650328Y-82336373D01*
X145699685Y-82262505D01*
X145762505Y-82199685D01*
X145799187Y-82175175D01*
X145836371Y-82150329D01*
X145836373Y-82150328D01*
X145918448Y-82116331D01*
X146005579Y-82099000D01*
X146094421Y-82099000D01*
X146181552Y-82116331D01*
G37*
G36*
X162866564Y-80849389D02*
G01*
X163057833Y-80928615D01*
X163057835Y-80928616D01*
X163229973Y-81043635D01*
X163376365Y-81190027D01*
X163442491Y-81288991D01*
X163491385Y-81362167D01*
X163570611Y-81553436D01*
X163611000Y-81756484D01*
X163611000Y-81963516D01*
X163570611Y-82166564D01*
X163514606Y-82301772D01*
X163491384Y-82357835D01*
X163376365Y-82529973D01*
X163229973Y-82676365D01*
X163057835Y-82791384D01*
X163057834Y-82791385D01*
X163057833Y-82791385D01*
X162866564Y-82870611D01*
X162663516Y-82911000D01*
X162456484Y-82911000D01*
X162253436Y-82870611D01*
X162062167Y-82791385D01*
X162062166Y-82791385D01*
X162062165Y-82791384D01*
X161890027Y-82676365D01*
X161743635Y-82529973D01*
X161628616Y-82357835D01*
X161605394Y-82301772D01*
X161549389Y-82166564D01*
X161509000Y-81963516D01*
X161509000Y-81756484D01*
X161549389Y-81553436D01*
X161628615Y-81362167D01*
X161677510Y-81288991D01*
X161743635Y-81190027D01*
X161890027Y-81043635D01*
X162062165Y-80928616D01*
X162062167Y-80928615D01*
X162253436Y-80849389D01*
X162456484Y-80809000D01*
X162663516Y-80809000D01*
X162866564Y-80849389D01*
G37*
G36*
X169366564Y-80849389D02*
G01*
X169557833Y-80928615D01*
X169557835Y-80928616D01*
X169729973Y-81043635D01*
X169876365Y-81190027D01*
X169942491Y-81288991D01*
X169991385Y-81362167D01*
X170070611Y-81553436D01*
X170111000Y-81756484D01*
X170111000Y-81963516D01*
X170070611Y-82166564D01*
X170014606Y-82301772D01*
X169991384Y-82357835D01*
X169876365Y-82529973D01*
X169729973Y-82676365D01*
X169557835Y-82791384D01*
X169557834Y-82791385D01*
X169557833Y-82791385D01*
X169366564Y-82870611D01*
X169163516Y-82911000D01*
X168956484Y-82911000D01*
X168753436Y-82870611D01*
X168562167Y-82791385D01*
X168562166Y-82791385D01*
X168562165Y-82791384D01*
X168390027Y-82676365D01*
X168243635Y-82529973D01*
X168128616Y-82357835D01*
X168105394Y-82301772D01*
X168049389Y-82166564D01*
X168009000Y-81963516D01*
X168009000Y-81756484D01*
X168049389Y-81553436D01*
X168128615Y-81362167D01*
X168177510Y-81288991D01*
X168243635Y-81190027D01*
X168390027Y-81043635D01*
X168562165Y-80928616D01*
X168562167Y-80928615D01*
X168753436Y-80849389D01*
X168956484Y-80809000D01*
X169163516Y-80809000D01*
X169366564Y-80849389D01*
G37*
G36*
X143442394Y-81016545D02*
G01*
X143615465Y-81088233D01*
X143615466Y-81088234D01*
X143771226Y-81192309D01*
X143903689Y-81324772D01*
X143903690Y-81324774D01*
X144007765Y-81480533D01*
X144079453Y-81653604D01*
X144115999Y-81837332D01*
X144115999Y-82024666D01*
X144079453Y-82208394D01*
X144007765Y-82381465D01*
X144007764Y-82381466D01*
X143903689Y-82537226D01*
X143771226Y-82669689D01*
X143728682Y-82698116D01*
X143615465Y-82773765D01*
X143442394Y-82845453D01*
X143258666Y-82881999D01*
X143071332Y-82881999D01*
X142887604Y-82845453D01*
X142714533Y-82773765D01*
X142601316Y-82698116D01*
X142558772Y-82669689D01*
X142426309Y-82537226D01*
X142322234Y-82381466D01*
X142322233Y-82381465D01*
X142250545Y-82208394D01*
X142213999Y-82024666D01*
X142213999Y-81837332D01*
X142250545Y-81653604D01*
X142322233Y-81480533D01*
X142426308Y-81324774D01*
X142426309Y-81324772D01*
X142558772Y-81192309D01*
X142714532Y-81088234D01*
X142714533Y-81088233D01*
X142887604Y-81016545D01*
X143071332Y-80979999D01*
X143258666Y-80979999D01*
X143442394Y-81016545D01*
G37*
G36*
X107882394Y-81016545D02*
G01*
X108055465Y-81088233D01*
X108055466Y-81088234D01*
X108211226Y-81192309D01*
X108343689Y-81324772D01*
X108343690Y-81324774D01*
X108447765Y-81480533D01*
X108519453Y-81653604D01*
X108555999Y-81837332D01*
X108555999Y-82024666D01*
X108519453Y-82208394D01*
X108447765Y-82381465D01*
X108447764Y-82381466D01*
X108343689Y-82537226D01*
X108211226Y-82669689D01*
X108168682Y-82698116D01*
X108055465Y-82773765D01*
X107882394Y-82845453D01*
X107698666Y-82881999D01*
X107511332Y-82881999D01*
X107327604Y-82845453D01*
X107154533Y-82773765D01*
X107041316Y-82698116D01*
X106998772Y-82669689D01*
X106866309Y-82537226D01*
X106762234Y-82381466D01*
X106762233Y-82381465D01*
X106690545Y-82208394D01*
X106653999Y-82024666D01*
X106653999Y-81837332D01*
X106690545Y-81653604D01*
X106762233Y-81480533D01*
X106866308Y-81324774D01*
X106866309Y-81324772D01*
X106998772Y-81192309D01*
X107154532Y-81088234D01*
X107154533Y-81088233D01*
X107327604Y-81016545D01*
X107511332Y-80979999D01*
X107698666Y-80979999D01*
X107882394Y-81016545D01*
G37*
G36*
X105683454Y-80988527D02*
G01*
X105760811Y-81011994D01*
X105832116Y-81050107D01*
X105894607Y-81101391D01*
X105945891Y-81163882D01*
X105984004Y-81235187D01*
X106007471Y-81312544D01*
X106015999Y-81399139D01*
X106015999Y-82462859D01*
X106007471Y-82549454D01*
X105984004Y-82626811D01*
X105945891Y-82698116D01*
X105894607Y-82760607D01*
X105832116Y-82811891D01*
X105760811Y-82850004D01*
X105683454Y-82873471D01*
X105596859Y-82881999D01*
X104533139Y-82881999D01*
X104446544Y-82873471D01*
X104369187Y-82850004D01*
X104297882Y-82811891D01*
X104235391Y-82760607D01*
X104184107Y-82698116D01*
X104145994Y-82626811D01*
X104122527Y-82549454D01*
X104113999Y-82462859D01*
X104113999Y-81399139D01*
X104122527Y-81312544D01*
X104145994Y-81235187D01*
X104184107Y-81163882D01*
X104235391Y-81101391D01*
X104297882Y-81050107D01*
X104369187Y-81011994D01*
X104446544Y-80988527D01*
X104533139Y-80979999D01*
X105596859Y-80979999D01*
X105683454Y-80988527D01*
G37*
G36*
X112962394Y-81016545D02*
G01*
X113135465Y-81088233D01*
X113135466Y-81088234D01*
X113291226Y-81192309D01*
X113423689Y-81324772D01*
X113423690Y-81324774D01*
X113527765Y-81480533D01*
X113599453Y-81653604D01*
X113635999Y-81837332D01*
X113635999Y-82024666D01*
X113599453Y-82208394D01*
X113527765Y-82381465D01*
X113527764Y-82381466D01*
X113423689Y-82537226D01*
X113291226Y-82669689D01*
X113248682Y-82698116D01*
X113135465Y-82773765D01*
X112962394Y-82845453D01*
X112778666Y-82881999D01*
X112591332Y-82881999D01*
X112407604Y-82845453D01*
X112234533Y-82773765D01*
X112121316Y-82698116D01*
X112078772Y-82669689D01*
X111946309Y-82537226D01*
X111842234Y-82381466D01*
X111842233Y-82381465D01*
X111770545Y-82208394D01*
X111733999Y-82024666D01*
X111733999Y-81837332D01*
X111770545Y-81653604D01*
X111842233Y-81480533D01*
X111946308Y-81324774D01*
X111946309Y-81324772D01*
X112078772Y-81192309D01*
X112234532Y-81088234D01*
X112234533Y-81088233D01*
X112407604Y-81016545D01*
X112591332Y-80979999D01*
X112778666Y-80979999D01*
X112962394Y-81016545D01*
G37*
G36*
X115502394Y-81016545D02*
G01*
X115675465Y-81088233D01*
X115675466Y-81088234D01*
X115831226Y-81192309D01*
X115963689Y-81324772D01*
X115963690Y-81324774D01*
X116067765Y-81480533D01*
X116139453Y-81653604D01*
X116175999Y-81837332D01*
X116175999Y-82024666D01*
X116139453Y-82208394D01*
X116067765Y-82381465D01*
X116067764Y-82381466D01*
X115963689Y-82537226D01*
X115831226Y-82669689D01*
X115788682Y-82698116D01*
X115675465Y-82773765D01*
X115502394Y-82845453D01*
X115318666Y-82881999D01*
X115131332Y-82881999D01*
X114947604Y-82845453D01*
X114774533Y-82773765D01*
X114661316Y-82698116D01*
X114618772Y-82669689D01*
X114486309Y-82537226D01*
X114382234Y-82381466D01*
X114382233Y-82381465D01*
X114310545Y-82208394D01*
X114273999Y-82024666D01*
X114273999Y-81837332D01*
X114310545Y-81653604D01*
X114382233Y-81480533D01*
X114486308Y-81324774D01*
X114486309Y-81324772D01*
X114618772Y-81192309D01*
X114774532Y-81088234D01*
X114774533Y-81088233D01*
X114947604Y-81016545D01*
X115131332Y-80979999D01*
X115318666Y-80979999D01*
X115502394Y-81016545D01*
G37*
G36*
X118042394Y-81016545D02*
G01*
X118215465Y-81088233D01*
X118215466Y-81088234D01*
X118371226Y-81192309D01*
X118503689Y-81324772D01*
X118503690Y-81324774D01*
X118607765Y-81480533D01*
X118679453Y-81653604D01*
X118715999Y-81837332D01*
X118715999Y-82024666D01*
X118679453Y-82208394D01*
X118607765Y-82381465D01*
X118607764Y-82381466D01*
X118503689Y-82537226D01*
X118371226Y-82669689D01*
X118328682Y-82698116D01*
X118215465Y-82773765D01*
X118042394Y-82845453D01*
X117858666Y-82881999D01*
X117671332Y-82881999D01*
X117487604Y-82845453D01*
X117314533Y-82773765D01*
X117201316Y-82698116D01*
X117158772Y-82669689D01*
X117026309Y-82537226D01*
X116922234Y-82381466D01*
X116922233Y-82381465D01*
X116850545Y-82208394D01*
X116813999Y-82024666D01*
X116813999Y-81837332D01*
X116850545Y-81653604D01*
X116922233Y-81480533D01*
X117026308Y-81324774D01*
X117026309Y-81324772D01*
X117158772Y-81192309D01*
X117314532Y-81088234D01*
X117314533Y-81088233D01*
X117487604Y-81016545D01*
X117671332Y-80979999D01*
X117858666Y-80979999D01*
X118042394Y-81016545D01*
G37*
G36*
X120582394Y-81016545D02*
G01*
X120755465Y-81088233D01*
X120755466Y-81088234D01*
X120911226Y-81192309D01*
X121043689Y-81324772D01*
X121043690Y-81324774D01*
X121147765Y-81480533D01*
X121219453Y-81653604D01*
X121255999Y-81837332D01*
X121255999Y-82024666D01*
X121219453Y-82208394D01*
X121147765Y-82381465D01*
X121147764Y-82381466D01*
X121043689Y-82537226D01*
X120911226Y-82669689D01*
X120868682Y-82698116D01*
X120755465Y-82773765D01*
X120582394Y-82845453D01*
X120398666Y-82881999D01*
X120211332Y-82881999D01*
X120027604Y-82845453D01*
X119854533Y-82773765D01*
X119741316Y-82698116D01*
X119698772Y-82669689D01*
X119566309Y-82537226D01*
X119462234Y-82381466D01*
X119462233Y-82381465D01*
X119390545Y-82208394D01*
X119353999Y-82024666D01*
X119353999Y-81837332D01*
X119390545Y-81653604D01*
X119462233Y-81480533D01*
X119566308Y-81324774D01*
X119566309Y-81324772D01*
X119698772Y-81192309D01*
X119854532Y-81088234D01*
X119854533Y-81088233D01*
X120027604Y-81016545D01*
X120211332Y-80979999D01*
X120398666Y-80979999D01*
X120582394Y-81016545D01*
G37*
G36*
X123122394Y-81016545D02*
G01*
X123295465Y-81088233D01*
X123295466Y-81088234D01*
X123451226Y-81192309D01*
X123583689Y-81324772D01*
X123583690Y-81324774D01*
X123687765Y-81480533D01*
X123759453Y-81653604D01*
X123795999Y-81837332D01*
X123795999Y-82024666D01*
X123759453Y-82208394D01*
X123687765Y-82381465D01*
X123687764Y-82381466D01*
X123583689Y-82537226D01*
X123451226Y-82669689D01*
X123408682Y-82698116D01*
X123295465Y-82773765D01*
X123122394Y-82845453D01*
X122938666Y-82881999D01*
X122751332Y-82881999D01*
X122567604Y-82845453D01*
X122394533Y-82773765D01*
X122281316Y-82698116D01*
X122238772Y-82669689D01*
X122106309Y-82537226D01*
X122002234Y-82381466D01*
X122002233Y-82381465D01*
X121930545Y-82208394D01*
X121893999Y-82024666D01*
X121893999Y-81837332D01*
X121930545Y-81653604D01*
X122002233Y-81480533D01*
X122106308Y-81324774D01*
X122106309Y-81324772D01*
X122238772Y-81192309D01*
X122394532Y-81088234D01*
X122394533Y-81088233D01*
X122567604Y-81016545D01*
X122751332Y-80979999D01*
X122938666Y-80979999D01*
X123122394Y-81016545D01*
G37*
G36*
X125662394Y-81016545D02*
G01*
X125835465Y-81088233D01*
X125835466Y-81088234D01*
X125991226Y-81192309D01*
X126123689Y-81324772D01*
X126123690Y-81324774D01*
X126227765Y-81480533D01*
X126299453Y-81653604D01*
X126335999Y-81837332D01*
X126335999Y-82024666D01*
X126299453Y-82208394D01*
X126227765Y-82381465D01*
X126227764Y-82381466D01*
X126123689Y-82537226D01*
X125991226Y-82669689D01*
X125948682Y-82698116D01*
X125835465Y-82773765D01*
X125662394Y-82845453D01*
X125478666Y-82881999D01*
X125291332Y-82881999D01*
X125107604Y-82845453D01*
X124934533Y-82773765D01*
X124821316Y-82698116D01*
X124778772Y-82669689D01*
X124646309Y-82537226D01*
X124542234Y-82381466D01*
X124542233Y-82381465D01*
X124470545Y-82208394D01*
X124433999Y-82024666D01*
X124433999Y-81837332D01*
X124470545Y-81653604D01*
X124542233Y-81480533D01*
X124646308Y-81324774D01*
X124646309Y-81324772D01*
X124778772Y-81192309D01*
X124934532Y-81088234D01*
X124934533Y-81088233D01*
X125107604Y-81016545D01*
X125291332Y-80979999D01*
X125478666Y-80979999D01*
X125662394Y-81016545D01*
G37*
G36*
X128202394Y-81016545D02*
G01*
X128375465Y-81088233D01*
X128375466Y-81088234D01*
X128531226Y-81192309D01*
X128663689Y-81324772D01*
X128663690Y-81324774D01*
X128767765Y-81480533D01*
X128839453Y-81653604D01*
X128875999Y-81837332D01*
X128875999Y-82024666D01*
X128839453Y-82208394D01*
X128767765Y-82381465D01*
X128767764Y-82381466D01*
X128663689Y-82537226D01*
X128531226Y-82669689D01*
X128488682Y-82698116D01*
X128375465Y-82773765D01*
X128202394Y-82845453D01*
X128018666Y-82881999D01*
X127831332Y-82881999D01*
X127647604Y-82845453D01*
X127474533Y-82773765D01*
X127361316Y-82698116D01*
X127318772Y-82669689D01*
X127186309Y-82537226D01*
X127082234Y-82381466D01*
X127082233Y-82381465D01*
X127010545Y-82208394D01*
X126973999Y-82024666D01*
X126973999Y-81837332D01*
X127010545Y-81653604D01*
X127082233Y-81480533D01*
X127186308Y-81324774D01*
X127186309Y-81324772D01*
X127318772Y-81192309D01*
X127474532Y-81088234D01*
X127474533Y-81088233D01*
X127647604Y-81016545D01*
X127831332Y-80979999D01*
X128018666Y-80979999D01*
X128202394Y-81016545D01*
G37*
G36*
X130742394Y-81016545D02*
G01*
X130915465Y-81088233D01*
X130915466Y-81088234D01*
X131071226Y-81192309D01*
X131203689Y-81324772D01*
X131203690Y-81324774D01*
X131307765Y-81480533D01*
X131379453Y-81653604D01*
X131415999Y-81837332D01*
X131415999Y-82024666D01*
X131379453Y-82208394D01*
X131307765Y-82381465D01*
X131307764Y-82381466D01*
X131203689Y-82537226D01*
X131071226Y-82669689D01*
X131028682Y-82698116D01*
X130915465Y-82773765D01*
X130742394Y-82845453D01*
X130558666Y-82881999D01*
X130371332Y-82881999D01*
X130187604Y-82845453D01*
X130014533Y-82773765D01*
X129901316Y-82698116D01*
X129858772Y-82669689D01*
X129726309Y-82537226D01*
X129622234Y-82381466D01*
X129622233Y-82381465D01*
X129550545Y-82208394D01*
X129513999Y-82024666D01*
X129513999Y-81837332D01*
X129550545Y-81653604D01*
X129622233Y-81480533D01*
X129726308Y-81324774D01*
X129726309Y-81324772D01*
X129858772Y-81192309D01*
X130014532Y-81088234D01*
X130014533Y-81088233D01*
X130187604Y-81016545D01*
X130371332Y-80979999D01*
X130558666Y-80979999D01*
X130742394Y-81016545D01*
G37*
G36*
X133282394Y-81016545D02*
G01*
X133455465Y-81088233D01*
X133455466Y-81088234D01*
X133611226Y-81192309D01*
X133743689Y-81324772D01*
X133743690Y-81324774D01*
X133847765Y-81480533D01*
X133919453Y-81653604D01*
X133955999Y-81837332D01*
X133955999Y-82024666D01*
X133919453Y-82208394D01*
X133847765Y-82381465D01*
X133847764Y-82381466D01*
X133743689Y-82537226D01*
X133611226Y-82669689D01*
X133568682Y-82698116D01*
X133455465Y-82773765D01*
X133282394Y-82845453D01*
X133098666Y-82881999D01*
X132911332Y-82881999D01*
X132727604Y-82845453D01*
X132554533Y-82773765D01*
X132441316Y-82698116D01*
X132398772Y-82669689D01*
X132266309Y-82537226D01*
X132162234Y-82381466D01*
X132162233Y-82381465D01*
X132090545Y-82208394D01*
X132053999Y-82024666D01*
X132053999Y-81837332D01*
X132090545Y-81653604D01*
X132162233Y-81480533D01*
X132266308Y-81324774D01*
X132266309Y-81324772D01*
X132398772Y-81192309D01*
X132554532Y-81088234D01*
X132554533Y-81088233D01*
X132727604Y-81016545D01*
X132911332Y-80979999D01*
X133098666Y-80979999D01*
X133282394Y-81016545D01*
G37*
G36*
X110422394Y-81016545D02*
G01*
X110595465Y-81088233D01*
X110595466Y-81088234D01*
X110751226Y-81192309D01*
X110883689Y-81324772D01*
X110883690Y-81324774D01*
X110987765Y-81480533D01*
X111059453Y-81653604D01*
X111095999Y-81837332D01*
X111095999Y-82024666D01*
X111059453Y-82208394D01*
X110987765Y-82381465D01*
X110987764Y-82381466D01*
X110883689Y-82537226D01*
X110751226Y-82669689D01*
X110708682Y-82698116D01*
X110595465Y-82773765D01*
X110422394Y-82845453D01*
X110238666Y-82881999D01*
X110051332Y-82881999D01*
X109867604Y-82845453D01*
X109694533Y-82773765D01*
X109581316Y-82698116D01*
X109538772Y-82669689D01*
X109406309Y-82537226D01*
X109302234Y-82381466D01*
X109302233Y-82381465D01*
X109230545Y-82208394D01*
X109193999Y-82024666D01*
X109193999Y-81837332D01*
X109230545Y-81653604D01*
X109302233Y-81480533D01*
X109406308Y-81324774D01*
X109406309Y-81324772D01*
X109538772Y-81192309D01*
X109694532Y-81088234D01*
X109694533Y-81088233D01*
X109867604Y-81016545D01*
X110051332Y-80979999D01*
X110238666Y-80979999D01*
X110422394Y-81016545D01*
G37*
G36*
X138362394Y-81016545D02*
G01*
X138535465Y-81088233D01*
X138535466Y-81088234D01*
X138691226Y-81192309D01*
X138823689Y-81324772D01*
X138823690Y-81324774D01*
X138927765Y-81480533D01*
X138999453Y-81653604D01*
X139035999Y-81837332D01*
X139035999Y-82024666D01*
X138999453Y-82208394D01*
X138927765Y-82381465D01*
X138927764Y-82381466D01*
X138823689Y-82537226D01*
X138691226Y-82669689D01*
X138648682Y-82698116D01*
X138535465Y-82773765D01*
X138362394Y-82845453D01*
X138178666Y-82881999D01*
X137991332Y-82881999D01*
X137807604Y-82845453D01*
X137634533Y-82773765D01*
X137521316Y-82698116D01*
X137478772Y-82669689D01*
X137346309Y-82537226D01*
X137242234Y-82381466D01*
X137242233Y-82381465D01*
X137170545Y-82208394D01*
X137133999Y-82024666D01*
X137133999Y-81837332D01*
X137170545Y-81653604D01*
X137242233Y-81480533D01*
X137346308Y-81324774D01*
X137346309Y-81324772D01*
X137478772Y-81192309D01*
X137634532Y-81088234D01*
X137634533Y-81088233D01*
X137807604Y-81016545D01*
X137991332Y-80979999D01*
X138178666Y-80979999D01*
X138362394Y-81016545D01*
G37*
G36*
X135822394Y-81016545D02*
G01*
X135995465Y-81088233D01*
X135995466Y-81088234D01*
X136151226Y-81192309D01*
X136283689Y-81324772D01*
X136283690Y-81324774D01*
X136387765Y-81480533D01*
X136459453Y-81653604D01*
X136495999Y-81837332D01*
X136495999Y-82024666D01*
X136459453Y-82208394D01*
X136387765Y-82381465D01*
X136387764Y-82381466D01*
X136283689Y-82537226D01*
X136151226Y-82669689D01*
X136108682Y-82698116D01*
X135995465Y-82773765D01*
X135822394Y-82845453D01*
X135638666Y-82881999D01*
X135451332Y-82881999D01*
X135267604Y-82845453D01*
X135094533Y-82773765D01*
X134981316Y-82698116D01*
X134938772Y-82669689D01*
X134806309Y-82537226D01*
X134702234Y-82381466D01*
X134702233Y-82381465D01*
X134630545Y-82208394D01*
X134593999Y-82024666D01*
X134593999Y-81837332D01*
X134630545Y-81653604D01*
X134702233Y-81480533D01*
X134806308Y-81324774D01*
X134806309Y-81324772D01*
X134938772Y-81192309D01*
X135094532Y-81088234D01*
X135094533Y-81088233D01*
X135267604Y-81016545D01*
X135451332Y-80979999D01*
X135638666Y-80979999D01*
X135822394Y-81016545D01*
G37*
G36*
X140902394Y-81016545D02*
G01*
X141075465Y-81088233D01*
X141075466Y-81088234D01*
X141231226Y-81192309D01*
X141363689Y-81324772D01*
X141363690Y-81324774D01*
X141467765Y-81480533D01*
X141539453Y-81653604D01*
X141575999Y-81837332D01*
X141575999Y-82024666D01*
X141539453Y-82208394D01*
X141467765Y-82381465D01*
X141467764Y-82381466D01*
X141363689Y-82537226D01*
X141231226Y-82669689D01*
X141188682Y-82698116D01*
X141075465Y-82773765D01*
X140902394Y-82845453D01*
X140718666Y-82881999D01*
X140531332Y-82881999D01*
X140347604Y-82845453D01*
X140174533Y-82773765D01*
X140061316Y-82698116D01*
X140018772Y-82669689D01*
X139886309Y-82537226D01*
X139782234Y-82381466D01*
X139782233Y-82381465D01*
X139710545Y-82208394D01*
X139673999Y-82024666D01*
X139673999Y-81837332D01*
X139710545Y-81653604D01*
X139782233Y-81480533D01*
X139886308Y-81324774D01*
X139886309Y-81324772D01*
X140018772Y-81192309D01*
X140174532Y-81088234D01*
X140174533Y-81088233D01*
X140347604Y-81016545D01*
X140531332Y-80979999D01*
X140718666Y-80979999D01*
X140902394Y-81016545D01*
G37*
M02*
