M48
; DRILL file {KiCad (5.1.5)-3} date 3/30/2021 2:25:37 PM
; FORMAT={-:-/ absolute / inch / decimal}
; #@! TF.CreationDate,2021-03-30T14:25:37+02:00
; #@! TF.GenerationSoftware,Kicad,Pcbnew,(5.1.5)-3
; #@! TF.FileFunction,Plated,1,2,PTH
FMAT,2
INCH
T1C0.0197
T2C0.0315
T3C0.0354
T4C0.0394
T5C0.0433
T6C0.0984
%
G90
G05
T1
X3.9Y-3.4
X3.9Y-3.5
X3.9Y-3.6
X3.9Y-3.7
X3.9Y-3.8
X3.9Y-3.9
X3.9Y-4.0
X3.9Y-4.1
X3.9Y-4.2
X3.9Y-4.3
X4.1Y-4.45
X4.2Y-4.45
X4.3Y-4.45
X4.4Y-4.45
X4.5Y-4.45
X4.6Y-4.45
X4.7Y-4.45
X4.75Y-3.35
X4.8Y-4.45
X4.85Y-3.35
X4.85Y-3.45
X4.9Y-4.45
X4.95Y-3.35
X4.95Y-3.45
X4.95Y-3.55
X5.0Y-4.45
X5.05Y-3.35
X5.05Y-3.45
X5.05Y-3.55
X5.05Y-3.65
X5.15Y-3.35
X5.15Y-3.45
X5.15Y-3.65
X5.15Y-3.75
X5.25Y-3.45
X5.5Y-4.0
X5.5Y-4.1
X5.5Y-4.2
X5.5Y-4.3
X5.6Y-4.0
X5.6Y-4.1
X5.6Y-4.2
X5.7Y-3.3
X5.7Y-4.0
X5.7Y-4.1
X5.75Y-3.25
X5.75Y-3.35
X5.8Y-3.3
X5.8Y-3.75
X5.8Y-3.85
X5.8Y-4.0
X5.9Y-3.35
X5.9Y-3.45
X5.9Y-3.65
X5.9Y-3.75
X6.0Y-3.45
X6.0Y-3.55
X6.0Y-3.65
X6.0Y-4.45
X6.1Y-4.45
X6.2Y-4.45
X6.3Y-4.45
X6.4Y-4.45
X6.5Y-4.45
X6.6Y-4.45
X6.7Y-4.45
X6.9Y-3.4
X6.9Y-3.5
X6.9Y-3.6
X6.9Y-3.7
X6.9Y-3.8
X6.9Y-3.9
X6.9Y-4.0
X6.9Y-4.1
X6.9Y-4.2
X6.9Y-4.3
T2
X4.03Y-3.49
X4.23Y-3.49
X5.36Y-3.84
X5.66Y-3.84
X5.46Y-3.66
X5.66Y-3.66
X4.339Y-3.49
X4.539Y-3.49
X6.05Y-3.25
X6.05Y-3.35
X5.36Y-3.75
X5.66Y-3.75
T3
X4.24Y-3.9
X4.3384Y-3.7031
X4.4369Y-3.9
T4
X5.15Y-3.55
X5.15Y-4.45
X5.25Y-3.55
X5.25Y-4.45
X5.35Y-3.55
X5.35Y-4.45
X5.45Y-3.55
X5.45Y-4.45
X5.55Y-3.55
X5.55Y-4.45
X5.65Y-3.55
X5.65Y-4.45
X5.75Y-3.55
X5.75Y-4.45
X5.85Y-3.55
X5.85Y-4.45
X4.1364Y-3.2256
X4.2364Y-3.2256
X4.3364Y-3.2256
X4.4364Y-3.2256
X4.5364Y-3.2256
X4.6364Y-3.2256
X4.7364Y-3.2256
X4.8364Y-3.2256
X4.9364Y-3.2256
X5.0364Y-3.2256
X5.1364Y-3.2256
X5.2364Y-3.2256
X5.3364Y-3.2256
X5.4364Y-3.2256
X5.5364Y-3.2256
X5.6364Y-3.2256
T5
X6.4Y-3.2228
X6.4Y-3.4
X6.6559Y-3.2228
X6.6559Y-3.4
T6
X3.9199Y-3.2256
X3.9199Y-4.4461
X6.8726Y-3.2256
X6.8726Y-4.4461
T0
M30
