G04 #@! TF.GenerationSoftware,KiCad,Pcbnew,(5.1.5)-3*
G04 #@! TF.CreationDate,2021-03-30T14:25:25+02:00*
G04 #@! TF.ProjectId,WiFi_LCD_clock,57694669-5f4c-4434-945f-636c6f636b2e,rev?*
G04 #@! TF.SameCoordinates,Original*
G04 #@! TF.FileFunction,Copper,L1,Top*
G04 #@! TF.FilePolarity,Positive*
%FSLAX46Y46*%
G04 Gerber Fmt 4.6, Leading zero omitted, Abs format (unit mm)*
G04 Created by KiCad (PCBNEW (5.1.5)-3) date 2021-03-30 14:25:25*
%MOMM*%
%LPD*%
G04 APERTURE LIST*
%ADD10C,0.100000*%
%ADD11C,0.150000*%
%ADD12C,0.300000*%
%ADD13C,0.400000*%
G04 #@! TA.AperFunction,ComponentPad*
%ADD14O,1.600000X2.000000*%
G04 #@! TD*
G04 #@! TA.AperFunction,ComponentPad*
%ADD15R,2.000000X2.000000*%
G04 #@! TD*
G04 #@! TA.AperFunction,ComponentPad*
%ADD16C,1.700000*%
G04 #@! TD*
G04 #@! TA.AperFunction,ComponentPad*
%ADD17C,2.000000*%
G04 #@! TD*
G04 #@! TA.AperFunction,ComponentPad*
%ADD18C,1.620000*%
G04 #@! TD*
G04 #@! TA.AperFunction,ComponentPad*
%ADD19C,1.600000*%
G04 #@! TD*
G04 #@! TA.AperFunction,ComponentPad*
%ADD20C,1.800000*%
G04 #@! TD*
G04 #@! TA.AperFunction,ComponentPad*
%ADD21C,4.300000*%
G04 #@! TD*
G04 #@! TA.AperFunction,ComponentPad*
%ADD22C,0.100000*%
G04 #@! TD*
G04 #@! TA.AperFunction,ViaPad*
%ADD23C,0.800000*%
G04 #@! TD*
G04 #@! TA.AperFunction,Conductor*
%ADD24C,0.500000*%
G04 #@! TD*
G04 #@! TA.AperFunction,Conductor*
%ADD25C,0.508000*%
G04 #@! TD*
G04 #@! TA.AperFunction,Conductor*
%ADD26C,0.254000*%
G04 #@! TD*
G04 APERTURE END LIST*
D10*
D11*
X177002200Y-166007200D02*
X177002200Y-198007200D01*
X285002200Y-198007200D01*
X285002200Y-166007200D01*
X177002200Y-166007200D01*
D10*
D11*
X10000000Y-10000000D02*
X10000000Y-200007200D01*
X287002200Y-200007200D01*
X287002200Y-10000000D01*
X10000000Y-10000000D01*
D10*
D11*
X12000000Y-12000000D02*
X12000000Y-198007200D01*
X285002200Y-198007200D01*
X285002200Y-12000000D01*
X12000000Y-12000000D01*
D10*
D11*
X60000000Y-12000000D02*
X60000000Y-10000000D01*
D10*
D11*
X110000000Y-12000000D02*
X110000000Y-10000000D01*
D10*
D11*
X160000000Y-12000000D02*
X160000000Y-10000000D01*
D10*
D11*
X210000000Y-12000000D02*
X210000000Y-10000000D01*
D10*
D11*
X260000000Y-12000000D02*
X260000000Y-10000000D01*
D10*
D11*
X36065476Y-11588095D02*
X35322619Y-11588095D01*
X35694047Y-11588095D02*
X35694047Y-10288095D01*
X35570238Y-10473809D01*
X35446428Y-10597619D01*
X35322619Y-10659523D01*
D10*
D11*
X85322619Y-10411904D02*
X85384523Y-10350000D01*
X85508333Y-10288095D01*
X85817857Y-10288095D01*
X85941666Y-10350000D01*
X86003571Y-10411904D01*
X86065476Y-10535714D01*
X86065476Y-10659523D01*
X86003571Y-10845238D01*
X85260714Y-11588095D01*
X86065476Y-11588095D01*
D10*
D11*
X135260714Y-10288095D02*
X136065476Y-10288095D01*
X135632142Y-10783333D01*
X135817857Y-10783333D01*
X135941666Y-10845238D01*
X136003571Y-10907142D01*
X136065476Y-11030952D01*
X136065476Y-11340476D01*
X136003571Y-11464285D01*
X135941666Y-11526190D01*
X135817857Y-11588095D01*
X135446428Y-11588095D01*
X135322619Y-11526190D01*
X135260714Y-11464285D01*
D10*
D11*
X185941666Y-10721428D02*
X185941666Y-11588095D01*
X185632142Y-10226190D02*
X185322619Y-11154761D01*
X186127380Y-11154761D01*
D10*
D11*
X236003571Y-10288095D02*
X235384523Y-10288095D01*
X235322619Y-10907142D01*
X235384523Y-10845238D01*
X235508333Y-10783333D01*
X235817857Y-10783333D01*
X235941666Y-10845238D01*
X236003571Y-10907142D01*
X236065476Y-11030952D01*
X236065476Y-11340476D01*
X236003571Y-11464285D01*
X235941666Y-11526190D01*
X235817857Y-11588095D01*
X235508333Y-11588095D01*
X235384523Y-11526190D01*
X235322619Y-11464285D01*
D10*
D11*
X285941666Y-10288095D02*
X285694047Y-10288095D01*
X285570238Y-10350000D01*
X285508333Y-10411904D01*
X285384523Y-10597619D01*
X285322619Y-10845238D01*
X285322619Y-11340476D01*
X285384523Y-11464285D01*
X285446428Y-11526190D01*
X285570238Y-11588095D01*
X285817857Y-11588095D01*
X285941666Y-11526190D01*
X286003571Y-11464285D01*
X286065476Y-11340476D01*
X286065476Y-11030952D01*
X286003571Y-10907142D01*
X285941666Y-10845238D01*
X285817857Y-10783333D01*
X285570238Y-10783333D01*
X285446428Y-10845238D01*
X285384523Y-10907142D01*
X285322619Y-11030952D01*
D10*
D11*
X60000000Y-198007200D02*
X60000000Y-200007200D01*
D10*
D11*
X110000000Y-198007200D02*
X110000000Y-200007200D01*
D10*
D11*
X160000000Y-198007200D02*
X160000000Y-200007200D01*
D10*
D11*
X210000000Y-198007200D02*
X210000000Y-200007200D01*
D10*
D11*
X260000000Y-198007200D02*
X260000000Y-200007200D01*
D10*
D11*
X36065476Y-199595295D02*
X35322619Y-199595295D01*
X35694047Y-199595295D02*
X35694047Y-198295295D01*
X35570238Y-198481009D01*
X35446428Y-198604819D01*
X35322619Y-198666723D01*
D10*
D11*
X85322619Y-198419104D02*
X85384523Y-198357200D01*
X85508333Y-198295295D01*
X85817857Y-198295295D01*
X85941666Y-198357200D01*
X86003571Y-198419104D01*
X86065476Y-198542914D01*
X86065476Y-198666723D01*
X86003571Y-198852438D01*
X85260714Y-199595295D01*
X86065476Y-199595295D01*
D10*
D11*
X135260714Y-198295295D02*
X136065476Y-198295295D01*
X135632142Y-198790533D01*
X135817857Y-198790533D01*
X135941666Y-198852438D01*
X136003571Y-198914342D01*
X136065476Y-199038152D01*
X136065476Y-199347676D01*
X136003571Y-199471485D01*
X135941666Y-199533390D01*
X135817857Y-199595295D01*
X135446428Y-199595295D01*
X135322619Y-199533390D01*
X135260714Y-199471485D01*
D10*
D11*
X185941666Y-198728628D02*
X185941666Y-199595295D01*
X185632142Y-198233390D02*
X185322619Y-199161961D01*
X186127380Y-199161961D01*
D10*
D11*
X236003571Y-198295295D02*
X235384523Y-198295295D01*
X235322619Y-198914342D01*
X235384523Y-198852438D01*
X235508333Y-198790533D01*
X235817857Y-198790533D01*
X235941666Y-198852438D01*
X236003571Y-198914342D01*
X236065476Y-199038152D01*
X236065476Y-199347676D01*
X236003571Y-199471485D01*
X235941666Y-199533390D01*
X235817857Y-199595295D01*
X235508333Y-199595295D01*
X235384523Y-199533390D01*
X235322619Y-199471485D01*
D10*
D11*
X285941666Y-198295295D02*
X285694047Y-198295295D01*
X285570238Y-198357200D01*
X285508333Y-198419104D01*
X285384523Y-198604819D01*
X285322619Y-198852438D01*
X285322619Y-199347676D01*
X285384523Y-199471485D01*
X285446428Y-199533390D01*
X285570238Y-199595295D01*
X285817857Y-199595295D01*
X285941666Y-199533390D01*
X286003571Y-199471485D01*
X286065476Y-199347676D01*
X286065476Y-199038152D01*
X286003571Y-198914342D01*
X285941666Y-198852438D01*
X285817857Y-198790533D01*
X285570238Y-198790533D01*
X285446428Y-198852438D01*
X285384523Y-198914342D01*
X285322619Y-199038152D01*
D10*
D11*
X10000000Y-60000000D02*
X12000000Y-60000000D01*
D10*
D11*
X10000000Y-110000000D02*
X12000000Y-110000000D01*
D10*
D11*
X10000000Y-160000000D02*
X12000000Y-160000000D01*
D10*
D11*
X10690476Y-35216666D02*
X11309523Y-35216666D01*
X10566666Y-35588095D02*
X11000000Y-34288095D01*
X11433333Y-35588095D01*
D10*
D11*
X11092857Y-84907142D02*
X11278571Y-84969047D01*
X11340476Y-85030952D01*
X11402380Y-85154761D01*
X11402380Y-85340476D01*
X11340476Y-85464285D01*
X11278571Y-85526190D01*
X11154761Y-85588095D01*
X10659523Y-85588095D01*
X10659523Y-84288095D01*
X11092857Y-84288095D01*
X11216666Y-84350000D01*
X11278571Y-84411904D01*
X11340476Y-84535714D01*
X11340476Y-84659523D01*
X11278571Y-84783333D01*
X11216666Y-84845238D01*
X11092857Y-84907142D01*
X10659523Y-84907142D01*
D10*
D11*
X11402380Y-135464285D02*
X11340476Y-135526190D01*
X11154761Y-135588095D01*
X11030952Y-135588095D01*
X10845238Y-135526190D01*
X10721428Y-135402380D01*
X10659523Y-135278571D01*
X10597619Y-135030952D01*
X10597619Y-134845238D01*
X10659523Y-134597619D01*
X10721428Y-134473809D01*
X10845238Y-134350000D01*
X11030952Y-134288095D01*
X11154761Y-134288095D01*
X11340476Y-134350000D01*
X11402380Y-134411904D01*
D10*
D11*
X10659523Y-185588095D02*
X10659523Y-184288095D01*
X10969047Y-184288095D01*
X11154761Y-184350000D01*
X11278571Y-184473809D01*
X11340476Y-184597619D01*
X11402380Y-184845238D01*
X11402380Y-185030952D01*
X11340476Y-185278571D01*
X11278571Y-185402380D01*
X11154761Y-185526190D01*
X10969047Y-185588095D01*
X10659523Y-185588095D01*
D10*
D11*
X287002200Y-60000000D02*
X285002200Y-60000000D01*
D10*
D11*
X287002200Y-110000000D02*
X285002200Y-110000000D01*
D10*
D11*
X287002200Y-160000000D02*
X285002200Y-160000000D01*
D10*
D11*
X285692676Y-35216666D02*
X286311723Y-35216666D01*
X285568866Y-35588095D02*
X286002200Y-34288095D01*
X286435533Y-35588095D01*
D10*
D11*
X286095057Y-84907142D02*
X286280771Y-84969047D01*
X286342676Y-85030952D01*
X286404580Y-85154761D01*
X286404580Y-85340476D01*
X286342676Y-85464285D01*
X286280771Y-85526190D01*
X286156961Y-85588095D01*
X285661723Y-85588095D01*
X285661723Y-84288095D01*
X286095057Y-84288095D01*
X286218866Y-84350000D01*
X286280771Y-84411904D01*
X286342676Y-84535714D01*
X286342676Y-84659523D01*
X286280771Y-84783333D01*
X286218866Y-84845238D01*
X286095057Y-84907142D01*
X285661723Y-84907142D01*
D10*
D11*
X286404580Y-135464285D02*
X286342676Y-135526190D01*
X286156961Y-135588095D01*
X286033152Y-135588095D01*
X285847438Y-135526190D01*
X285723628Y-135402380D01*
X285661723Y-135278571D01*
X285599819Y-135030952D01*
X285599819Y-134845238D01*
X285661723Y-134597619D01*
X285723628Y-134473809D01*
X285847438Y-134350000D01*
X286033152Y-134288095D01*
X286156961Y-134288095D01*
X286342676Y-134350000D01*
X286404580Y-134411904D01*
D10*
D11*
X285661723Y-185588095D02*
X285661723Y-184288095D01*
X285971247Y-184288095D01*
X286156961Y-184350000D01*
X286280771Y-184473809D01*
X286342676Y-184597619D01*
X286404580Y-184845238D01*
X286404580Y-185030952D01*
X286342676Y-185278571D01*
X286280771Y-185402380D01*
X286156961Y-185526190D01*
X285971247Y-185588095D01*
X285661723Y-185588095D01*
D10*
D11*
X200434342Y-193785771D02*
X200434342Y-192285771D01*
X200791485Y-192285771D01*
X201005771Y-192357200D01*
X201148628Y-192500057D01*
X201220057Y-192642914D01*
X201291485Y-192928628D01*
X201291485Y-193142914D01*
X201220057Y-193428628D01*
X201148628Y-193571485D01*
X201005771Y-193714342D01*
X200791485Y-193785771D01*
X200434342Y-193785771D01*
X202577200Y-193785771D02*
X202577200Y-193000057D01*
X202505771Y-192857200D01*
X202362914Y-192785771D01*
X202077200Y-192785771D01*
X201934342Y-192857200D01*
X202577200Y-193714342D02*
X202434342Y-193785771D01*
X202077200Y-193785771D01*
X201934342Y-193714342D01*
X201862914Y-193571485D01*
X201862914Y-193428628D01*
X201934342Y-193285771D01*
X202077200Y-193214342D01*
X202434342Y-193214342D01*
X202577200Y-193142914D01*
X203077200Y-192785771D02*
X203648628Y-192785771D01*
X203291485Y-192285771D02*
X203291485Y-193571485D01*
X203362914Y-193714342D01*
X203505771Y-193785771D01*
X203648628Y-193785771D01*
X204720057Y-193714342D02*
X204577200Y-193785771D01*
X204291485Y-193785771D01*
X204148628Y-193714342D01*
X204077200Y-193571485D01*
X204077200Y-193000057D01*
X204148628Y-192857200D01*
X204291485Y-192785771D01*
X204577200Y-192785771D01*
X204720057Y-192857200D01*
X204791485Y-193000057D01*
X204791485Y-193142914D01*
X204077200Y-193285771D01*
X205434342Y-193642914D02*
X205505771Y-193714342D01*
X205434342Y-193785771D01*
X205362914Y-193714342D01*
X205434342Y-193642914D01*
X205434342Y-193785771D01*
X205434342Y-192857200D02*
X205505771Y-192928628D01*
X205434342Y-193000057D01*
X205362914Y-192928628D01*
X205434342Y-192857200D01*
X205434342Y-193000057D01*
D10*
D11*
X177002200Y-194507200D02*
X285002200Y-194507200D01*
D10*
D11*
X178434342Y-196585771D02*
X178434342Y-195085771D01*
X179291485Y-196585771D02*
X178648628Y-195728628D01*
X179291485Y-195085771D02*
X178434342Y-195942914D01*
X179934342Y-196585771D02*
X179934342Y-195585771D01*
X179934342Y-195085771D02*
X179862914Y-195157200D01*
X179934342Y-195228628D01*
X180005771Y-195157200D01*
X179934342Y-195085771D01*
X179934342Y-195228628D01*
X181505771Y-196442914D02*
X181434342Y-196514342D01*
X181220057Y-196585771D01*
X181077200Y-196585771D01*
X180862914Y-196514342D01*
X180720057Y-196371485D01*
X180648628Y-196228628D01*
X180577200Y-195942914D01*
X180577200Y-195728628D01*
X180648628Y-195442914D01*
X180720057Y-195300057D01*
X180862914Y-195157200D01*
X181077200Y-195085771D01*
X181220057Y-195085771D01*
X181434342Y-195157200D01*
X181505771Y-195228628D01*
X182791485Y-196585771D02*
X182791485Y-195800057D01*
X182720057Y-195657200D01*
X182577200Y-195585771D01*
X182291485Y-195585771D01*
X182148628Y-195657200D01*
X182791485Y-196514342D02*
X182648628Y-196585771D01*
X182291485Y-196585771D01*
X182148628Y-196514342D01*
X182077200Y-196371485D01*
X182077200Y-196228628D01*
X182148628Y-196085771D01*
X182291485Y-196014342D01*
X182648628Y-196014342D01*
X182791485Y-195942914D01*
X184148628Y-196585771D02*
X184148628Y-195085771D01*
X184148628Y-196514342D02*
X184005771Y-196585771D01*
X183720057Y-196585771D01*
X183577200Y-196514342D01*
X183505771Y-196442914D01*
X183434342Y-196300057D01*
X183434342Y-195871485D01*
X183505771Y-195728628D01*
X183577200Y-195657200D01*
X183720057Y-195585771D01*
X184005771Y-195585771D01*
X184148628Y-195657200D01*
X186005771Y-195800057D02*
X186505771Y-195800057D01*
X186720057Y-196585771D02*
X186005771Y-196585771D01*
X186005771Y-195085771D01*
X186720057Y-195085771D01*
X187362914Y-196442914D02*
X187434342Y-196514342D01*
X187362914Y-196585771D01*
X187291485Y-196514342D01*
X187362914Y-196442914D01*
X187362914Y-196585771D01*
X188077200Y-196585771D02*
X188077200Y-195085771D01*
X188434342Y-195085771D01*
X188648628Y-195157200D01*
X188791485Y-195300057D01*
X188862914Y-195442914D01*
X188934342Y-195728628D01*
X188934342Y-195942914D01*
X188862914Y-196228628D01*
X188791485Y-196371485D01*
X188648628Y-196514342D01*
X188434342Y-196585771D01*
X188077200Y-196585771D01*
X189577200Y-196442914D02*
X189648628Y-196514342D01*
X189577200Y-196585771D01*
X189505771Y-196514342D01*
X189577200Y-196442914D01*
X189577200Y-196585771D01*
X190220057Y-196157200D02*
X190934342Y-196157200D01*
X190077200Y-196585771D02*
X190577200Y-195085771D01*
X191077200Y-196585771D01*
X191577200Y-196442914D02*
X191648628Y-196514342D01*
X191577200Y-196585771D01*
X191505771Y-196514342D01*
X191577200Y-196442914D01*
X191577200Y-196585771D01*
X194577200Y-196585771D02*
X194577200Y-195085771D01*
X194720057Y-196014342D02*
X195148628Y-196585771D01*
X195148628Y-195585771D02*
X194577200Y-196157200D01*
X195791485Y-196585771D02*
X195791485Y-195585771D01*
X195791485Y-195085771D02*
X195720057Y-195157200D01*
X195791485Y-195228628D01*
X195862914Y-195157200D01*
X195791485Y-195085771D01*
X195791485Y-195228628D01*
X197148628Y-196514342D02*
X197005771Y-196585771D01*
X196720057Y-196585771D01*
X196577200Y-196514342D01*
X196505771Y-196442914D01*
X196434342Y-196300057D01*
X196434342Y-195871485D01*
X196505771Y-195728628D01*
X196577200Y-195657200D01*
X196720057Y-195585771D01*
X197005771Y-195585771D01*
X197148628Y-195657200D01*
X198434342Y-196585771D02*
X198434342Y-195800057D01*
X198362914Y-195657200D01*
X198220057Y-195585771D01*
X197934342Y-195585771D01*
X197791485Y-195657200D01*
X198434342Y-196514342D02*
X198291485Y-196585771D01*
X197934342Y-196585771D01*
X197791485Y-196514342D01*
X197720057Y-196371485D01*
X197720057Y-196228628D01*
X197791485Y-196085771D01*
X197934342Y-196014342D01*
X198291485Y-196014342D01*
X198434342Y-195942914D01*
X199791485Y-196585771D02*
X199791485Y-195085771D01*
X199791485Y-196514342D02*
X199648628Y-196585771D01*
X199362914Y-196585771D01*
X199220057Y-196514342D01*
X199148628Y-196442914D01*
X199077200Y-196300057D01*
X199077200Y-195871485D01*
X199148628Y-195728628D01*
X199220057Y-195657200D01*
X199362914Y-195585771D01*
X199648628Y-195585771D01*
X199791485Y-195657200D01*
X202077200Y-197157200D02*
X202005771Y-197085771D01*
X201862914Y-196871485D01*
X201791485Y-196728628D01*
X201720057Y-196514342D01*
X201648628Y-196157200D01*
X201648628Y-195871485D01*
X201720057Y-195514342D01*
X201791485Y-195300057D01*
X201862914Y-195157200D01*
X202005771Y-194942914D01*
X202077200Y-194871485D01*
X203362914Y-195085771D02*
X202648628Y-195085771D01*
X202577200Y-195800057D01*
X202648628Y-195728628D01*
X202791485Y-195657200D01*
X203148628Y-195657200D01*
X203291485Y-195728628D01*
X203362914Y-195800057D01*
X203434342Y-195942914D01*
X203434342Y-196300057D01*
X203362914Y-196442914D01*
X203291485Y-196514342D01*
X203148628Y-196585771D01*
X202791485Y-196585771D01*
X202648628Y-196514342D01*
X202577200Y-196442914D01*
X204077200Y-196442914D02*
X204148628Y-196514342D01*
X204077200Y-196585771D01*
X204005771Y-196514342D01*
X204077200Y-196442914D01*
X204077200Y-196585771D01*
X205577200Y-196585771D02*
X204720057Y-196585771D01*
X205148628Y-196585771D02*
X205148628Y-195085771D01*
X205005771Y-195300057D01*
X204862914Y-195442914D01*
X204720057Y-195514342D01*
X206220057Y-196442914D02*
X206291485Y-196514342D01*
X206220057Y-196585771D01*
X206148628Y-196514342D01*
X206220057Y-196442914D01*
X206220057Y-196585771D01*
X207648628Y-195085771D02*
X206934342Y-195085771D01*
X206862914Y-195800057D01*
X206934342Y-195728628D01*
X207077200Y-195657200D01*
X207434342Y-195657200D01*
X207577200Y-195728628D01*
X207648628Y-195800057D01*
X207720057Y-195942914D01*
X207720057Y-196300057D01*
X207648628Y-196442914D01*
X207577200Y-196514342D01*
X207434342Y-196585771D01*
X207077200Y-196585771D01*
X206934342Y-196514342D01*
X206862914Y-196442914D01*
X208220057Y-197157200D02*
X208291485Y-197085771D01*
X208434342Y-196871485D01*
X208505771Y-196728628D01*
X208577200Y-196514342D01*
X208648628Y-196157200D01*
X208648628Y-195871485D01*
X208577200Y-195514342D01*
X208505771Y-195300057D01*
X208434342Y-195157200D01*
X208291485Y-194942914D01*
X208220057Y-194871485D01*
X209362914Y-196014342D02*
X210505771Y-196014342D01*
X211077200Y-195085771D02*
X212005771Y-195085771D01*
X211505771Y-195657200D01*
X211720057Y-195657200D01*
X211862914Y-195728628D01*
X211934342Y-195800057D01*
X212005771Y-195942914D01*
X212005771Y-196300057D01*
X211934342Y-196442914D01*
X211862914Y-196514342D01*
X211720057Y-196585771D01*
X211291485Y-196585771D01*
X211148628Y-196514342D01*
X211077200Y-196442914D01*
D10*
D11*
X177002200Y-191507200D02*
X285002200Y-191507200D01*
D10*
D12*
X264411485Y-193785771D02*
X263911485Y-193071485D01*
X263554342Y-193785771D02*
X263554342Y-192285771D01*
X264125771Y-192285771D01*
X264268628Y-192357200D01*
X264340057Y-192428628D01*
X264411485Y-192571485D01*
X264411485Y-192785771D01*
X264340057Y-192928628D01*
X264268628Y-193000057D01*
X264125771Y-193071485D01*
X263554342Y-193071485D01*
X265625771Y-193714342D02*
X265482914Y-193785771D01*
X265197200Y-193785771D01*
X265054342Y-193714342D01*
X264982914Y-193571485D01*
X264982914Y-193000057D01*
X265054342Y-192857200D01*
X265197200Y-192785771D01*
X265482914Y-192785771D01*
X265625771Y-192857200D01*
X265697200Y-193000057D01*
X265697200Y-193142914D01*
X264982914Y-193285771D01*
X266197200Y-192785771D02*
X266554342Y-193785771D01*
X266911485Y-192785771D01*
X267482914Y-193642914D02*
X267554342Y-193714342D01*
X267482914Y-193785771D01*
X267411485Y-193714342D01*
X267482914Y-193642914D01*
X267482914Y-193785771D01*
X267482914Y-192857200D02*
X267554342Y-192928628D01*
X267482914Y-193000057D01*
X267411485Y-192928628D01*
X267482914Y-192857200D01*
X267482914Y-193000057D01*
D10*
D11*
X178362914Y-193714342D02*
X178577200Y-193785771D01*
X178934342Y-193785771D01*
X179077200Y-193714342D01*
X179148628Y-193642914D01*
X179220057Y-193500057D01*
X179220057Y-193357200D01*
X179148628Y-193214342D01*
X179077200Y-193142914D01*
X178934342Y-193071485D01*
X178648628Y-193000057D01*
X178505771Y-192928628D01*
X178434342Y-192857200D01*
X178362914Y-192714342D01*
X178362914Y-192571485D01*
X178434342Y-192428628D01*
X178505771Y-192357200D01*
X178648628Y-192285771D01*
X179005771Y-192285771D01*
X179220057Y-192357200D01*
X179862914Y-193785771D02*
X179862914Y-192785771D01*
X179862914Y-192285771D02*
X179791485Y-192357200D01*
X179862914Y-192428628D01*
X179934342Y-192357200D01*
X179862914Y-192285771D01*
X179862914Y-192428628D01*
X180434342Y-192785771D02*
X181220057Y-192785771D01*
X180434342Y-193785771D01*
X181220057Y-193785771D01*
X182362914Y-193714342D02*
X182220057Y-193785771D01*
X181934342Y-193785771D01*
X181791485Y-193714342D01*
X181720057Y-193571485D01*
X181720057Y-193000057D01*
X181791485Y-192857200D01*
X181934342Y-192785771D01*
X182220057Y-192785771D01*
X182362914Y-192857200D01*
X182434342Y-193000057D01*
X182434342Y-193142914D01*
X181720057Y-193285771D01*
X183077200Y-193642914D02*
X183148628Y-193714342D01*
X183077200Y-193785771D01*
X183005771Y-193714342D01*
X183077200Y-193642914D01*
X183077200Y-193785771D01*
X183077200Y-192857200D02*
X183148628Y-192928628D01*
X183077200Y-193000057D01*
X183005771Y-192928628D01*
X183077200Y-192857200D01*
X183077200Y-193000057D01*
X184862914Y-193357200D02*
X185577200Y-193357200D01*
X184720057Y-193785771D02*
X185220057Y-192285771D01*
X185720057Y-193785771D01*
X186862914Y-192785771D02*
X186862914Y-193785771D01*
X186505771Y-192214342D02*
X186148628Y-193285771D01*
X187077200Y-193285771D01*
D10*
D11*
X263434342Y-196585771D02*
X263434342Y-195085771D01*
X264791485Y-196585771D02*
X264791485Y-195085771D01*
X264791485Y-196514342D02*
X264648628Y-196585771D01*
X264362914Y-196585771D01*
X264220057Y-196514342D01*
X264148628Y-196442914D01*
X264077200Y-196300057D01*
X264077200Y-195871485D01*
X264148628Y-195728628D01*
X264220057Y-195657200D01*
X264362914Y-195585771D01*
X264648628Y-195585771D01*
X264791485Y-195657200D01*
X265505771Y-196442914D02*
X265577200Y-196514342D01*
X265505771Y-196585771D01*
X265434342Y-196514342D01*
X265505771Y-196442914D01*
X265505771Y-196585771D01*
X265505771Y-195657200D02*
X265577200Y-195728628D01*
X265505771Y-195800057D01*
X265434342Y-195728628D01*
X265505771Y-195657200D01*
X265505771Y-195800057D01*
X268148628Y-196585771D02*
X267291485Y-196585771D01*
X267720057Y-196585771D02*
X267720057Y-195085771D01*
X267577200Y-195300057D01*
X267434342Y-195442914D01*
X267291485Y-195514342D01*
X269862914Y-195014342D02*
X268577200Y-196942914D01*
X271148628Y-196585771D02*
X270291485Y-196585771D01*
X270720057Y-196585771D02*
X270720057Y-195085771D01*
X270577200Y-195300057D01*
X270434342Y-195442914D01*
X270291485Y-195514342D01*
D10*
D11*
X177002200Y-187507200D02*
X285002200Y-187507200D01*
D10*
D13*
X178714580Y-188211961D02*
X179857438Y-188211961D01*
X179036009Y-190211961D02*
X179286009Y-188211961D01*
X180274104Y-190211961D02*
X180440771Y-188878628D01*
X180524104Y-188211961D02*
X180416961Y-188307200D01*
X180500295Y-188402438D01*
X180607438Y-188307200D01*
X180524104Y-188211961D01*
X180500295Y-188402438D01*
X181107438Y-188878628D02*
X181869342Y-188878628D01*
X181476485Y-188211961D02*
X181262200Y-189926247D01*
X181333628Y-190116723D01*
X181512200Y-190211961D01*
X181702676Y-190211961D01*
X182655057Y-190211961D02*
X182476485Y-190116723D01*
X182405057Y-189926247D01*
X182619342Y-188211961D01*
X184190771Y-190116723D02*
X183988390Y-190211961D01*
X183607438Y-190211961D01*
X183428866Y-190116723D01*
X183357438Y-189926247D01*
X183452676Y-189164342D01*
X183571723Y-188973866D01*
X183774104Y-188878628D01*
X184155057Y-188878628D01*
X184333628Y-188973866D01*
X184405057Y-189164342D01*
X184381247Y-189354819D01*
X183405057Y-189545295D01*
X185155057Y-190021485D02*
X185238390Y-190116723D01*
X185131247Y-190211961D01*
X185047914Y-190116723D01*
X185155057Y-190021485D01*
X185131247Y-190211961D01*
X185286009Y-188973866D02*
X185369342Y-189069104D01*
X185262200Y-189164342D01*
X185178866Y-189069104D01*
X185286009Y-188973866D01*
X185262200Y-189164342D01*
D10*
D11*
X178934342Y-185600057D02*
X178434342Y-185600057D01*
X178434342Y-186385771D02*
X178434342Y-184885771D01*
X179148628Y-184885771D01*
X179720057Y-186385771D02*
X179720057Y-185385771D01*
X179720057Y-184885771D02*
X179648628Y-184957200D01*
X179720057Y-185028628D01*
X179791485Y-184957200D01*
X179720057Y-184885771D01*
X179720057Y-185028628D01*
X180648628Y-186385771D02*
X180505771Y-186314342D01*
X180434342Y-186171485D01*
X180434342Y-184885771D01*
X181791485Y-186314342D02*
X181648628Y-186385771D01*
X181362914Y-186385771D01*
X181220057Y-186314342D01*
X181148628Y-186171485D01*
X181148628Y-185600057D01*
X181220057Y-185457200D01*
X181362914Y-185385771D01*
X181648628Y-185385771D01*
X181791485Y-185457200D01*
X181862914Y-185600057D01*
X181862914Y-185742914D01*
X181148628Y-185885771D01*
X182505771Y-186242914D02*
X182577200Y-186314342D01*
X182505771Y-186385771D01*
X182434342Y-186314342D01*
X182505771Y-186242914D01*
X182505771Y-186385771D01*
X182505771Y-185457200D02*
X182577200Y-185528628D01*
X182505771Y-185600057D01*
X182434342Y-185528628D01*
X182505771Y-185457200D01*
X182505771Y-185600057D01*
X184220057Y-184885771D02*
X184577200Y-186385771D01*
X184862914Y-185314342D01*
X185148628Y-186385771D01*
X185505771Y-184885771D01*
X186077200Y-186385771D02*
X186077200Y-185385771D01*
X186077200Y-184885771D02*
X186005771Y-184957200D01*
X186077200Y-185028628D01*
X186148628Y-184957200D01*
X186077200Y-184885771D01*
X186077200Y-185028628D01*
X187291485Y-185600057D02*
X186791485Y-185600057D01*
X186791485Y-186385771D02*
X186791485Y-184885771D01*
X187505771Y-184885771D01*
X188077200Y-186385771D02*
X188077200Y-185385771D01*
X188077200Y-184885771D02*
X188005771Y-184957200D01*
X188077200Y-185028628D01*
X188148628Y-184957200D01*
X188077200Y-184885771D01*
X188077200Y-185028628D01*
X188434342Y-186528628D02*
X189577200Y-186528628D01*
X190648628Y-186385771D02*
X189934342Y-186385771D01*
X189934342Y-184885771D01*
X192005771Y-186242914D02*
X191934342Y-186314342D01*
X191720057Y-186385771D01*
X191577200Y-186385771D01*
X191362914Y-186314342D01*
X191220057Y-186171485D01*
X191148628Y-186028628D01*
X191077200Y-185742914D01*
X191077200Y-185528628D01*
X191148628Y-185242914D01*
X191220057Y-185100057D01*
X191362914Y-184957200D01*
X191577200Y-184885771D01*
X191720057Y-184885771D01*
X191934342Y-184957200D01*
X192005771Y-185028628D01*
X192648628Y-186385771D02*
X192648628Y-184885771D01*
X193005771Y-184885771D01*
X193220057Y-184957200D01*
X193362914Y-185100057D01*
X193434342Y-185242914D01*
X193505771Y-185528628D01*
X193505771Y-185742914D01*
X193434342Y-186028628D01*
X193362914Y-186171485D01*
X193220057Y-186314342D01*
X193005771Y-186385771D01*
X192648628Y-186385771D01*
X193791485Y-186528628D02*
X194934342Y-186528628D01*
X195934342Y-186314342D02*
X195791485Y-186385771D01*
X195505771Y-186385771D01*
X195362914Y-186314342D01*
X195291485Y-186242914D01*
X195220057Y-186100057D01*
X195220057Y-185671485D01*
X195291485Y-185528628D01*
X195362914Y-185457200D01*
X195505771Y-185385771D01*
X195791485Y-185385771D01*
X195934342Y-185457200D01*
X196791485Y-186385771D02*
X196648628Y-186314342D01*
X196577200Y-186171485D01*
X196577200Y-184885771D01*
X197577200Y-186385771D02*
X197434342Y-186314342D01*
X197362914Y-186242914D01*
X197291485Y-186100057D01*
X197291485Y-185671485D01*
X197362914Y-185528628D01*
X197434342Y-185457200D01*
X197577200Y-185385771D01*
X197791485Y-185385771D01*
X197934342Y-185457200D01*
X198005771Y-185528628D01*
X198077200Y-185671485D01*
X198077200Y-186100057D01*
X198005771Y-186242914D01*
X197934342Y-186314342D01*
X197791485Y-186385771D01*
X197577200Y-186385771D01*
X199362914Y-186314342D02*
X199220057Y-186385771D01*
X198934342Y-186385771D01*
X198791485Y-186314342D01*
X198720057Y-186242914D01*
X198648628Y-186100057D01*
X198648628Y-185671485D01*
X198720057Y-185528628D01*
X198791485Y-185457200D01*
X198934342Y-185385771D01*
X199220057Y-185385771D01*
X199362914Y-185457200D01*
X200005771Y-186385771D02*
X200005771Y-184885771D01*
X200148628Y-185814342D02*
X200577200Y-186385771D01*
X200577200Y-185385771D02*
X200005771Y-185957200D01*
X201220057Y-186242914D02*
X201291485Y-186314342D01*
X201220057Y-186385771D01*
X201148628Y-186314342D01*
X201220057Y-186242914D01*
X201220057Y-186385771D01*
X201934342Y-186385771D02*
X201934342Y-184885771D01*
X202077200Y-185814342D02*
X202505771Y-186385771D01*
X202505771Y-185385771D02*
X201934342Y-185957200D01*
X203148628Y-186385771D02*
X203148628Y-185385771D01*
X203148628Y-184885771D02*
X203077200Y-184957200D01*
X203148628Y-185028628D01*
X203220057Y-184957200D01*
X203148628Y-184885771D01*
X203148628Y-185028628D01*
X204505771Y-186314342D02*
X204362914Y-186385771D01*
X204077200Y-186385771D01*
X203934342Y-186314342D01*
X203862914Y-186242914D01*
X203791485Y-186100057D01*
X203791485Y-185671485D01*
X203862914Y-185528628D01*
X203934342Y-185457200D01*
X204077200Y-185385771D01*
X204362914Y-185385771D01*
X204505771Y-185457200D01*
X205791485Y-186385771D02*
X205791485Y-185600057D01*
X205720057Y-185457200D01*
X205577200Y-185385771D01*
X205291485Y-185385771D01*
X205148628Y-185457200D01*
X205791485Y-186314342D02*
X205648628Y-186385771D01*
X205291485Y-186385771D01*
X205148628Y-186314342D01*
X205077200Y-186171485D01*
X205077200Y-186028628D01*
X205148628Y-185885771D01*
X205291485Y-185814342D01*
X205648628Y-185814342D01*
X205791485Y-185742914D01*
X207148628Y-186385771D02*
X207148628Y-184885771D01*
X207148628Y-186314342D02*
X207005771Y-186385771D01*
X206720057Y-186385771D01*
X206577200Y-186314342D01*
X206505771Y-186242914D01*
X206434342Y-186100057D01*
X206434342Y-185671485D01*
X206505771Y-185528628D01*
X206577200Y-185457200D01*
X206720057Y-185385771D01*
X207005771Y-185385771D01*
X207148628Y-185457200D01*
X207505771Y-186528628D02*
X208648628Y-186528628D01*
X209005771Y-185385771D02*
X209005771Y-186885771D01*
X209005771Y-185457200D02*
X209148628Y-185385771D01*
X209434342Y-185385771D01*
X209577200Y-185457200D01*
X209648628Y-185528628D01*
X209720057Y-185671485D01*
X209720057Y-186100057D01*
X209648628Y-186242914D01*
X209577200Y-186314342D01*
X209434342Y-186385771D01*
X209148628Y-186385771D01*
X209005771Y-186314342D01*
X211005771Y-186314342D02*
X210862914Y-186385771D01*
X210577200Y-186385771D01*
X210434342Y-186314342D01*
X210362914Y-186242914D01*
X210291485Y-186100057D01*
X210291485Y-185671485D01*
X210362914Y-185528628D01*
X210434342Y-185457200D01*
X210577200Y-185385771D01*
X210862914Y-185385771D01*
X211005771Y-185457200D01*
X211648628Y-186385771D02*
X211648628Y-184885771D01*
X211648628Y-185457200D02*
X211791485Y-185385771D01*
X212077200Y-185385771D01*
X212220057Y-185457200D01*
X212291485Y-185528628D01*
X212362914Y-185671485D01*
X212362914Y-186100057D01*
X212291485Y-186242914D01*
X212220057Y-186314342D01*
X212077200Y-186385771D01*
X211791485Y-186385771D01*
X211648628Y-186314342D01*
D10*
D11*
X177002200Y-181507200D02*
X285002200Y-181507200D01*
D10*
D11*
X178362914Y-183614342D02*
X178577200Y-183685771D01*
X178934342Y-183685771D01*
X179077200Y-183614342D01*
X179148628Y-183542914D01*
X179220057Y-183400057D01*
X179220057Y-183257200D01*
X179148628Y-183114342D01*
X179077200Y-183042914D01*
X178934342Y-182971485D01*
X178648628Y-182900057D01*
X178505771Y-182828628D01*
X178434342Y-182757200D01*
X178362914Y-182614342D01*
X178362914Y-182471485D01*
X178434342Y-182328628D01*
X178505771Y-182257200D01*
X178648628Y-182185771D01*
X179005771Y-182185771D01*
X179220057Y-182257200D01*
X179862914Y-183685771D02*
X179862914Y-182185771D01*
X180505771Y-183685771D02*
X180505771Y-182900057D01*
X180434342Y-182757200D01*
X180291485Y-182685771D01*
X180077200Y-182685771D01*
X179934342Y-182757200D01*
X179862914Y-182828628D01*
X181791485Y-183614342D02*
X181648628Y-183685771D01*
X181362914Y-183685771D01*
X181220057Y-183614342D01*
X181148628Y-183471485D01*
X181148628Y-182900057D01*
X181220057Y-182757200D01*
X181362914Y-182685771D01*
X181648628Y-182685771D01*
X181791485Y-182757200D01*
X181862914Y-182900057D01*
X181862914Y-183042914D01*
X181148628Y-183185771D01*
X183077200Y-183614342D02*
X182934342Y-183685771D01*
X182648628Y-183685771D01*
X182505771Y-183614342D01*
X182434342Y-183471485D01*
X182434342Y-182900057D01*
X182505771Y-182757200D01*
X182648628Y-182685771D01*
X182934342Y-182685771D01*
X183077200Y-182757200D01*
X183148628Y-182900057D01*
X183148628Y-183042914D01*
X182434342Y-183185771D01*
X183577200Y-182685771D02*
X184148628Y-182685771D01*
X183791485Y-182185771D02*
X183791485Y-183471485D01*
X183862914Y-183614342D01*
X184005771Y-183685771D01*
X184148628Y-183685771D01*
X184648628Y-183542914D02*
X184720057Y-183614342D01*
X184648628Y-183685771D01*
X184577200Y-183614342D01*
X184648628Y-183542914D01*
X184648628Y-183685771D01*
X184648628Y-182757200D02*
X184720057Y-182828628D01*
X184648628Y-182900057D01*
X184577200Y-182828628D01*
X184648628Y-182757200D01*
X184648628Y-182900057D01*
D10*
D11*
X197002200Y-191507200D02*
X197002200Y-194507200D01*
D10*
D11*
X261002200Y-191507200D02*
X261002200Y-198007200D01*
D14*
G04 #@! TO.P,U1,16*
G04 #@! TO.N,N/C*
X130810000Y-113030000D03*
G04 #@! TO.P,U1,15*
X133350000Y-113030000D03*
G04 #@! TO.P,U1,14*
G04 #@! TO.N,LCD_RS*
X135890000Y-113030000D03*
G04 #@! TO.P,U1,13*
G04 #@! TO.N,LCD_E*
X138430000Y-113030000D03*
G04 #@! TO.P,U1,12*
G04 #@! TO.N,Net-(SW1-Pad1)*
X140970000Y-113030000D03*
G04 #@! TO.P,U1,11*
G04 #@! TO.N,N/C*
X143510000Y-113030000D03*
G04 #@! TO.P,U1,10*
G04 #@! TO.N,GND*
X146050000Y-113030000D03*
G04 #@! TO.P,U1,9*
G04 #@! TO.N,N/C*
X148590000Y-113030000D03*
G04 #@! TO.P,U1,8*
G04 #@! TO.N,+3V3*
X148590000Y-90170000D03*
G04 #@! TO.P,U1,7*
G04 #@! TO.N,/LCD_D7*
X146050000Y-90170000D03*
G04 #@! TO.P,U1,6*
G04 #@! TO.N,/LCD_D6*
X143510000Y-90170000D03*
G04 #@! TO.P,U1,5*
G04 #@! TO.N,/LCD_D5*
X140970000Y-90170000D03*
G04 #@! TO.P,U1,4*
G04 #@! TO.N,/LCD_D4*
X138430000Y-90170000D03*
G04 #@! TO.P,U1,3*
G04 #@! TO.N,Net-(R3-Pad2)*
X135890000Y-90170000D03*
D15*
G04 #@! TO.P,U1,1*
G04 #@! TO.N,N/C*
X130810000Y-90170000D03*
D14*
G04 #@! TO.P,U1,2*
G04 #@! TO.N,AMBIENT*
X133350000Y-90170000D03*
G04 #@! TD*
D16*
G04 #@! TO.P,C2,2*
G04 #@! TO.N,GND*
X115290500Y-88646000D03*
G04 #@! TO.P,C2,1*
G04 #@! TO.N,/CONTRAST*
X110210500Y-88646000D03*
G04 #@! TD*
G04 #@! TO.P,C1,2*
G04 #@! TO.N,+3V3*
X107442000Y-88646000D03*
G04 #@! TO.P,C1,1*
G04 #@! TO.N,GND*
X102362000Y-88646000D03*
G04 #@! TD*
G04 #@! TO.P,C3,2*
G04 #@! TO.N,GND*
X138684000Y-92964000D03*
G04 #@! TO.P,C3,1*
G04 #@! TO.N,BK_LIGHT*
X143764000Y-92964000D03*
G04 #@! TD*
D17*
G04 #@! TO.P,SW1,1*
G04 #@! TO.N,Net-(SW1-Pad1)*
X169060000Y-86360000D03*
G04 #@! TO.P,SW1,2*
G04 #@! TO.N,GND*
X169060000Y-81860000D03*
G04 #@! TO.P,SW1,1*
G04 #@! TO.N,Net-(SW1-Pad1)*
X162560000Y-86360000D03*
G04 #@! TO.P,SW1,2*
G04 #@! TO.N,GND*
X162560000Y-81860000D03*
G04 #@! TD*
D18*
G04 #@! TO.P,RV1,1*
G04 #@! TO.N,+3V3*
X107696000Y-99060000D03*
G04 #@! TO.P,RV1,2*
G04 #@! TO.N,/CONTRAST*
X110196000Y-94060000D03*
G04 #@! TO.P,RV1,3*
G04 #@! TO.N,GND*
X112696000Y-99060000D03*
G04 #@! TD*
D16*
G04 #@! TO.P,R3,2*
G04 #@! TO.N,Net-(R3-Pad2)*
X136144000Y-95250000D03*
G04 #@! TO.P,R3,1*
G04 #@! TO.N,BK_LIGHT*
X143764000Y-95250000D03*
G04 #@! TD*
D19*
G04 #@! TO.P,R2,2*
G04 #@! TO.N,AMBIENT*
X153670000Y-85090000D03*
G04 #@! TO.P,R2,1*
G04 #@! TO.N,+3V3*
X153670000Y-82550000D03*
G04 #@! TD*
D16*
G04 #@! TO.P,R1,2*
G04 #@! TO.N,GND*
X143764000Y-97536000D03*
G04 #@! TO.P,R1,1*
G04 #@! TO.N,AMBIENT*
X136144000Y-97536000D03*
G04 #@! TD*
D20*
G04 #@! TO.P,LCD1,2*
G04 #@! TO.N,+3V3*
X107604999Y-81930999D03*
D21*
G04 #@! TO.P,LCD1,*
G04 #@! TO.N,*
X174564999Y-112930999D03*
D20*
G04 #@! TO.P,LCD1,3*
G04 #@! TO.N,/CONTRAST*
X110144999Y-81930999D03*
G04 #@! TO.P,LCD1,6*
G04 #@! TO.N,LCD_E*
X117764999Y-81930999D03*
G04 #@! TO.P,LCD1,13*
G04 #@! TO.N,/LCD_D6*
X135544999Y-81930999D03*
G04 #@! TO.P,LCD1,16*
G04 #@! TO.N,GND*
X143164999Y-81930999D03*
G04 #@! TO.P,LCD1,14*
G04 #@! TO.N,/LCD_D7*
X138084999Y-81930999D03*
G04 #@! TO.P,LCD1,5*
G04 #@! TO.N,GND*
X115224999Y-81930999D03*
G04 #@! TO.P,LCD1,15*
G04 #@! TO.N,BK_LIGHT*
X140624999Y-81930999D03*
D21*
G04 #@! TO.P,LCD1,*
G04 #@! TO.N,*
X99564999Y-81930999D03*
X174564999Y-81930999D03*
D20*
G04 #@! TO.P,LCD1,4*
G04 #@! TO.N,LCD_RS*
X112684999Y-81930999D03*
G04 #@! TO.P,LCD1,7*
G04 #@! TO.N,N/C*
X120304999Y-81930999D03*
G04 #@! TO.P,LCD1,9*
X125384999Y-81930999D03*
D21*
G04 #@! TO.P,LCD1,*
G04 #@! TO.N,*
X99564999Y-112930999D03*
D20*
G04 #@! TO.P,LCD1,12*
G04 #@! TO.N,/LCD_D5*
X133004999Y-81930999D03*
G04 #@! TO.P,LCD1,8*
G04 #@! TO.N,N/C*
X122844999Y-81930999D03*
G04 #@! TO.P,LCD1,11*
G04 #@! TO.N,/LCD_D4*
X130464999Y-81930999D03*
G04 #@! TO.P,LCD1,10*
G04 #@! TO.N,N/C*
X127924999Y-81930999D03*
G04 #@! TA.AperFunction,ComponentPad*
D22*
G04 #@! TO.P,LCD1,1*
G04 #@! TO.N,GND*
G36*
X105559107Y-81033166D02*
G01*
X105602790Y-81039646D01*
X105645627Y-81050376D01*
X105687207Y-81065253D01*
X105727128Y-81084134D01*
X105765006Y-81106838D01*
X105800476Y-81133144D01*
X105833197Y-81162801D01*
X105862854Y-81195522D01*
X105889160Y-81230992D01*
X105911864Y-81268870D01*
X105930745Y-81308791D01*
X105945622Y-81350371D01*
X105956352Y-81393208D01*
X105962832Y-81436891D01*
X105964999Y-81480999D01*
X105964999Y-82380999D01*
X105962832Y-82425107D01*
X105956352Y-82468790D01*
X105945622Y-82511627D01*
X105930745Y-82553207D01*
X105911864Y-82593128D01*
X105889160Y-82631006D01*
X105862854Y-82666476D01*
X105833197Y-82699197D01*
X105800476Y-82728854D01*
X105765006Y-82755160D01*
X105727128Y-82777864D01*
X105687207Y-82796745D01*
X105645627Y-82811622D01*
X105602790Y-82822352D01*
X105559107Y-82828832D01*
X105514999Y-82830999D01*
X104614999Y-82830999D01*
X104570891Y-82828832D01*
X104527208Y-82822352D01*
X104484371Y-82811622D01*
X104442791Y-82796745D01*
X104402870Y-82777864D01*
X104364992Y-82755160D01*
X104329522Y-82728854D01*
X104296801Y-82699197D01*
X104267144Y-82666476D01*
X104240838Y-82631006D01*
X104218134Y-82593128D01*
X104199253Y-82553207D01*
X104184376Y-82511627D01*
X104173646Y-82468790D01*
X104167166Y-82425107D01*
X104164999Y-82380999D01*
X104164999Y-81480999D01*
X104167166Y-81436891D01*
X104173646Y-81393208D01*
X104184376Y-81350371D01*
X104199253Y-81308791D01*
X104218134Y-81268870D01*
X104240838Y-81230992D01*
X104267144Y-81195522D01*
X104296801Y-81162801D01*
X104329522Y-81133144D01*
X104364992Y-81106838D01*
X104402870Y-81084134D01*
X104442791Y-81065253D01*
X104484371Y-81050376D01*
X104527208Y-81039646D01*
X104570891Y-81033166D01*
X104614999Y-81030999D01*
X105514999Y-81030999D01*
X105559107Y-81033166D01*
G37*
G04 #@! TD.AperFunction*
G04 #@! TD*
D23*
G04 #@! TO.N,GND*
X128270000Y-85090000D03*
X130810000Y-85090000D03*
X125730000Y-85090000D03*
X123190000Y-85090000D03*
X120650000Y-85090000D03*
X123190000Y-87630000D03*
X130810000Y-87630000D03*
X133350000Y-87630000D03*
X128270000Y-87630000D03*
X125730000Y-87630000D03*
X144780000Y-83820000D03*
X146050000Y-82550000D03*
X146050000Y-85090000D03*
X147320000Y-83820000D03*
X99060000Y-96520000D03*
X99060000Y-88900000D03*
X99060000Y-86360000D03*
X99060000Y-91440000D03*
X99060000Y-93980000D03*
X99060000Y-109220000D03*
X99060000Y-99060000D03*
X99060000Y-104140000D03*
X99060000Y-101600000D03*
X99060000Y-106680000D03*
X175260000Y-96520000D03*
X175260000Y-86360000D03*
X175260000Y-109220000D03*
X175260000Y-91440000D03*
X175260000Y-106680000D03*
X175260000Y-104140000D03*
X175260000Y-99060000D03*
X175260000Y-101600000D03*
X175260000Y-88900000D03*
X175260000Y-93980000D03*
X152400000Y-113030000D03*
X154940000Y-113030000D03*
X167640000Y-113030000D03*
X160020000Y-113030000D03*
X157480000Y-113030000D03*
X165100000Y-113030000D03*
X162560000Y-113030000D03*
X170180000Y-113030000D03*
X114300000Y-113030000D03*
X106680000Y-113030000D03*
X119380000Y-113030000D03*
X109220000Y-113030000D03*
X111760000Y-113030000D03*
X121920000Y-113030000D03*
X116840000Y-113030000D03*
X104140000Y-113030000D03*
X127000000Y-113030000D03*
X124460000Y-113030000D03*
X130810000Y-92710000D03*
X130810000Y-95250000D03*
X128270000Y-92710000D03*
X128270000Y-90170000D03*
X125730000Y-90170000D03*
X147320000Y-95250000D03*
X149860000Y-95250000D03*
X147320000Y-97790000D03*
X149860000Y-92710000D03*
X152400000Y-92710000D03*
X147320000Y-101600000D03*
X144780000Y-101600000D03*
X142240000Y-101600000D03*
X139700000Y-101600000D03*
X139700000Y-104140000D03*
X142240000Y-104140000D03*
X144780000Y-104140000D03*
X142240000Y-106680000D03*
X139700000Y-106680000D03*
X139700000Y-109220000D03*
X152400000Y-90170000D03*
X152400000Y-87630000D03*
X149860000Y-87630000D03*
X149860000Y-85090000D03*
G04 #@! TD*
D24*
G04 #@! TO.N,+3V3*
X107604999Y-88483001D02*
X107442000Y-88646000D01*
X107604999Y-81930999D02*
X107604999Y-88483001D01*
D25*
X107604999Y-80658207D02*
X107999206Y-80264000D01*
X107604999Y-81930999D02*
X107604999Y-80658207D01*
X107999206Y-80264000D02*
X147066000Y-80264000D01*
X147066000Y-80264000D02*
X148590000Y-81788000D01*
X148590000Y-85283998D02*
X148590000Y-90170000D01*
X107442000Y-98806000D02*
X107696000Y-99060000D01*
X107442000Y-88646000D02*
X107442000Y-98806000D01*
X153670000Y-82550000D02*
X148590000Y-82550000D01*
X148590000Y-81788000D02*
X148590000Y-82550000D01*
X148590000Y-82550000D02*
X148590000Y-85283998D01*
D24*
G04 #@! TO.N,/CONTRAST*
X110144999Y-88580499D02*
X110210500Y-88646000D01*
X110144999Y-81930999D02*
X110144999Y-88580499D01*
D25*
X110210500Y-94045500D02*
X110196000Y-94060000D01*
X110210500Y-88646000D02*
X110210500Y-94045500D01*
D24*
G04 #@! TO.N,BK_LIGHT*
X143764000Y-95250000D02*
X143764000Y-92964000D01*
D26*
X140624999Y-81930999D02*
X147320000Y-88626000D01*
X147320000Y-88626000D02*
X147320000Y-91440000D01*
X145796000Y-92964000D02*
X143764000Y-92964000D01*
X147320000Y-91440000D02*
X145796000Y-92964000D01*
D24*
G04 #@! TO.N,LCD_E*
X117764999Y-81930999D02*
X117764999Y-84744999D01*
X138430000Y-105410000D02*
X138430000Y-113030000D01*
X117764999Y-84744999D02*
X138430000Y-105410000D01*
G04 #@! TO.N,/LCD_D6*
X143510000Y-89896000D02*
X143510000Y-90170000D01*
X135544999Y-81930999D02*
X143510000Y-89896000D01*
G04 #@! TO.N,/LCD_D7*
X146050000Y-89896000D02*
X146050000Y-90170000D01*
X138084999Y-81930999D02*
X146050000Y-89896000D01*
G04 #@! TO.N,LCD_RS*
X112684999Y-81930999D02*
X135890000Y-105136000D01*
X135890000Y-105136000D02*
X135890000Y-113030000D01*
G04 #@! TO.N,/LCD_D5*
X140970000Y-89896000D02*
X140970000Y-90170000D01*
X133004999Y-81930999D02*
X140970000Y-89896000D01*
G04 #@! TO.N,/LCD_D4*
X138430000Y-89896000D02*
X138430000Y-90170000D01*
X130464999Y-81930999D02*
X138430000Y-89896000D01*
D25*
G04 #@! TO.N,AMBIENT*
X133350000Y-94742000D02*
X136144000Y-97536000D01*
X133350000Y-90170000D02*
X133350000Y-94742000D01*
X153670000Y-93345000D02*
X153670000Y-85090000D01*
X136144000Y-97536000D02*
X138303000Y-99695000D01*
X147320000Y-99695000D02*
X153670000Y-93345000D01*
X138303000Y-99695000D02*
X147320000Y-99695000D01*
D24*
G04 #@! TO.N,Net-(R3-Pad2)*
X135890000Y-94996000D02*
X136144000Y-95250000D01*
X135890000Y-90170000D02*
X135890000Y-94996000D01*
D25*
G04 #@! TO.N,Net-(SW1-Pad1)*
X162560000Y-85598000D02*
X162560000Y-89535000D01*
X140970000Y-111125000D02*
X140970000Y-113030000D01*
X162560000Y-89535000D02*
X140970000Y-111125000D01*
X169060000Y-86360000D02*
X162560000Y-86360000D01*
G04 #@! TD*
D26*
G04 #@! TO.N,GND*
G36*
X106945506Y-80060465D02*
G01*
X106945504Y-80060467D01*
X106862247Y-80161916D01*
X106779697Y-80316355D01*
X106728863Y-80483933D01*
X106711699Y-80658207D01*
X106713875Y-80680301D01*
X106626494Y-80738687D01*
X106560055Y-80805126D01*
X106554501Y-80786819D01*
X106495536Y-80676505D01*
X106416184Y-80579814D01*
X106319493Y-80500462D01*
X106209179Y-80441497D01*
X106089481Y-80405187D01*
X105964999Y-80392927D01*
X105350749Y-80395999D01*
X105191999Y-80554749D01*
X105191999Y-81803999D01*
X105211999Y-81803999D01*
X105211999Y-82057999D01*
X105191999Y-82057999D01*
X105191999Y-83307249D01*
X105350749Y-83465999D01*
X105964999Y-83469071D01*
X106089481Y-83456811D01*
X106209179Y-83420501D01*
X106319493Y-83361536D01*
X106416184Y-83282184D01*
X106495536Y-83185493D01*
X106554501Y-83075179D01*
X106560055Y-83056872D01*
X106626494Y-83123311D01*
X106719999Y-83185789D01*
X106720000Y-87342431D01*
X106495368Y-87492525D01*
X106288525Y-87699368D01*
X106126010Y-87942589D01*
X106014068Y-88212842D01*
X105957000Y-88499740D01*
X105957000Y-88792260D01*
X106014068Y-89079158D01*
X106126010Y-89349411D01*
X106288525Y-89592632D01*
X106495368Y-89799475D01*
X106553000Y-89837984D01*
X106553001Y-98169687D01*
X106415457Y-98375536D01*
X106306530Y-98638509D01*
X106251000Y-98917680D01*
X106251000Y-99202320D01*
X106306530Y-99481491D01*
X106415457Y-99744464D01*
X106573595Y-99981134D01*
X106774866Y-100182405D01*
X107011536Y-100340543D01*
X107274509Y-100449470D01*
X107553680Y-100505000D01*
X107838320Y-100505000D01*
X108117491Y-100449470D01*
X108380464Y-100340543D01*
X108617134Y-100182405D01*
X108739696Y-100059843D01*
X111875762Y-100059843D01*
X111948556Y-100304832D01*
X112205773Y-100426733D01*
X112481829Y-100496110D01*
X112766115Y-100510298D01*
X113047706Y-100468752D01*
X113315783Y-100373068D01*
X113443444Y-100304832D01*
X113516238Y-100059843D01*
X112696000Y-99239605D01*
X111875762Y-100059843D01*
X108739696Y-100059843D01*
X108818405Y-99981134D01*
X108976543Y-99744464D01*
X109085470Y-99481491D01*
X109141000Y-99202320D01*
X109141000Y-99130115D01*
X111245702Y-99130115D01*
X111287248Y-99411706D01*
X111382932Y-99679783D01*
X111451168Y-99807444D01*
X111696157Y-99880238D01*
X112516395Y-99060000D01*
X112875605Y-99060000D01*
X113695843Y-99880238D01*
X113940832Y-99807444D01*
X114062733Y-99550227D01*
X114132110Y-99274171D01*
X114146298Y-98989885D01*
X114104752Y-98708294D01*
X114009068Y-98440217D01*
X113940832Y-98312556D01*
X113695843Y-98239762D01*
X112875605Y-99060000D01*
X112516395Y-99060000D01*
X111696157Y-98239762D01*
X111451168Y-98312556D01*
X111329267Y-98569773D01*
X111259890Y-98845829D01*
X111245702Y-99130115D01*
X109141000Y-99130115D01*
X109141000Y-98917680D01*
X109085470Y-98638509D01*
X108976543Y-98375536D01*
X108818405Y-98138866D01*
X108739696Y-98060157D01*
X111875762Y-98060157D01*
X112696000Y-98880395D01*
X113516238Y-98060157D01*
X113443444Y-97815168D01*
X113186227Y-97693267D01*
X112910171Y-97623890D01*
X112625885Y-97609702D01*
X112344294Y-97651248D01*
X112076217Y-97746932D01*
X111948556Y-97815168D01*
X111875762Y-98060157D01*
X108739696Y-98060157D01*
X108617134Y-97937595D01*
X108380464Y-97779457D01*
X108331000Y-97758968D01*
X108331000Y-89837983D01*
X108388632Y-89799475D01*
X108595475Y-89592632D01*
X108757990Y-89349411D01*
X108826250Y-89184616D01*
X108894510Y-89349411D01*
X109057025Y-89592632D01*
X109263868Y-89799475D01*
X109321500Y-89837984D01*
X109321501Y-92906435D01*
X109274866Y-92937595D01*
X109073595Y-93138866D01*
X108915457Y-93375536D01*
X108806530Y-93638509D01*
X108751000Y-93917680D01*
X108751000Y-94202320D01*
X108806530Y-94481491D01*
X108915457Y-94744464D01*
X109073595Y-94981134D01*
X109274866Y-95182405D01*
X109511536Y-95340543D01*
X109774509Y-95449470D01*
X110053680Y-95505000D01*
X110338320Y-95505000D01*
X110617491Y-95449470D01*
X110880464Y-95340543D01*
X111117134Y-95182405D01*
X111318405Y-94981134D01*
X111476543Y-94744464D01*
X111585470Y-94481491D01*
X111641000Y-94202320D01*
X111641000Y-93917680D01*
X111585470Y-93638509D01*
X111476543Y-93375536D01*
X111318405Y-93138866D01*
X111117134Y-92937595D01*
X111099500Y-92925812D01*
X111099500Y-89837983D01*
X111157132Y-89799475D01*
X111282210Y-89674397D01*
X114441708Y-89674397D01*
X114519343Y-89923472D01*
X114783383Y-90049371D01*
X115066911Y-90121339D01*
X115359031Y-90136611D01*
X115648519Y-90094599D01*
X115924247Y-89996919D01*
X116061657Y-89923472D01*
X116139292Y-89674397D01*
X115290500Y-88825605D01*
X114441708Y-89674397D01*
X111282210Y-89674397D01*
X111363975Y-89592632D01*
X111526490Y-89349411D01*
X111638432Y-89079158D01*
X111695500Y-88792260D01*
X111695500Y-88714531D01*
X113799889Y-88714531D01*
X113841901Y-89004019D01*
X113939581Y-89279747D01*
X114013028Y-89417157D01*
X114262103Y-89494792D01*
X115110895Y-88646000D01*
X115470105Y-88646000D01*
X116318897Y-89494792D01*
X116567972Y-89417157D01*
X116693871Y-89153117D01*
X116765839Y-88869589D01*
X116781111Y-88577469D01*
X116739099Y-88287981D01*
X116641419Y-88012253D01*
X116567972Y-87874843D01*
X116318897Y-87797208D01*
X115470105Y-88646000D01*
X115110895Y-88646000D01*
X114262103Y-87797208D01*
X114013028Y-87874843D01*
X113887129Y-88138883D01*
X113815161Y-88422411D01*
X113799889Y-88714531D01*
X111695500Y-88714531D01*
X111695500Y-88499740D01*
X111638432Y-88212842D01*
X111526490Y-87942589D01*
X111363975Y-87699368D01*
X111282210Y-87617603D01*
X114441708Y-87617603D01*
X115290500Y-88466395D01*
X116139292Y-87617603D01*
X116061657Y-87368528D01*
X115797617Y-87242629D01*
X115514089Y-87170661D01*
X115221969Y-87155389D01*
X114932481Y-87197401D01*
X114656753Y-87295081D01*
X114519343Y-87368528D01*
X114441708Y-87617603D01*
X111282210Y-87617603D01*
X111157132Y-87492525D01*
X111029999Y-87407577D01*
X111029999Y-83185789D01*
X111123504Y-83123311D01*
X111337311Y-82909504D01*
X111414999Y-82793236D01*
X111492687Y-82909504D01*
X111706494Y-83123311D01*
X111957904Y-83291298D01*
X112237256Y-83407010D01*
X112533815Y-83465999D01*
X112836183Y-83465999D01*
X112946481Y-83444059D01*
X135005000Y-105502579D01*
X135005001Y-111699922D01*
X134870393Y-111810392D01*
X134691068Y-112028899D01*
X134620000Y-112161858D01*
X134548932Y-112028899D01*
X134369608Y-111810392D01*
X134151101Y-111631068D01*
X133901808Y-111497818D01*
X133631309Y-111415764D01*
X133350000Y-111388057D01*
X133068692Y-111415764D01*
X132798193Y-111497818D01*
X132548900Y-111631068D01*
X132330393Y-111810392D01*
X132151068Y-112028899D01*
X132080000Y-112161858D01*
X132008932Y-112028899D01*
X131829608Y-111810392D01*
X131611101Y-111631068D01*
X131361808Y-111497818D01*
X131091309Y-111415764D01*
X130810000Y-111388057D01*
X130528692Y-111415764D01*
X130258193Y-111497818D01*
X130008900Y-111631068D01*
X129790393Y-111810392D01*
X129611068Y-112028899D01*
X129477818Y-112278192D01*
X129395764Y-112548691D01*
X129375000Y-112759508D01*
X129375000Y-113300491D01*
X129395764Y-113511308D01*
X129477818Y-113781807D01*
X129611068Y-114031100D01*
X129790392Y-114249607D01*
X130008899Y-114428932D01*
X130258192Y-114562182D01*
X130528691Y-114644236D01*
X130810000Y-114671943D01*
X131091308Y-114644236D01*
X131361807Y-114562182D01*
X131611100Y-114428932D01*
X131829607Y-114249608D01*
X132008932Y-114031101D01*
X132080000Y-113898142D01*
X132151068Y-114031100D01*
X132330392Y-114249607D01*
X132548899Y-114428932D01*
X132798192Y-114562182D01*
X133068691Y-114644236D01*
X133350000Y-114671943D01*
X133631308Y-114644236D01*
X133901807Y-114562182D01*
X134151100Y-114428932D01*
X134369607Y-114249608D01*
X134548932Y-114031101D01*
X134620000Y-113898142D01*
X134691068Y-114031100D01*
X134870392Y-114249607D01*
X135088899Y-114428932D01*
X135338192Y-114562182D01*
X135608691Y-114644236D01*
X135890000Y-114671943D01*
X136171308Y-114644236D01*
X136441807Y-114562182D01*
X136691100Y-114428932D01*
X136909607Y-114249608D01*
X137088932Y-114031101D01*
X137160000Y-113898142D01*
X137231068Y-114031100D01*
X137410392Y-114249607D01*
X137628899Y-114428932D01*
X137878192Y-114562182D01*
X138148691Y-114644236D01*
X138430000Y-114671943D01*
X138711308Y-114644236D01*
X138981807Y-114562182D01*
X139231100Y-114428932D01*
X139449607Y-114249608D01*
X139628932Y-114031101D01*
X139700000Y-113898142D01*
X139771068Y-114031100D01*
X139950392Y-114249607D01*
X140168899Y-114428932D01*
X140418192Y-114562182D01*
X140688691Y-114644236D01*
X140970000Y-114671943D01*
X141251308Y-114644236D01*
X141521807Y-114562182D01*
X141771100Y-114428932D01*
X141989607Y-114249608D01*
X142168932Y-114031101D01*
X142240000Y-113898142D01*
X142311068Y-114031100D01*
X142490392Y-114249607D01*
X142708899Y-114428932D01*
X142958192Y-114562182D01*
X143228691Y-114644236D01*
X143510000Y-114671943D01*
X143791308Y-114644236D01*
X144061807Y-114562182D01*
X144311100Y-114428932D01*
X144529607Y-114249608D01*
X144708932Y-114031101D01*
X144778122Y-113901655D01*
X144785570Y-113919227D01*
X144944327Y-114152662D01*
X145145575Y-114350639D01*
X145381579Y-114505551D01*
X145643270Y-114611444D01*
X145700961Y-114621904D01*
X145923000Y-114499915D01*
X145923000Y-113157000D01*
X145903000Y-113157000D01*
X145903000Y-112903000D01*
X145923000Y-112903000D01*
X145923000Y-111560085D01*
X146177000Y-111560085D01*
X146177000Y-112903000D01*
X146197000Y-112903000D01*
X146197000Y-113157000D01*
X146177000Y-113157000D01*
X146177000Y-114499915D01*
X146399039Y-114621904D01*
X146456730Y-114611444D01*
X146718421Y-114505551D01*
X146954425Y-114350639D01*
X147155673Y-114152662D01*
X147314430Y-113919227D01*
X147321878Y-113901655D01*
X147391068Y-114031100D01*
X147570392Y-114249607D01*
X147788899Y-114428932D01*
X148038192Y-114562182D01*
X148308691Y-114644236D01*
X148590000Y-114671943D01*
X148871308Y-114644236D01*
X149141807Y-114562182D01*
X149391100Y-114428932D01*
X149609607Y-114249608D01*
X149788932Y-114031101D01*
X149922182Y-113781808D01*
X150004236Y-113511309D01*
X150025000Y-113300492D01*
X150025000Y-112759509D01*
X150004236Y-112548692D01*
X149922182Y-112278193D01*
X149788932Y-112028899D01*
X149609608Y-111810392D01*
X149391101Y-111631068D01*
X149141808Y-111497818D01*
X148871309Y-111415764D01*
X148590000Y-111388057D01*
X148308692Y-111415764D01*
X148038193Y-111497818D01*
X147788900Y-111631068D01*
X147570393Y-111810392D01*
X147391068Y-112028899D01*
X147321878Y-112158345D01*
X147314430Y-112140773D01*
X147155673Y-111907338D01*
X146954425Y-111709361D01*
X146718421Y-111554449D01*
X146456730Y-111448556D01*
X146399039Y-111438096D01*
X146177000Y-111560085D01*
X145923000Y-111560085D01*
X145700961Y-111438096D01*
X145643270Y-111448556D01*
X145381579Y-111554449D01*
X145145575Y-111709361D01*
X144944327Y-111907338D01*
X144785570Y-112140773D01*
X144778122Y-112158345D01*
X144708932Y-112028899D01*
X144529608Y-111810392D01*
X144311101Y-111631068D01*
X144061808Y-111497818D01*
X143791309Y-111415764D01*
X143510000Y-111388057D01*
X143228692Y-111415764D01*
X142958193Y-111497818D01*
X142708900Y-111631068D01*
X142490393Y-111810392D01*
X142311068Y-112028899D01*
X142240000Y-112161858D01*
X142168932Y-112028899D01*
X141989608Y-111810392D01*
X141859000Y-111703205D01*
X141859000Y-111493235D01*
X163157742Y-90194494D01*
X163191659Y-90166659D01*
X163302753Y-90031291D01*
X163385303Y-89876851D01*
X163432121Y-89722510D01*
X163436136Y-89709275D01*
X163439639Y-89673709D01*
X163449000Y-89578667D01*
X163449000Y-89578660D01*
X163453300Y-89535000D01*
X163449000Y-89491340D01*
X163449000Y-87732387D01*
X163602252Y-87629987D01*
X163829987Y-87402252D01*
X163932387Y-87249000D01*
X167687613Y-87249000D01*
X167790013Y-87402252D01*
X168017748Y-87629987D01*
X168285537Y-87808918D01*
X168583088Y-87932168D01*
X168898967Y-87995000D01*
X169221033Y-87995000D01*
X169536912Y-87932168D01*
X169834463Y-87808918D01*
X170102252Y-87629987D01*
X170329987Y-87402252D01*
X170508918Y-87134463D01*
X170632168Y-86836912D01*
X170695000Y-86521033D01*
X170695000Y-86198967D01*
X170632168Y-85883088D01*
X170508918Y-85585537D01*
X170329987Y-85317748D01*
X170102252Y-85090013D01*
X169834463Y-84911082D01*
X169536912Y-84787832D01*
X169221033Y-84725000D01*
X168898967Y-84725000D01*
X168583088Y-84787832D01*
X168285537Y-84911082D01*
X168017748Y-85090013D01*
X167790013Y-85317748D01*
X167687613Y-85471000D01*
X163932387Y-85471000D01*
X163829987Y-85317748D01*
X163602252Y-85090013D01*
X163334463Y-84911082D01*
X163036912Y-84787832D01*
X162789522Y-84738623D01*
X162734273Y-84721864D01*
X162560000Y-84704699D01*
X162385726Y-84721864D01*
X162330475Y-84738624D01*
X162083088Y-84787832D01*
X161785537Y-84911082D01*
X161517748Y-85090013D01*
X161290013Y-85317748D01*
X161111082Y-85585537D01*
X160987832Y-85883088D01*
X160925000Y-86198967D01*
X160925000Y-86521033D01*
X160987832Y-86836912D01*
X161111082Y-87134463D01*
X161290013Y-87402252D01*
X161517748Y-87629987D01*
X161671001Y-87732387D01*
X161671001Y-89166763D01*
X140372264Y-110465501D01*
X140338341Y-110493341D01*
X140227247Y-110628710D01*
X140144697Y-110783150D01*
X140093864Y-110950727D01*
X140081000Y-111081334D01*
X140081000Y-111081340D01*
X140076700Y-111125000D01*
X140081000Y-111168660D01*
X140081000Y-111703205D01*
X139950393Y-111810392D01*
X139771068Y-112028899D01*
X139700000Y-112161858D01*
X139628932Y-112028899D01*
X139449608Y-111810392D01*
X139315000Y-111699922D01*
X139315000Y-105453469D01*
X139319281Y-105410000D01*
X139315000Y-105366531D01*
X139315000Y-105366523D01*
X139302195Y-105236510D01*
X139258517Y-105092524D01*
X139251589Y-105069686D01*
X139169411Y-104915941D01*
X139086532Y-104814953D01*
X139086530Y-104814951D01*
X139058817Y-104781183D01*
X139025051Y-104753472D01*
X118649999Y-84378421D01*
X118649999Y-83185789D01*
X118743504Y-83123311D01*
X118957311Y-82909504D01*
X119034999Y-82793236D01*
X119112687Y-82909504D01*
X119326494Y-83123311D01*
X119577904Y-83291298D01*
X119857256Y-83407010D01*
X120153815Y-83465999D01*
X120456183Y-83465999D01*
X120752742Y-83407010D01*
X121032094Y-83291298D01*
X121283504Y-83123311D01*
X121497311Y-82909504D01*
X121574999Y-82793236D01*
X121652687Y-82909504D01*
X121866494Y-83123311D01*
X122117904Y-83291298D01*
X122397256Y-83407010D01*
X122693815Y-83465999D01*
X122996183Y-83465999D01*
X123292742Y-83407010D01*
X123572094Y-83291298D01*
X123823504Y-83123311D01*
X124037311Y-82909504D01*
X124114999Y-82793236D01*
X124192687Y-82909504D01*
X124406494Y-83123311D01*
X124657904Y-83291298D01*
X124937256Y-83407010D01*
X125233815Y-83465999D01*
X125536183Y-83465999D01*
X125832742Y-83407010D01*
X126112094Y-83291298D01*
X126363504Y-83123311D01*
X126577311Y-82909504D01*
X126654999Y-82793236D01*
X126732687Y-82909504D01*
X126946494Y-83123311D01*
X127197904Y-83291298D01*
X127477256Y-83407010D01*
X127773815Y-83465999D01*
X128076183Y-83465999D01*
X128372742Y-83407010D01*
X128652094Y-83291298D01*
X128903504Y-83123311D01*
X129117311Y-82909504D01*
X129194999Y-82793236D01*
X129272687Y-82909504D01*
X129486494Y-83123311D01*
X129737904Y-83291298D01*
X130017256Y-83407010D01*
X130313815Y-83465999D01*
X130616183Y-83465999D01*
X130726481Y-83444059D01*
X135817608Y-88535187D01*
X135608692Y-88555764D01*
X135338193Y-88637818D01*
X135088900Y-88771068D01*
X134870393Y-88950392D01*
X134691068Y-89168899D01*
X134620000Y-89301858D01*
X134548932Y-89168899D01*
X134369608Y-88950392D01*
X134151101Y-88771068D01*
X133901808Y-88637818D01*
X133631309Y-88555764D01*
X133350000Y-88528057D01*
X133068692Y-88555764D01*
X132798193Y-88637818D01*
X132548900Y-88771068D01*
X132387559Y-88903477D01*
X132340537Y-88815506D01*
X132261185Y-88718815D01*
X132164494Y-88639463D01*
X132054180Y-88580498D01*
X131934482Y-88544188D01*
X131810000Y-88531928D01*
X129810000Y-88531928D01*
X129685518Y-88544188D01*
X129565820Y-88580498D01*
X129455506Y-88639463D01*
X129358815Y-88718815D01*
X129279463Y-88815506D01*
X129220498Y-88925820D01*
X129184188Y-89045518D01*
X129171928Y-89170000D01*
X129171928Y-91170000D01*
X129184188Y-91294482D01*
X129220498Y-91414180D01*
X129279463Y-91524494D01*
X129358815Y-91621185D01*
X129455506Y-91700537D01*
X129565820Y-91759502D01*
X129685518Y-91795812D01*
X129810000Y-91808072D01*
X131810000Y-91808072D01*
X131934482Y-91795812D01*
X132054180Y-91759502D01*
X132164494Y-91700537D01*
X132261185Y-91621185D01*
X132340537Y-91524494D01*
X132387559Y-91436523D01*
X132461000Y-91496795D01*
X132461001Y-94698330D01*
X132456700Y-94742000D01*
X132473864Y-94916274D01*
X132524698Y-95083852D01*
X132570473Y-95169490D01*
X132607248Y-95238291D01*
X132718342Y-95373659D01*
X132752259Y-95401494D01*
X134672523Y-97321758D01*
X134659000Y-97389740D01*
X134659000Y-97682260D01*
X134716068Y-97969158D01*
X134828010Y-98239411D01*
X134990525Y-98482632D01*
X135197368Y-98689475D01*
X135440589Y-98851990D01*
X135710842Y-98963932D01*
X135997740Y-99021000D01*
X136290260Y-99021000D01*
X136358242Y-99007477D01*
X137643506Y-100292742D01*
X137671341Y-100326659D01*
X137806709Y-100437753D01*
X137961149Y-100520303D01*
X138027058Y-100540296D01*
X138128724Y-100571136D01*
X138161924Y-100574406D01*
X138259333Y-100584000D01*
X138259339Y-100584000D01*
X138302999Y-100588300D01*
X138346659Y-100584000D01*
X147276340Y-100584000D01*
X147320000Y-100588300D01*
X147363660Y-100584000D01*
X147363667Y-100584000D01*
X147494274Y-100571136D01*
X147661851Y-100520303D01*
X147816291Y-100437753D01*
X147951659Y-100326659D01*
X147979499Y-100292736D01*
X154267743Y-94004493D01*
X154301659Y-93976659D01*
X154412753Y-93841291D01*
X154495303Y-93686851D01*
X154532657Y-93563709D01*
X154546136Y-93519276D01*
X154550879Y-93471117D01*
X154559000Y-93388667D01*
X154559000Y-93388661D01*
X154563300Y-93345001D01*
X154559000Y-93301341D01*
X154559000Y-86221849D01*
X154584759Y-86204637D01*
X154784637Y-86004759D01*
X154941680Y-85769727D01*
X155049853Y-85508574D01*
X155105000Y-85231335D01*
X155105000Y-84948665D01*
X155049853Y-84671426D01*
X154941680Y-84410273D01*
X154784637Y-84175241D01*
X154584759Y-83975363D01*
X154352241Y-83820000D01*
X154584759Y-83664637D01*
X154784637Y-83464759D01*
X154941680Y-83229727D01*
X155038735Y-82995413D01*
X161604192Y-82995413D01*
X161699956Y-83259814D01*
X161989571Y-83400704D01*
X162301108Y-83482384D01*
X162622595Y-83501718D01*
X162941675Y-83457961D01*
X163246088Y-83352795D01*
X163420044Y-83259814D01*
X163515808Y-82995413D01*
X168104192Y-82995413D01*
X168199956Y-83259814D01*
X168489571Y-83400704D01*
X168801108Y-83482384D01*
X169122595Y-83501718D01*
X169441675Y-83457961D01*
X169746088Y-83352795D01*
X169920044Y-83259814D01*
X170015808Y-82995413D01*
X169060000Y-82039605D01*
X168104192Y-82995413D01*
X163515808Y-82995413D01*
X162560000Y-82039605D01*
X161604192Y-82995413D01*
X155038735Y-82995413D01*
X155049853Y-82968574D01*
X155105000Y-82691335D01*
X155105000Y-82408665D01*
X155049853Y-82131426D01*
X154963353Y-81922595D01*
X160918282Y-81922595D01*
X160962039Y-82241675D01*
X161067205Y-82546088D01*
X161160186Y-82720044D01*
X161424587Y-82815808D01*
X162380395Y-81860000D01*
X162739605Y-81860000D01*
X163695413Y-82815808D01*
X163959814Y-82720044D01*
X164100704Y-82430429D01*
X164182384Y-82118892D01*
X164194189Y-81922595D01*
X167418282Y-81922595D01*
X167462039Y-82241675D01*
X167567205Y-82546088D01*
X167660186Y-82720044D01*
X167924587Y-82815808D01*
X168880395Y-81860000D01*
X169239605Y-81860000D01*
X170195413Y-82815808D01*
X170459814Y-82720044D01*
X170600704Y-82430429D01*
X170682384Y-82118892D01*
X170701718Y-81797405D01*
X170657961Y-81478325D01*
X170552795Y-81173912D01*
X170459814Y-80999956D01*
X170195413Y-80904192D01*
X169239605Y-81860000D01*
X168880395Y-81860000D01*
X167924587Y-80904192D01*
X167660186Y-80999956D01*
X167519296Y-81289571D01*
X167437616Y-81601108D01*
X167418282Y-81922595D01*
X164194189Y-81922595D01*
X164201718Y-81797405D01*
X164157961Y-81478325D01*
X164052795Y-81173912D01*
X163959814Y-80999956D01*
X163695413Y-80904192D01*
X162739605Y-81860000D01*
X162380395Y-81860000D01*
X161424587Y-80904192D01*
X161160186Y-80999956D01*
X161019296Y-81289571D01*
X160937616Y-81601108D01*
X160918282Y-81922595D01*
X154963353Y-81922595D01*
X154941680Y-81870273D01*
X154784637Y-81635241D01*
X154584759Y-81435363D01*
X154349727Y-81278320D01*
X154088574Y-81170147D01*
X153811335Y-81115000D01*
X153528665Y-81115000D01*
X153251426Y-81170147D01*
X152990273Y-81278320D01*
X152755241Y-81435363D01*
X152555363Y-81635241D01*
X152538151Y-81661000D01*
X149470792Y-81661000D01*
X149466136Y-81613726D01*
X149466136Y-81613724D01*
X149415302Y-81446147D01*
X149409538Y-81435363D01*
X149332753Y-81291709D01*
X149221659Y-81156341D01*
X149187743Y-81128507D01*
X148783823Y-80724587D01*
X161604192Y-80724587D01*
X162560000Y-81680395D01*
X163515808Y-80724587D01*
X168104192Y-80724587D01*
X169060000Y-81680395D01*
X170015808Y-80724587D01*
X169920044Y-80460186D01*
X169630429Y-80319296D01*
X169318892Y-80237616D01*
X168997405Y-80218282D01*
X168678325Y-80262039D01*
X168373912Y-80367205D01*
X168199956Y-80460186D01*
X168104192Y-80724587D01*
X163515808Y-80724587D01*
X163420044Y-80460186D01*
X163130429Y-80319296D01*
X162818892Y-80237616D01*
X162497405Y-80218282D01*
X162178325Y-80262039D01*
X161873912Y-80367205D01*
X161699956Y-80460186D01*
X161604192Y-80724587D01*
X148783823Y-80724587D01*
X148119235Y-80060000D01*
X172497414Y-80060000D01*
X172401749Y-80155665D01*
X172096964Y-80611807D01*
X171887025Y-81118645D01*
X171779999Y-81656700D01*
X171779999Y-82205298D01*
X171887025Y-82743353D01*
X172096964Y-83250191D01*
X172401749Y-83706333D01*
X172789665Y-84094249D01*
X173245807Y-84399034D01*
X173752645Y-84608973D01*
X174290700Y-84715999D01*
X174839298Y-84715999D01*
X175377353Y-84608973D01*
X175884191Y-84399034D01*
X176340333Y-84094249D01*
X176440000Y-83994582D01*
X176440001Y-110867417D01*
X176340333Y-110767749D01*
X175884191Y-110462964D01*
X175377353Y-110253025D01*
X174839298Y-110145999D01*
X174290700Y-110145999D01*
X173752645Y-110253025D01*
X173245807Y-110462964D01*
X172789665Y-110767749D01*
X172401749Y-111155665D01*
X172096964Y-111611807D01*
X171887025Y-112118645D01*
X171779999Y-112656700D01*
X171779999Y-113205298D01*
X171887025Y-113743353D01*
X172096964Y-114250191D01*
X172401749Y-114706333D01*
X172435416Y-114740000D01*
X101694582Y-114740000D01*
X101728249Y-114706333D01*
X102033034Y-114250191D01*
X102242973Y-113743353D01*
X102349999Y-113205298D01*
X102349999Y-112656700D01*
X102242973Y-112118645D01*
X102033034Y-111611807D01*
X101728249Y-111155665D01*
X101340333Y-110767749D01*
X100884191Y-110462964D01*
X100377353Y-110253025D01*
X99839298Y-110145999D01*
X99290700Y-110145999D01*
X98752645Y-110253025D01*
X98245807Y-110462964D01*
X97789665Y-110767749D01*
X97760000Y-110797414D01*
X97760000Y-89674397D01*
X101513208Y-89674397D01*
X101590843Y-89923472D01*
X101854883Y-90049371D01*
X102138411Y-90121339D01*
X102430531Y-90136611D01*
X102720019Y-90094599D01*
X102995747Y-89996919D01*
X103133157Y-89923472D01*
X103210792Y-89674397D01*
X102362000Y-88825605D01*
X101513208Y-89674397D01*
X97760000Y-89674397D01*
X97760000Y-88714531D01*
X100871389Y-88714531D01*
X100913401Y-89004019D01*
X101011081Y-89279747D01*
X101084528Y-89417157D01*
X101333603Y-89494792D01*
X102182395Y-88646000D01*
X102541605Y-88646000D01*
X103390397Y-89494792D01*
X103639472Y-89417157D01*
X103765371Y-89153117D01*
X103837339Y-88869589D01*
X103852611Y-88577469D01*
X103810599Y-88287981D01*
X103712919Y-88012253D01*
X103639472Y-87874843D01*
X103390397Y-87797208D01*
X102541605Y-88646000D01*
X102182395Y-88646000D01*
X101333603Y-87797208D01*
X101084528Y-87874843D01*
X100958629Y-88138883D01*
X100886661Y-88422411D01*
X100871389Y-88714531D01*
X97760000Y-88714531D01*
X97760000Y-87617603D01*
X101513208Y-87617603D01*
X102362000Y-88466395D01*
X103210792Y-87617603D01*
X103133157Y-87368528D01*
X102869117Y-87242629D01*
X102585589Y-87170661D01*
X102293469Y-87155389D01*
X102003981Y-87197401D01*
X101728253Y-87295081D01*
X101590843Y-87368528D01*
X101513208Y-87617603D01*
X97760000Y-87617603D01*
X97760000Y-84064584D01*
X97789665Y-84094249D01*
X98245807Y-84399034D01*
X98752645Y-84608973D01*
X99290700Y-84715999D01*
X99839298Y-84715999D01*
X100377353Y-84608973D01*
X100884191Y-84399034D01*
X101340333Y-84094249D01*
X101728249Y-83706333D01*
X102033034Y-83250191D01*
X102206668Y-82830999D01*
X103526927Y-82830999D01*
X103539187Y-82955481D01*
X103575497Y-83075179D01*
X103634462Y-83185493D01*
X103713814Y-83282184D01*
X103810505Y-83361536D01*
X103920819Y-83420501D01*
X104040517Y-83456811D01*
X104164999Y-83469071D01*
X104779249Y-83465999D01*
X104937999Y-83307249D01*
X104937999Y-82057999D01*
X103688749Y-82057999D01*
X103529999Y-82216749D01*
X103526927Y-82830999D01*
X102206668Y-82830999D01*
X102242973Y-82743353D01*
X102349999Y-82205298D01*
X102349999Y-81656700D01*
X102242973Y-81118645D01*
X102206669Y-81030999D01*
X103526927Y-81030999D01*
X103529999Y-81645249D01*
X103688749Y-81803999D01*
X104937999Y-81803999D01*
X104937999Y-80554749D01*
X104779249Y-80395999D01*
X104164999Y-80392927D01*
X104040517Y-80405187D01*
X103920819Y-80441497D01*
X103810505Y-80500462D01*
X103713814Y-80579814D01*
X103634462Y-80676505D01*
X103575497Y-80786819D01*
X103539187Y-80906517D01*
X103526927Y-81030999D01*
X102206669Y-81030999D01*
X102033034Y-80611807D01*
X101728249Y-80155665D01*
X101632584Y-80060000D01*
X106945888Y-80060000D01*
X106945506Y-80060465D01*
G37*
X106945506Y-80060465D02*
X106945504Y-80060467D01*
X106862247Y-80161916D01*
X106779697Y-80316355D01*
X106728863Y-80483933D01*
X106711699Y-80658207D01*
X106713875Y-80680301D01*
X106626494Y-80738687D01*
X106560055Y-80805126D01*
X106554501Y-80786819D01*
X106495536Y-80676505D01*
X106416184Y-80579814D01*
X106319493Y-80500462D01*
X106209179Y-80441497D01*
X106089481Y-80405187D01*
X105964999Y-80392927D01*
X105350749Y-80395999D01*
X105191999Y-80554749D01*
X105191999Y-81803999D01*
X105211999Y-81803999D01*
X105211999Y-82057999D01*
X105191999Y-82057999D01*
X105191999Y-83307249D01*
X105350749Y-83465999D01*
X105964999Y-83469071D01*
X106089481Y-83456811D01*
X106209179Y-83420501D01*
X106319493Y-83361536D01*
X106416184Y-83282184D01*
X106495536Y-83185493D01*
X106554501Y-83075179D01*
X106560055Y-83056872D01*
X106626494Y-83123311D01*
X106719999Y-83185789D01*
X106720000Y-87342431D01*
X106495368Y-87492525D01*
X106288525Y-87699368D01*
X106126010Y-87942589D01*
X106014068Y-88212842D01*
X105957000Y-88499740D01*
X105957000Y-88792260D01*
X106014068Y-89079158D01*
X106126010Y-89349411D01*
X106288525Y-89592632D01*
X106495368Y-89799475D01*
X106553000Y-89837984D01*
X106553001Y-98169687D01*
X106415457Y-98375536D01*
X106306530Y-98638509D01*
X106251000Y-98917680D01*
X106251000Y-99202320D01*
X106306530Y-99481491D01*
X106415457Y-99744464D01*
X106573595Y-99981134D01*
X106774866Y-100182405D01*
X107011536Y-100340543D01*
X107274509Y-100449470D01*
X107553680Y-100505000D01*
X107838320Y-100505000D01*
X108117491Y-100449470D01*
X108380464Y-100340543D01*
X108617134Y-100182405D01*
X108739696Y-100059843D01*
X111875762Y-100059843D01*
X111948556Y-100304832D01*
X112205773Y-100426733D01*
X112481829Y-100496110D01*
X112766115Y-100510298D01*
X113047706Y-100468752D01*
X113315783Y-100373068D01*
X113443444Y-100304832D01*
X113516238Y-100059843D01*
X112696000Y-99239605D01*
X111875762Y-100059843D01*
X108739696Y-100059843D01*
X108818405Y-99981134D01*
X108976543Y-99744464D01*
X109085470Y-99481491D01*
X109141000Y-99202320D01*
X109141000Y-99130115D01*
X111245702Y-99130115D01*
X111287248Y-99411706D01*
X111382932Y-99679783D01*
X111451168Y-99807444D01*
X111696157Y-99880238D01*
X112516395Y-99060000D01*
X112875605Y-99060000D01*
X113695843Y-99880238D01*
X113940832Y-99807444D01*
X114062733Y-99550227D01*
X114132110Y-99274171D01*
X114146298Y-98989885D01*
X114104752Y-98708294D01*
X114009068Y-98440217D01*
X113940832Y-98312556D01*
X113695843Y-98239762D01*
X112875605Y-99060000D01*
X112516395Y-99060000D01*
X111696157Y-98239762D01*
X111451168Y-98312556D01*
X111329267Y-98569773D01*
X111259890Y-98845829D01*
X111245702Y-99130115D01*
X109141000Y-99130115D01*
X109141000Y-98917680D01*
X109085470Y-98638509D01*
X108976543Y-98375536D01*
X108818405Y-98138866D01*
X108739696Y-98060157D01*
X111875762Y-98060157D01*
X112696000Y-98880395D01*
X113516238Y-98060157D01*
X113443444Y-97815168D01*
X113186227Y-97693267D01*
X112910171Y-97623890D01*
X112625885Y-97609702D01*
X112344294Y-97651248D01*
X112076217Y-97746932D01*
X111948556Y-97815168D01*
X111875762Y-98060157D01*
X108739696Y-98060157D01*
X108617134Y-97937595D01*
X108380464Y-97779457D01*
X108331000Y-97758968D01*
X108331000Y-89837983D01*
X108388632Y-89799475D01*
X108595475Y-89592632D01*
X108757990Y-89349411D01*
X108826250Y-89184616D01*
X108894510Y-89349411D01*
X109057025Y-89592632D01*
X109263868Y-89799475D01*
X109321500Y-89837984D01*
X109321501Y-92906435D01*
X109274866Y-92937595D01*
X109073595Y-93138866D01*
X108915457Y-93375536D01*
X108806530Y-93638509D01*
X108751000Y-93917680D01*
X108751000Y-94202320D01*
X108806530Y-94481491D01*
X108915457Y-94744464D01*
X109073595Y-94981134D01*
X109274866Y-95182405D01*
X109511536Y-95340543D01*
X109774509Y-95449470D01*
X110053680Y-95505000D01*
X110338320Y-95505000D01*
X110617491Y-95449470D01*
X110880464Y-95340543D01*
X111117134Y-95182405D01*
X111318405Y-94981134D01*
X111476543Y-94744464D01*
X111585470Y-94481491D01*
X111641000Y-94202320D01*
X111641000Y-93917680D01*
X111585470Y-93638509D01*
X111476543Y-93375536D01*
X111318405Y-93138866D01*
X111117134Y-92937595D01*
X111099500Y-92925812D01*
X111099500Y-89837983D01*
X111157132Y-89799475D01*
X111282210Y-89674397D01*
X114441708Y-89674397D01*
X114519343Y-89923472D01*
X114783383Y-90049371D01*
X115066911Y-90121339D01*
X115359031Y-90136611D01*
X115648519Y-90094599D01*
X115924247Y-89996919D01*
X116061657Y-89923472D01*
X116139292Y-89674397D01*
X115290500Y-88825605D01*
X114441708Y-89674397D01*
X111282210Y-89674397D01*
X111363975Y-89592632D01*
X111526490Y-89349411D01*
X111638432Y-89079158D01*
X111695500Y-88792260D01*
X111695500Y-88714531D01*
X113799889Y-88714531D01*
X113841901Y-89004019D01*
X113939581Y-89279747D01*
X114013028Y-89417157D01*
X114262103Y-89494792D01*
X115110895Y-88646000D01*
X115470105Y-88646000D01*
X116318897Y-89494792D01*
X116567972Y-89417157D01*
X116693871Y-89153117D01*
X116765839Y-88869589D01*
X116781111Y-88577469D01*
X116739099Y-88287981D01*
X116641419Y-88012253D01*
X116567972Y-87874843D01*
X116318897Y-87797208D01*
X115470105Y-88646000D01*
X115110895Y-88646000D01*
X114262103Y-87797208D01*
X114013028Y-87874843D01*
X113887129Y-88138883D01*
X113815161Y-88422411D01*
X113799889Y-88714531D01*
X111695500Y-88714531D01*
X111695500Y-88499740D01*
X111638432Y-88212842D01*
X111526490Y-87942589D01*
X111363975Y-87699368D01*
X111282210Y-87617603D01*
X114441708Y-87617603D01*
X115290500Y-88466395D01*
X116139292Y-87617603D01*
X116061657Y-87368528D01*
X115797617Y-87242629D01*
X115514089Y-87170661D01*
X115221969Y-87155389D01*
X114932481Y-87197401D01*
X114656753Y-87295081D01*
X114519343Y-87368528D01*
X114441708Y-87617603D01*
X111282210Y-87617603D01*
X111157132Y-87492525D01*
X111029999Y-87407577D01*
X111029999Y-83185789D01*
X111123504Y-83123311D01*
X111337311Y-82909504D01*
X111414999Y-82793236D01*
X111492687Y-82909504D01*
X111706494Y-83123311D01*
X111957904Y-83291298D01*
X112237256Y-83407010D01*
X112533815Y-83465999D01*
X112836183Y-83465999D01*
X112946481Y-83444059D01*
X135005000Y-105502579D01*
X135005001Y-111699922D01*
X134870393Y-111810392D01*
X134691068Y-112028899D01*
X134620000Y-112161858D01*
X134548932Y-112028899D01*
X134369608Y-111810392D01*
X134151101Y-111631068D01*
X133901808Y-111497818D01*
X133631309Y-111415764D01*
X133350000Y-111388057D01*
X133068692Y-111415764D01*
X132798193Y-111497818D01*
X132548900Y-111631068D01*
X132330393Y-111810392D01*
X132151068Y-112028899D01*
X132080000Y-112161858D01*
X132008932Y-112028899D01*
X131829608Y-111810392D01*
X131611101Y-111631068D01*
X131361808Y-111497818D01*
X131091309Y-111415764D01*
X130810000Y-111388057D01*
X130528692Y-111415764D01*
X130258193Y-111497818D01*
X130008900Y-111631068D01*
X129790393Y-111810392D01*
X129611068Y-112028899D01*
X129477818Y-112278192D01*
X129395764Y-112548691D01*
X129375000Y-112759508D01*
X129375000Y-113300491D01*
X129395764Y-113511308D01*
X129477818Y-113781807D01*
X129611068Y-114031100D01*
X129790392Y-114249607D01*
X130008899Y-114428932D01*
X130258192Y-114562182D01*
X130528691Y-114644236D01*
X130810000Y-114671943D01*
X131091308Y-114644236D01*
X131361807Y-114562182D01*
X131611100Y-114428932D01*
X131829607Y-114249608D01*
X132008932Y-114031101D01*
X132080000Y-113898142D01*
X132151068Y-114031100D01*
X132330392Y-114249607D01*
X132548899Y-114428932D01*
X132798192Y-114562182D01*
X133068691Y-114644236D01*
X133350000Y-114671943D01*
X133631308Y-114644236D01*
X133901807Y-114562182D01*
X134151100Y-114428932D01*
X134369607Y-114249608D01*
X134548932Y-114031101D01*
X134620000Y-113898142D01*
X134691068Y-114031100D01*
X134870392Y-114249607D01*
X135088899Y-114428932D01*
X135338192Y-114562182D01*
X135608691Y-114644236D01*
X135890000Y-114671943D01*
X136171308Y-114644236D01*
X136441807Y-114562182D01*
X136691100Y-114428932D01*
X136909607Y-114249608D01*
X137088932Y-114031101D01*
X137160000Y-113898142D01*
X137231068Y-114031100D01*
X137410392Y-114249607D01*
X137628899Y-114428932D01*
X137878192Y-114562182D01*
X138148691Y-114644236D01*
X138430000Y-114671943D01*
X138711308Y-114644236D01*
X138981807Y-114562182D01*
X139231100Y-114428932D01*
X139449607Y-114249608D01*
X139628932Y-114031101D01*
X139700000Y-113898142D01*
X139771068Y-114031100D01*
X139950392Y-114249607D01*
X140168899Y-114428932D01*
X140418192Y-114562182D01*
X140688691Y-114644236D01*
X140970000Y-114671943D01*
X141251308Y-114644236D01*
X141521807Y-114562182D01*
X141771100Y-114428932D01*
X141989607Y-114249608D01*
X142168932Y-114031101D01*
X142240000Y-113898142D01*
X142311068Y-114031100D01*
X142490392Y-114249607D01*
X142708899Y-114428932D01*
X142958192Y-114562182D01*
X143228691Y-114644236D01*
X143510000Y-114671943D01*
X143791308Y-114644236D01*
X144061807Y-114562182D01*
X144311100Y-114428932D01*
X144529607Y-114249608D01*
X144708932Y-114031101D01*
X144778122Y-113901655D01*
X144785570Y-113919227D01*
X144944327Y-114152662D01*
X145145575Y-114350639D01*
X145381579Y-114505551D01*
X145643270Y-114611444D01*
X145700961Y-114621904D01*
X145923000Y-114499915D01*
X145923000Y-113157000D01*
X145903000Y-113157000D01*
X145903000Y-112903000D01*
X145923000Y-112903000D01*
X145923000Y-111560085D01*
X146177000Y-111560085D01*
X146177000Y-112903000D01*
X146197000Y-112903000D01*
X146197000Y-113157000D01*
X146177000Y-113157000D01*
X146177000Y-114499915D01*
X146399039Y-114621904D01*
X146456730Y-114611444D01*
X146718421Y-114505551D01*
X146954425Y-114350639D01*
X147155673Y-114152662D01*
X147314430Y-113919227D01*
X147321878Y-113901655D01*
X147391068Y-114031100D01*
X147570392Y-114249607D01*
X147788899Y-114428932D01*
X148038192Y-114562182D01*
X148308691Y-114644236D01*
X148590000Y-114671943D01*
X148871308Y-114644236D01*
X149141807Y-114562182D01*
X149391100Y-114428932D01*
X149609607Y-114249608D01*
X149788932Y-114031101D01*
X149922182Y-113781808D01*
X150004236Y-113511309D01*
X150025000Y-113300492D01*
X150025000Y-112759509D01*
X150004236Y-112548692D01*
X149922182Y-112278193D01*
X149788932Y-112028899D01*
X149609608Y-111810392D01*
X149391101Y-111631068D01*
X149141808Y-111497818D01*
X148871309Y-111415764D01*
X148590000Y-111388057D01*
X148308692Y-111415764D01*
X148038193Y-111497818D01*
X147788900Y-111631068D01*
X147570393Y-111810392D01*
X147391068Y-112028899D01*
X147321878Y-112158345D01*
X147314430Y-112140773D01*
X147155673Y-111907338D01*
X146954425Y-111709361D01*
X146718421Y-111554449D01*
X146456730Y-111448556D01*
X146399039Y-111438096D01*
X146177000Y-111560085D01*
X145923000Y-111560085D01*
X145700961Y-111438096D01*
X145643270Y-111448556D01*
X145381579Y-111554449D01*
X145145575Y-111709361D01*
X144944327Y-111907338D01*
X144785570Y-112140773D01*
X144778122Y-112158345D01*
X144708932Y-112028899D01*
X144529608Y-111810392D01*
X144311101Y-111631068D01*
X144061808Y-111497818D01*
X143791309Y-111415764D01*
X143510000Y-111388057D01*
X143228692Y-111415764D01*
X142958193Y-111497818D01*
X142708900Y-111631068D01*
X142490393Y-111810392D01*
X142311068Y-112028899D01*
X142240000Y-112161858D01*
X142168932Y-112028899D01*
X141989608Y-111810392D01*
X141859000Y-111703205D01*
X141859000Y-111493235D01*
X163157742Y-90194494D01*
X163191659Y-90166659D01*
X163302753Y-90031291D01*
X163385303Y-89876851D01*
X163432121Y-89722510D01*
X163436136Y-89709275D01*
X163439639Y-89673709D01*
X163449000Y-89578667D01*
X163449000Y-89578660D01*
X163453300Y-89535000D01*
X163449000Y-89491340D01*
X163449000Y-87732387D01*
X163602252Y-87629987D01*
X163829987Y-87402252D01*
X163932387Y-87249000D01*
X167687613Y-87249000D01*
X167790013Y-87402252D01*
X168017748Y-87629987D01*
X168285537Y-87808918D01*
X168583088Y-87932168D01*
X168898967Y-87995000D01*
X169221033Y-87995000D01*
X169536912Y-87932168D01*
X169834463Y-87808918D01*
X170102252Y-87629987D01*
X170329987Y-87402252D01*
X170508918Y-87134463D01*
X170632168Y-86836912D01*
X170695000Y-86521033D01*
X170695000Y-86198967D01*
X170632168Y-85883088D01*
X170508918Y-85585537D01*
X170329987Y-85317748D01*
X170102252Y-85090013D01*
X169834463Y-84911082D01*
X169536912Y-84787832D01*
X169221033Y-84725000D01*
X168898967Y-84725000D01*
X168583088Y-84787832D01*
X168285537Y-84911082D01*
X168017748Y-85090013D01*
X167790013Y-85317748D01*
X167687613Y-85471000D01*
X163932387Y-85471000D01*
X163829987Y-85317748D01*
X163602252Y-85090013D01*
X163334463Y-84911082D01*
X163036912Y-84787832D01*
X162789522Y-84738623D01*
X162734273Y-84721864D01*
X162560000Y-84704699D01*
X162385726Y-84721864D01*
X162330475Y-84738624D01*
X162083088Y-84787832D01*
X161785537Y-84911082D01*
X161517748Y-85090013D01*
X161290013Y-85317748D01*
X161111082Y-85585537D01*
X160987832Y-85883088D01*
X160925000Y-86198967D01*
X160925000Y-86521033D01*
X160987832Y-86836912D01*
X161111082Y-87134463D01*
X161290013Y-87402252D01*
X161517748Y-87629987D01*
X161671001Y-87732387D01*
X161671001Y-89166763D01*
X140372264Y-110465501D01*
X140338341Y-110493341D01*
X140227247Y-110628710D01*
X140144697Y-110783150D01*
X140093864Y-110950727D01*
X140081000Y-111081334D01*
X140081000Y-111081340D01*
X140076700Y-111125000D01*
X140081000Y-111168660D01*
X140081000Y-111703205D01*
X139950393Y-111810392D01*
X139771068Y-112028899D01*
X139700000Y-112161858D01*
X139628932Y-112028899D01*
X139449608Y-111810392D01*
X139315000Y-111699922D01*
X139315000Y-105453469D01*
X139319281Y-105410000D01*
X139315000Y-105366531D01*
X139315000Y-105366523D01*
X139302195Y-105236510D01*
X139258517Y-105092524D01*
X139251589Y-105069686D01*
X139169411Y-104915941D01*
X139086532Y-104814953D01*
X139086530Y-104814951D01*
X139058817Y-104781183D01*
X139025051Y-104753472D01*
X118649999Y-84378421D01*
X118649999Y-83185789D01*
X118743504Y-83123311D01*
X118957311Y-82909504D01*
X119034999Y-82793236D01*
X119112687Y-82909504D01*
X119326494Y-83123311D01*
X119577904Y-83291298D01*
X119857256Y-83407010D01*
X120153815Y-83465999D01*
X120456183Y-83465999D01*
X120752742Y-83407010D01*
X121032094Y-83291298D01*
X121283504Y-83123311D01*
X121497311Y-82909504D01*
X121574999Y-82793236D01*
X121652687Y-82909504D01*
X121866494Y-83123311D01*
X122117904Y-83291298D01*
X122397256Y-83407010D01*
X122693815Y-83465999D01*
X122996183Y-83465999D01*
X123292742Y-83407010D01*
X123572094Y-83291298D01*
X123823504Y-83123311D01*
X124037311Y-82909504D01*
X124114999Y-82793236D01*
X124192687Y-82909504D01*
X124406494Y-83123311D01*
X124657904Y-83291298D01*
X124937256Y-83407010D01*
X125233815Y-83465999D01*
X125536183Y-83465999D01*
X125832742Y-83407010D01*
X126112094Y-83291298D01*
X126363504Y-83123311D01*
X126577311Y-82909504D01*
X126654999Y-82793236D01*
X126732687Y-82909504D01*
X126946494Y-83123311D01*
X127197904Y-83291298D01*
X127477256Y-83407010D01*
X127773815Y-83465999D01*
X128076183Y-83465999D01*
X128372742Y-83407010D01*
X128652094Y-83291298D01*
X128903504Y-83123311D01*
X129117311Y-82909504D01*
X129194999Y-82793236D01*
X129272687Y-82909504D01*
X129486494Y-83123311D01*
X129737904Y-83291298D01*
X130017256Y-83407010D01*
X130313815Y-83465999D01*
X130616183Y-83465999D01*
X130726481Y-83444059D01*
X135817608Y-88535187D01*
X135608692Y-88555764D01*
X135338193Y-88637818D01*
X135088900Y-88771068D01*
X134870393Y-88950392D01*
X134691068Y-89168899D01*
X134620000Y-89301858D01*
X134548932Y-89168899D01*
X134369608Y-88950392D01*
X134151101Y-88771068D01*
X133901808Y-88637818D01*
X133631309Y-88555764D01*
X133350000Y-88528057D01*
X133068692Y-88555764D01*
X132798193Y-88637818D01*
X132548900Y-88771068D01*
X132387559Y-88903477D01*
X132340537Y-88815506D01*
X132261185Y-88718815D01*
X132164494Y-88639463D01*
X132054180Y-88580498D01*
X131934482Y-88544188D01*
X131810000Y-88531928D01*
X129810000Y-88531928D01*
X129685518Y-88544188D01*
X129565820Y-88580498D01*
X129455506Y-88639463D01*
X129358815Y-88718815D01*
X129279463Y-88815506D01*
X129220498Y-88925820D01*
X129184188Y-89045518D01*
X129171928Y-89170000D01*
X129171928Y-91170000D01*
X129184188Y-91294482D01*
X129220498Y-91414180D01*
X129279463Y-91524494D01*
X129358815Y-91621185D01*
X129455506Y-91700537D01*
X129565820Y-91759502D01*
X129685518Y-91795812D01*
X129810000Y-91808072D01*
X131810000Y-91808072D01*
X131934482Y-91795812D01*
X132054180Y-91759502D01*
X132164494Y-91700537D01*
X132261185Y-91621185D01*
X132340537Y-91524494D01*
X132387559Y-91436523D01*
X132461000Y-91496795D01*
X132461001Y-94698330D01*
X132456700Y-94742000D01*
X132473864Y-94916274D01*
X132524698Y-95083852D01*
X132570473Y-95169490D01*
X132607248Y-95238291D01*
X132718342Y-95373659D01*
X132752259Y-95401494D01*
X134672523Y-97321758D01*
X134659000Y-97389740D01*
X134659000Y-97682260D01*
X134716068Y-97969158D01*
X134828010Y-98239411D01*
X134990525Y-98482632D01*
X135197368Y-98689475D01*
X135440589Y-98851990D01*
X135710842Y-98963932D01*
X135997740Y-99021000D01*
X136290260Y-99021000D01*
X136358242Y-99007477D01*
X137643506Y-100292742D01*
X137671341Y-100326659D01*
X137806709Y-100437753D01*
X137961149Y-100520303D01*
X138027058Y-100540296D01*
X138128724Y-100571136D01*
X138161924Y-100574406D01*
X138259333Y-100584000D01*
X138259339Y-100584000D01*
X138302999Y-100588300D01*
X138346659Y-100584000D01*
X147276340Y-100584000D01*
X147320000Y-100588300D01*
X147363660Y-100584000D01*
X147363667Y-100584000D01*
X147494274Y-100571136D01*
X147661851Y-100520303D01*
X147816291Y-100437753D01*
X147951659Y-100326659D01*
X147979499Y-100292736D01*
X154267743Y-94004493D01*
X154301659Y-93976659D01*
X154412753Y-93841291D01*
X154495303Y-93686851D01*
X154532657Y-93563709D01*
X154546136Y-93519276D01*
X154550879Y-93471117D01*
X154559000Y-93388667D01*
X154559000Y-93388661D01*
X154563300Y-93345001D01*
X154559000Y-93301341D01*
X154559000Y-86221849D01*
X154584759Y-86204637D01*
X154784637Y-86004759D01*
X154941680Y-85769727D01*
X155049853Y-85508574D01*
X155105000Y-85231335D01*
X155105000Y-84948665D01*
X155049853Y-84671426D01*
X154941680Y-84410273D01*
X154784637Y-84175241D01*
X154584759Y-83975363D01*
X154352241Y-83820000D01*
X154584759Y-83664637D01*
X154784637Y-83464759D01*
X154941680Y-83229727D01*
X155038735Y-82995413D01*
X161604192Y-82995413D01*
X161699956Y-83259814D01*
X161989571Y-83400704D01*
X162301108Y-83482384D01*
X162622595Y-83501718D01*
X162941675Y-83457961D01*
X163246088Y-83352795D01*
X163420044Y-83259814D01*
X163515808Y-82995413D01*
X168104192Y-82995413D01*
X168199956Y-83259814D01*
X168489571Y-83400704D01*
X168801108Y-83482384D01*
X169122595Y-83501718D01*
X169441675Y-83457961D01*
X169746088Y-83352795D01*
X169920044Y-83259814D01*
X170015808Y-82995413D01*
X169060000Y-82039605D01*
X168104192Y-82995413D01*
X163515808Y-82995413D01*
X162560000Y-82039605D01*
X161604192Y-82995413D01*
X155038735Y-82995413D01*
X155049853Y-82968574D01*
X155105000Y-82691335D01*
X155105000Y-82408665D01*
X155049853Y-82131426D01*
X154963353Y-81922595D01*
X160918282Y-81922595D01*
X160962039Y-82241675D01*
X161067205Y-82546088D01*
X161160186Y-82720044D01*
X161424587Y-82815808D01*
X162380395Y-81860000D01*
X162739605Y-81860000D01*
X163695413Y-82815808D01*
X163959814Y-82720044D01*
X164100704Y-82430429D01*
X164182384Y-82118892D01*
X164194189Y-81922595D01*
X167418282Y-81922595D01*
X167462039Y-82241675D01*
X167567205Y-82546088D01*
X167660186Y-82720044D01*
X167924587Y-82815808D01*
X168880395Y-81860000D01*
X169239605Y-81860000D01*
X170195413Y-82815808D01*
X170459814Y-82720044D01*
X170600704Y-82430429D01*
X170682384Y-82118892D01*
X170701718Y-81797405D01*
X170657961Y-81478325D01*
X170552795Y-81173912D01*
X170459814Y-80999956D01*
X170195413Y-80904192D01*
X169239605Y-81860000D01*
X168880395Y-81860000D01*
X167924587Y-80904192D01*
X167660186Y-80999956D01*
X167519296Y-81289571D01*
X167437616Y-81601108D01*
X167418282Y-81922595D01*
X164194189Y-81922595D01*
X164201718Y-81797405D01*
X164157961Y-81478325D01*
X164052795Y-81173912D01*
X163959814Y-80999956D01*
X163695413Y-80904192D01*
X162739605Y-81860000D01*
X162380395Y-81860000D01*
X161424587Y-80904192D01*
X161160186Y-80999956D01*
X161019296Y-81289571D01*
X160937616Y-81601108D01*
X160918282Y-81922595D01*
X154963353Y-81922595D01*
X154941680Y-81870273D01*
X154784637Y-81635241D01*
X154584759Y-81435363D01*
X154349727Y-81278320D01*
X154088574Y-81170147D01*
X153811335Y-81115000D01*
X153528665Y-81115000D01*
X153251426Y-81170147D01*
X152990273Y-81278320D01*
X152755241Y-81435363D01*
X152555363Y-81635241D01*
X152538151Y-81661000D01*
X149470792Y-81661000D01*
X149466136Y-81613726D01*
X149466136Y-81613724D01*
X149415302Y-81446147D01*
X149409538Y-81435363D01*
X149332753Y-81291709D01*
X149221659Y-81156341D01*
X149187743Y-81128507D01*
X148783823Y-80724587D01*
X161604192Y-80724587D01*
X162560000Y-81680395D01*
X163515808Y-80724587D01*
X168104192Y-80724587D01*
X169060000Y-81680395D01*
X170015808Y-80724587D01*
X169920044Y-80460186D01*
X169630429Y-80319296D01*
X169318892Y-80237616D01*
X168997405Y-80218282D01*
X168678325Y-80262039D01*
X168373912Y-80367205D01*
X168199956Y-80460186D01*
X168104192Y-80724587D01*
X163515808Y-80724587D01*
X163420044Y-80460186D01*
X163130429Y-80319296D01*
X162818892Y-80237616D01*
X162497405Y-80218282D01*
X162178325Y-80262039D01*
X161873912Y-80367205D01*
X161699956Y-80460186D01*
X161604192Y-80724587D01*
X148783823Y-80724587D01*
X148119235Y-80060000D01*
X172497414Y-80060000D01*
X172401749Y-80155665D01*
X172096964Y-80611807D01*
X171887025Y-81118645D01*
X171779999Y-81656700D01*
X171779999Y-82205298D01*
X171887025Y-82743353D01*
X172096964Y-83250191D01*
X172401749Y-83706333D01*
X172789665Y-84094249D01*
X173245807Y-84399034D01*
X173752645Y-84608973D01*
X174290700Y-84715999D01*
X174839298Y-84715999D01*
X175377353Y-84608973D01*
X175884191Y-84399034D01*
X176340333Y-84094249D01*
X176440000Y-83994582D01*
X176440001Y-110867417D01*
X176340333Y-110767749D01*
X175884191Y-110462964D01*
X175377353Y-110253025D01*
X174839298Y-110145999D01*
X174290700Y-110145999D01*
X173752645Y-110253025D01*
X173245807Y-110462964D01*
X172789665Y-110767749D01*
X172401749Y-111155665D01*
X172096964Y-111611807D01*
X171887025Y-112118645D01*
X171779999Y-112656700D01*
X171779999Y-113205298D01*
X171887025Y-113743353D01*
X172096964Y-114250191D01*
X172401749Y-114706333D01*
X172435416Y-114740000D01*
X101694582Y-114740000D01*
X101728249Y-114706333D01*
X102033034Y-114250191D01*
X102242973Y-113743353D01*
X102349999Y-113205298D01*
X102349999Y-112656700D01*
X102242973Y-112118645D01*
X102033034Y-111611807D01*
X101728249Y-111155665D01*
X101340333Y-110767749D01*
X100884191Y-110462964D01*
X100377353Y-110253025D01*
X99839298Y-110145999D01*
X99290700Y-110145999D01*
X98752645Y-110253025D01*
X98245807Y-110462964D01*
X97789665Y-110767749D01*
X97760000Y-110797414D01*
X97760000Y-89674397D01*
X101513208Y-89674397D01*
X101590843Y-89923472D01*
X101854883Y-90049371D01*
X102138411Y-90121339D01*
X102430531Y-90136611D01*
X102720019Y-90094599D01*
X102995747Y-89996919D01*
X103133157Y-89923472D01*
X103210792Y-89674397D01*
X102362000Y-88825605D01*
X101513208Y-89674397D01*
X97760000Y-89674397D01*
X97760000Y-88714531D01*
X100871389Y-88714531D01*
X100913401Y-89004019D01*
X101011081Y-89279747D01*
X101084528Y-89417157D01*
X101333603Y-89494792D01*
X102182395Y-88646000D01*
X102541605Y-88646000D01*
X103390397Y-89494792D01*
X103639472Y-89417157D01*
X103765371Y-89153117D01*
X103837339Y-88869589D01*
X103852611Y-88577469D01*
X103810599Y-88287981D01*
X103712919Y-88012253D01*
X103639472Y-87874843D01*
X103390397Y-87797208D01*
X102541605Y-88646000D01*
X102182395Y-88646000D01*
X101333603Y-87797208D01*
X101084528Y-87874843D01*
X100958629Y-88138883D01*
X100886661Y-88422411D01*
X100871389Y-88714531D01*
X97760000Y-88714531D01*
X97760000Y-87617603D01*
X101513208Y-87617603D01*
X102362000Y-88466395D01*
X103210792Y-87617603D01*
X103133157Y-87368528D01*
X102869117Y-87242629D01*
X102585589Y-87170661D01*
X102293469Y-87155389D01*
X102003981Y-87197401D01*
X101728253Y-87295081D01*
X101590843Y-87368528D01*
X101513208Y-87617603D01*
X97760000Y-87617603D01*
X97760000Y-84064584D01*
X97789665Y-84094249D01*
X98245807Y-84399034D01*
X98752645Y-84608973D01*
X99290700Y-84715999D01*
X99839298Y-84715999D01*
X100377353Y-84608973D01*
X100884191Y-84399034D01*
X101340333Y-84094249D01*
X101728249Y-83706333D01*
X102033034Y-83250191D01*
X102206668Y-82830999D01*
X103526927Y-82830999D01*
X103539187Y-82955481D01*
X103575497Y-83075179D01*
X103634462Y-83185493D01*
X103713814Y-83282184D01*
X103810505Y-83361536D01*
X103920819Y-83420501D01*
X104040517Y-83456811D01*
X104164999Y-83469071D01*
X104779249Y-83465999D01*
X104937999Y-83307249D01*
X104937999Y-82057999D01*
X103688749Y-82057999D01*
X103529999Y-82216749D01*
X103526927Y-82830999D01*
X102206668Y-82830999D01*
X102242973Y-82743353D01*
X102349999Y-82205298D01*
X102349999Y-81656700D01*
X102242973Y-81118645D01*
X102206669Y-81030999D01*
X103526927Y-81030999D01*
X103529999Y-81645249D01*
X103688749Y-81803999D01*
X104937999Y-81803999D01*
X104937999Y-80554749D01*
X104779249Y-80395999D01*
X104164999Y-80392927D01*
X104040517Y-80405187D01*
X103920819Y-80441497D01*
X103810505Y-80500462D01*
X103713814Y-80579814D01*
X103634462Y-80676505D01*
X103575497Y-80786819D01*
X103539187Y-80906517D01*
X103526927Y-81030999D01*
X102206669Y-81030999D01*
X102033034Y-80611807D01*
X101728249Y-80155665D01*
X101632584Y-80060000D01*
X106945888Y-80060000D01*
X106945506Y-80060465D01*
G36*
X152555363Y-83464759D02*
G01*
X152755241Y-83664637D01*
X152987759Y-83820000D01*
X152755241Y-83975363D01*
X152555363Y-84175241D01*
X152398320Y-84410273D01*
X152290147Y-84671426D01*
X152235000Y-84948665D01*
X152235000Y-85231335D01*
X152290147Y-85508574D01*
X152398320Y-85769727D01*
X152555363Y-86004759D01*
X152755241Y-86204637D01*
X152781001Y-86221849D01*
X152781000Y-92976764D01*
X146951765Y-98806000D01*
X144537486Y-98806000D01*
X144612792Y-98564397D01*
X143764000Y-97715605D01*
X142915208Y-98564397D01*
X142990514Y-98806000D01*
X138671236Y-98806000D01*
X137615477Y-97750242D01*
X137629000Y-97682260D01*
X137629000Y-97604531D01*
X142273389Y-97604531D01*
X142315401Y-97894019D01*
X142413081Y-98169747D01*
X142486528Y-98307157D01*
X142735603Y-98384792D01*
X143584395Y-97536000D01*
X143943605Y-97536000D01*
X144792397Y-98384792D01*
X145041472Y-98307157D01*
X145167371Y-98043117D01*
X145239339Y-97759589D01*
X145254611Y-97467469D01*
X145212599Y-97177981D01*
X145114919Y-96902253D01*
X145041472Y-96764843D01*
X144792397Y-96687208D01*
X143943605Y-97536000D01*
X143584395Y-97536000D01*
X142735603Y-96687208D01*
X142486528Y-96764843D01*
X142360629Y-97028883D01*
X142288661Y-97312411D01*
X142273389Y-97604531D01*
X137629000Y-97604531D01*
X137629000Y-97389740D01*
X137571932Y-97102842D01*
X137459990Y-96832589D01*
X137297475Y-96589368D01*
X137101107Y-96393000D01*
X137297475Y-96196632D01*
X137459990Y-95953411D01*
X137571932Y-95683158D01*
X137629000Y-95396260D01*
X137629000Y-95103740D01*
X137571932Y-94816842D01*
X137459990Y-94546589D01*
X137297475Y-94303368D01*
X137090632Y-94096525D01*
X136934794Y-93992397D01*
X137835208Y-93992397D01*
X137912843Y-94241472D01*
X138176883Y-94367371D01*
X138460411Y-94439339D01*
X138752531Y-94454611D01*
X139042019Y-94412599D01*
X139317747Y-94314919D01*
X139455157Y-94241472D01*
X139532792Y-93992397D01*
X138684000Y-93143605D01*
X137835208Y-93992397D01*
X136934794Y-93992397D01*
X136847411Y-93934010D01*
X136775000Y-93904017D01*
X136775000Y-93032531D01*
X137193389Y-93032531D01*
X137235401Y-93322019D01*
X137333081Y-93597747D01*
X137406528Y-93735157D01*
X137655603Y-93812792D01*
X138504395Y-92964000D01*
X138863605Y-92964000D01*
X139712397Y-93812792D01*
X139961472Y-93735157D01*
X140087371Y-93471117D01*
X140159339Y-93187589D01*
X140174611Y-92895469D01*
X140132599Y-92605981D01*
X140034919Y-92330253D01*
X139961472Y-92192843D01*
X139712397Y-92115208D01*
X138863605Y-92964000D01*
X138504395Y-92964000D01*
X137655603Y-92115208D01*
X137406528Y-92192843D01*
X137280629Y-92456883D01*
X137208661Y-92740411D01*
X137193389Y-93032531D01*
X136775000Y-93032531D01*
X136775000Y-91500077D01*
X136909607Y-91389608D01*
X137088932Y-91171101D01*
X137160000Y-91038142D01*
X137231068Y-91171100D01*
X137410392Y-91389607D01*
X137628899Y-91568932D01*
X137878192Y-91702182D01*
X137905392Y-91710433D01*
X137835208Y-91935603D01*
X138684000Y-92784395D01*
X139532792Y-91935603D01*
X139455157Y-91686528D01*
X139220459Y-91574620D01*
X139231100Y-91568932D01*
X139449607Y-91389608D01*
X139628932Y-91171101D01*
X139700000Y-91038142D01*
X139771068Y-91171100D01*
X139950392Y-91389607D01*
X140168899Y-91568932D01*
X140418192Y-91702182D01*
X140688691Y-91784236D01*
X140970000Y-91811943D01*
X141251308Y-91784236D01*
X141521807Y-91702182D01*
X141771100Y-91568932D01*
X141989607Y-91389608D01*
X142168932Y-91171101D01*
X142240000Y-91038142D01*
X142311068Y-91171100D01*
X142490392Y-91389607D01*
X142708899Y-91568932D01*
X142958192Y-91702182D01*
X142972857Y-91706631D01*
X142817368Y-91810525D01*
X142610525Y-92017368D01*
X142448010Y-92260589D01*
X142336068Y-92530842D01*
X142279000Y-92817740D01*
X142279000Y-93110260D01*
X142336068Y-93397158D01*
X142448010Y-93667411D01*
X142610525Y-93910632D01*
X142806893Y-94107000D01*
X142610525Y-94303368D01*
X142448010Y-94546589D01*
X142336068Y-94816842D01*
X142279000Y-95103740D01*
X142279000Y-95396260D01*
X142336068Y-95683158D01*
X142448010Y-95953411D01*
X142610525Y-96196632D01*
X142817368Y-96403475D01*
X142925205Y-96475529D01*
X142915208Y-96507603D01*
X143764000Y-97356395D01*
X144612792Y-96507603D01*
X144602795Y-96475529D01*
X144710632Y-96403475D01*
X144917475Y-96196632D01*
X145079990Y-95953411D01*
X145191932Y-95683158D01*
X145249000Y-95396260D01*
X145249000Y-95103740D01*
X145191932Y-94816842D01*
X145079990Y-94546589D01*
X144917475Y-94303368D01*
X144721107Y-94107000D01*
X144917475Y-93910632D01*
X145040842Y-93726000D01*
X145758577Y-93726000D01*
X145796000Y-93729686D01*
X145833423Y-93726000D01*
X145833426Y-93726000D01*
X145945378Y-93714974D01*
X146089015Y-93671402D01*
X146221392Y-93600645D01*
X146337422Y-93505422D01*
X146361284Y-93476346D01*
X147832352Y-92005279D01*
X147861422Y-91981422D01*
X147956645Y-91865392D01*
X148027402Y-91733015D01*
X148036956Y-91701521D01*
X148038192Y-91702182D01*
X148308691Y-91784236D01*
X148590000Y-91811943D01*
X148871308Y-91784236D01*
X149141807Y-91702182D01*
X149391100Y-91568932D01*
X149609607Y-91389608D01*
X149788932Y-91171101D01*
X149922182Y-90921808D01*
X150004236Y-90651309D01*
X150025000Y-90440492D01*
X150025000Y-89899509D01*
X150004236Y-89688692D01*
X149922182Y-89418193D01*
X149788932Y-89168899D01*
X149609608Y-88950392D01*
X149479000Y-88843205D01*
X149479000Y-83439000D01*
X152538151Y-83439000D01*
X152555363Y-83464759D01*
G37*
X152555363Y-83464759D02*
X152755241Y-83664637D01*
X152987759Y-83820000D01*
X152755241Y-83975363D01*
X152555363Y-84175241D01*
X152398320Y-84410273D01*
X152290147Y-84671426D01*
X152235000Y-84948665D01*
X152235000Y-85231335D01*
X152290147Y-85508574D01*
X152398320Y-85769727D01*
X152555363Y-86004759D01*
X152755241Y-86204637D01*
X152781001Y-86221849D01*
X152781000Y-92976764D01*
X146951765Y-98806000D01*
X144537486Y-98806000D01*
X144612792Y-98564397D01*
X143764000Y-97715605D01*
X142915208Y-98564397D01*
X142990514Y-98806000D01*
X138671236Y-98806000D01*
X137615477Y-97750242D01*
X137629000Y-97682260D01*
X137629000Y-97604531D01*
X142273389Y-97604531D01*
X142315401Y-97894019D01*
X142413081Y-98169747D01*
X142486528Y-98307157D01*
X142735603Y-98384792D01*
X143584395Y-97536000D01*
X143943605Y-97536000D01*
X144792397Y-98384792D01*
X145041472Y-98307157D01*
X145167371Y-98043117D01*
X145239339Y-97759589D01*
X145254611Y-97467469D01*
X145212599Y-97177981D01*
X145114919Y-96902253D01*
X145041472Y-96764843D01*
X144792397Y-96687208D01*
X143943605Y-97536000D01*
X143584395Y-97536000D01*
X142735603Y-96687208D01*
X142486528Y-96764843D01*
X142360629Y-97028883D01*
X142288661Y-97312411D01*
X142273389Y-97604531D01*
X137629000Y-97604531D01*
X137629000Y-97389740D01*
X137571932Y-97102842D01*
X137459990Y-96832589D01*
X137297475Y-96589368D01*
X137101107Y-96393000D01*
X137297475Y-96196632D01*
X137459990Y-95953411D01*
X137571932Y-95683158D01*
X137629000Y-95396260D01*
X137629000Y-95103740D01*
X137571932Y-94816842D01*
X137459990Y-94546589D01*
X137297475Y-94303368D01*
X137090632Y-94096525D01*
X136934794Y-93992397D01*
X137835208Y-93992397D01*
X137912843Y-94241472D01*
X138176883Y-94367371D01*
X138460411Y-94439339D01*
X138752531Y-94454611D01*
X139042019Y-94412599D01*
X139317747Y-94314919D01*
X139455157Y-94241472D01*
X139532792Y-93992397D01*
X138684000Y-93143605D01*
X137835208Y-93992397D01*
X136934794Y-93992397D01*
X136847411Y-93934010D01*
X136775000Y-93904017D01*
X136775000Y-93032531D01*
X137193389Y-93032531D01*
X137235401Y-93322019D01*
X137333081Y-93597747D01*
X137406528Y-93735157D01*
X137655603Y-93812792D01*
X138504395Y-92964000D01*
X138863605Y-92964000D01*
X139712397Y-93812792D01*
X139961472Y-93735157D01*
X140087371Y-93471117D01*
X140159339Y-93187589D01*
X140174611Y-92895469D01*
X140132599Y-92605981D01*
X140034919Y-92330253D01*
X139961472Y-92192843D01*
X139712397Y-92115208D01*
X138863605Y-92964000D01*
X138504395Y-92964000D01*
X137655603Y-92115208D01*
X137406528Y-92192843D01*
X137280629Y-92456883D01*
X137208661Y-92740411D01*
X137193389Y-93032531D01*
X136775000Y-93032531D01*
X136775000Y-91500077D01*
X136909607Y-91389608D01*
X137088932Y-91171101D01*
X137160000Y-91038142D01*
X137231068Y-91171100D01*
X137410392Y-91389607D01*
X137628899Y-91568932D01*
X137878192Y-91702182D01*
X137905392Y-91710433D01*
X137835208Y-91935603D01*
X138684000Y-92784395D01*
X139532792Y-91935603D01*
X139455157Y-91686528D01*
X139220459Y-91574620D01*
X139231100Y-91568932D01*
X139449607Y-91389608D01*
X139628932Y-91171101D01*
X139700000Y-91038142D01*
X139771068Y-91171100D01*
X139950392Y-91389607D01*
X140168899Y-91568932D01*
X140418192Y-91702182D01*
X140688691Y-91784236D01*
X140970000Y-91811943D01*
X141251308Y-91784236D01*
X141521807Y-91702182D01*
X141771100Y-91568932D01*
X141989607Y-91389608D01*
X142168932Y-91171101D01*
X142240000Y-91038142D01*
X142311068Y-91171100D01*
X142490392Y-91389607D01*
X142708899Y-91568932D01*
X142958192Y-91702182D01*
X142972857Y-91706631D01*
X142817368Y-91810525D01*
X142610525Y-92017368D01*
X142448010Y-92260589D01*
X142336068Y-92530842D01*
X142279000Y-92817740D01*
X142279000Y-93110260D01*
X142336068Y-93397158D01*
X142448010Y-93667411D01*
X142610525Y-93910632D01*
X142806893Y-94107000D01*
X142610525Y-94303368D01*
X142448010Y-94546589D01*
X142336068Y-94816842D01*
X142279000Y-95103740D01*
X142279000Y-95396260D01*
X142336068Y-95683158D01*
X142448010Y-95953411D01*
X142610525Y-96196632D01*
X142817368Y-96403475D01*
X142925205Y-96475529D01*
X142915208Y-96507603D01*
X143764000Y-97356395D01*
X144612792Y-96507603D01*
X144602795Y-96475529D01*
X144710632Y-96403475D01*
X144917475Y-96196632D01*
X145079990Y-95953411D01*
X145191932Y-95683158D01*
X145249000Y-95396260D01*
X145249000Y-95103740D01*
X145191932Y-94816842D01*
X145079990Y-94546589D01*
X144917475Y-94303368D01*
X144721107Y-94107000D01*
X144917475Y-93910632D01*
X145040842Y-93726000D01*
X145758577Y-93726000D01*
X145796000Y-93729686D01*
X145833423Y-93726000D01*
X145833426Y-93726000D01*
X145945378Y-93714974D01*
X146089015Y-93671402D01*
X146221392Y-93600645D01*
X146337422Y-93505422D01*
X146361284Y-93476346D01*
X147832352Y-92005279D01*
X147861422Y-91981422D01*
X147956645Y-91865392D01*
X148027402Y-91733015D01*
X148036956Y-91701521D01*
X148038192Y-91702182D01*
X148308691Y-91784236D01*
X148590000Y-91811943D01*
X148871308Y-91784236D01*
X149141807Y-91702182D01*
X149391100Y-91568932D01*
X149609607Y-91389608D01*
X149788932Y-91171101D01*
X149922182Y-90921808D01*
X150004236Y-90651309D01*
X150025000Y-90440492D01*
X150025000Y-89899509D01*
X150004236Y-89688692D01*
X149922182Y-89418193D01*
X149788932Y-89168899D01*
X149609608Y-88950392D01*
X149479000Y-88843205D01*
X149479000Y-83439000D01*
X152538151Y-83439000D01*
X152555363Y-83464759D01*
G36*
X147701000Y-82156236D02*
G01*
X147701000Y-82506333D01*
X147696699Y-82550000D01*
X147701000Y-82593667D01*
X147701001Y-85240322D01*
X147701000Y-85240332D01*
X147701001Y-87929370D01*
X143242117Y-83470487D01*
X143530906Y-83429396D01*
X143816198Y-83329221D01*
X143965791Y-83249260D01*
X144049474Y-82995079D01*
X143164999Y-82110604D01*
X143150857Y-82124747D01*
X142971252Y-81945142D01*
X142985394Y-81930999D01*
X142971252Y-81916857D01*
X143150857Y-81737252D01*
X143164999Y-81751394D01*
X143179142Y-81737252D01*
X143358747Y-81916857D01*
X143344604Y-81930999D01*
X144229079Y-82815474D01*
X144483260Y-82731791D01*
X144614157Y-82459224D01*
X144689364Y-82166357D01*
X144705990Y-81864446D01*
X144663396Y-81565092D01*
X144563221Y-81279800D01*
X144495443Y-81153000D01*
X146697765Y-81153000D01*
X147701000Y-82156236D01*
G37*
X147701000Y-82156236D02*
X147701000Y-82506333D01*
X147696699Y-82550000D01*
X147701000Y-82593667D01*
X147701001Y-85240322D01*
X147701000Y-85240332D01*
X147701001Y-87929370D01*
X143242117Y-83470487D01*
X143530906Y-83429396D01*
X143816198Y-83329221D01*
X143965791Y-83249260D01*
X144049474Y-82995079D01*
X143164999Y-82110604D01*
X143150857Y-82124747D01*
X142971252Y-81945142D01*
X142985394Y-81930999D01*
X142971252Y-81916857D01*
X143150857Y-81737252D01*
X143164999Y-81751394D01*
X143179142Y-81737252D01*
X143358747Y-81916857D01*
X143344604Y-81930999D01*
X144229079Y-82815474D01*
X144483260Y-82731791D01*
X144614157Y-82459224D01*
X144689364Y-82166357D01*
X144705990Y-81864446D01*
X144663396Y-81565092D01*
X144563221Y-81279800D01*
X144495443Y-81153000D01*
X146697765Y-81153000D01*
X147701000Y-82156236D01*
G36*
X115418747Y-81916857D02*
G01*
X115404604Y-81930999D01*
X116289079Y-82815474D01*
X116470048Y-82755894D01*
X116572687Y-82909504D01*
X116786494Y-83123311D01*
X116879999Y-83185789D01*
X116880000Y-84701520D01*
X116875718Y-84744999D01*
X116889389Y-84883811D01*
X115454397Y-83448819D01*
X115590906Y-83429396D01*
X115876198Y-83329221D01*
X116025791Y-83249260D01*
X116109474Y-82995079D01*
X115224999Y-82110604D01*
X115210857Y-82124747D01*
X115031252Y-81945142D01*
X115045394Y-81930999D01*
X115031252Y-81916857D01*
X115210857Y-81737252D01*
X115224999Y-81751394D01*
X115239142Y-81737252D01*
X115418747Y-81916857D01*
G37*
X115418747Y-81916857D02*
X115404604Y-81930999D01*
X116289079Y-82815474D01*
X116470048Y-82755894D01*
X116572687Y-82909504D01*
X116786494Y-83123311D01*
X116879999Y-83185789D01*
X116880000Y-84701520D01*
X116875718Y-84744999D01*
X116889389Y-84883811D01*
X115454397Y-83448819D01*
X115590906Y-83429396D01*
X115876198Y-83329221D01*
X116025791Y-83249260D01*
X116109474Y-82995079D01*
X115224999Y-82110604D01*
X115210857Y-82124747D01*
X115031252Y-81945142D01*
X115045394Y-81930999D01*
X115031252Y-81916857D01*
X115210857Y-81737252D01*
X115224999Y-81751394D01*
X115239142Y-81737252D01*
X115418747Y-81916857D01*
G04 #@! TD*
M02*
